<?xml version="1.0" encoding="UTF-8"?>
<svg width="243px" height="47px" viewBox="0 0 243 47" version="1.1" xmlns="http://www.w3.org/2000/svg" xmlns:xlink="http://www.w3.org/1999/xlink">
    <title>Logo</title>
    <g id="Logo" stroke="none" stroke-width="1" fill="none" fill-rule="evenodd">
        <g id="Shield">
            <path d="M1.04802734,0 L0,7.37862381 L1.04802734,12.9643467 C4.53678266,12.9643467 7.36382393,15.7741628 7.36382393,19.2382141 C7.36382393,21.4061392 6.25786053,23.3163821 4.57406233,24.4443204 L4.57406233,30.5824032 L1.04802734,30.5824032 L0,37.834712 L1.04802734,47 C23.3630135,38.6353578 24.0480273,9.87987525 24.0480273,9.87987525 C24.0480273,9.87987525 1.04802734,0 1.04802734,0 Z" id="Left" fill="#E63748" transform="translate(12.024014, 23.500000) scale(-1, 1) translate(-12.024014, -23.500000) "></path>
            <path d="M23,0 L23,12.9643467 C26.4887553,12.9643467 29.3157966,15.7741628 29.3157966,19.2382141 C29.3157966,21.4061392 28.2098332,23.3163821 26.526035,24.4443204 L26.526035,30.5824032 L23,30.5824032 L23,47 C45.3149862,38.6353578 46,9.87987525 46,9.87987525 L23,0 Z" id="Right" fill="#C42B34"></path>
        </g>
        <g id="Text" transform="translate(56.000000, 9.000000)" fill="#2C3035">
            <path d="M39.6807441,0.189875 C48.0271174,0.189875 53.6811747,5.7195 53.6811747,15.457375 C53.6811747,25.24175 48.0271174,31 39.6807441,31 C31.3363092,31 25.6803135,25.24175 25.6803135,15.457375 C25.6803135,5.6749375 31.3363092,0.189875 39.6807441,0.189875 Z M166.279681,0.1026875 L171.206871,16.480375 C172.331093,20.088 173.0347,22.9574375 174.209317,26.5185625 L174.209317,26.5185625 L174.395395,26.5185625 C175.523493,22.9574375 176.27362,20.088 177.351322,16.480375 L177.351322,16.480375 L182.278512,0.1026875 L186.265621,0.1026875 L176.508156,30.4516875 L171.956998,30.4516875 L162.104556,0.1026875 L166.279681,0.1026875 Z M150.32737,0.1026875 L160.741923,30.4516875 L156.568736,30.4516875 L153.659329,21.200125 L142.446192,21.200125 L139.490265,30.4516875 L135.503157,30.4516875 L145.917709,0.1026875 L150.32737,0.1026875 Z M117.46716,0.73625 L117.46716,23.87 L128.87219,23.87 L128.87219,30.4516875 L109.494881,30.4516875 L109.494881,0.73625 L117.46716,0.73625 Z M97.4424541,0.73625 L106.622302,30.4516875 L98.1848278,30.4516875 L96.7020188,24.1431875 L88.2645448,24.1431875 L86.7797975,30.4516875 L78.6195022,30.4516875 L87.7993498,0.73625 L97.4424541,0.73625 Z M79.8290092,0.73625 L79.8290092,7.319875 L71.8528536,7.319875 L71.8528536,30.4516875 L63.8805746,30.4516875 L63.8805746,7.319875 L55.904419,7.319875 L55.904419,0.73625 L79.8290092,0.73625 Z M23.9203259,0.73625 L23.9203259,7.319875 L15.9461086,7.319875 L15.9461086,30.4516875 L7.97382962,30.4516875 L7.97382962,7.319875 L-0.000387662483,7.319875 L-0.000387662483,0.73625 L23.9203259,0.73625 Z M39.6807441,6.9536875 C36.0657915,6.9536875 33.8406088,10.063375 33.8406088,15.457375 C33.8406088,20.851375 36.0657915,24.23425 39.6807441,24.23425 C43.2976351,24.23425 45.5228177,20.851375 45.5228177,15.457375 C45.5228177,10.063375 43.2976351,6.9536875 39.6807441,6.9536875 Z M148.121571,3.2491875 L147.935493,3.2491875 C147.114617,6.32448437 146.256641,9.2603418 145.301833,12.2086227 L144.886527,13.473375 L143.430854,18.100125 L152.674666,18.100125 L151.220932,13.473375 C150.094773,10.0963125 149.108172,6.7638125 148.121571,3.2491875 Z M92.5288321,6.5894375 L92.3446925,6.5894375 C91.7543882,9.33011932 91.0871923,12.5271544 90.4130061,15.2154321 L90.2106105,16.0056875 L89.7008343,18.0633125 L95.263791,18.0633125 L94.7540148,16.0056875 C94.4174533,14.71725 94.0804913,13.2686885 93.7433108,11.7926512 L93.3386011,10.0167076 C93.0687403,8.83527221 92.7987862,7.67021023 92.5288321,6.5894375 Z" id="Combined-Shape"></path>
        </g>
    </g>
</svg>