<?xml version="1.0" encoding="UTF-8"?>
<svg width="50px" height="51px" viewBox="0 0 50 51" version="1.1" xmlns="http://www.w3.org/2000/svg" xmlns:xlink="http://www.w3.org/1999/xlink">
    <title>Shield</title>
    <g id="Shield" stroke="none" stroke-width="1" fill="none" fill-rule="evenodd">
        <path d="M1.13916016,0 L0,8.0065918 L1.13916016,14.0676953 C4.9312855,14.0676953 8.00415644,17.1166448 8.00415644,20.8755089 C8.00415644,23.2279383 6.80202232,25.3007551 4.97180688,26.5246881 L4.97180688,33.1851609 L1.13916016,33.1851609 L0,41.0546875 L1.13916016,51 C25.3945799,41.9234734 26.1391602,10.7207157 26.1391602,10.7207157 C26.1391602,10.7207157 1.13916016,0 1.13916016,0 Z" id="Left" fill="#E63748" transform="translate(13.069580, 25.500000) scale(-1, 1) translate(-13.069580, -25.500000) "></path>
        <path d="M25,0 L25,14.0676953 C28.7921253,14.0676953 31.8649963,17.1166448 31.8649963,20.8755089 C31.8649963,23.2279383 30.6628622,25.3007551 28.8326467,26.5246881 L28.8326467,33.1851609 L25,33.1851609 L25,51 C49.2554197,41.9234734 50,10.7207157 50,10.7207157 L25,0 Z" id="Right" fill="#C42B34"></path>
    </g>
</svg>