<?xml version="1.0" standalone="no"?> 
<!DOCTYPE svg PUBLIC "-//W3C//DTD SVG 1.1//EN" "http://www.w3.org/Graphics/SVG/1.1/DTD/svg11.dtd" >
<svg xmlns="http://www.w3.org/2000/svg">
<defs>
  <font id="kondo_lined-icons" horiz-adv-x="1200">
    <font-face font-family="kondo_lined-icons"
      units-per-em="1000" ascent="1000"
      descent="0" />
    <missing-glyph horiz-adv-x="0" />
    <glyph glyph-name="365-calender"
      unicode="&#xF141;"
      horiz-adv-x="1000" d=" M218.1666666666667 1000C218.6666666666666 999.5833333333334 219.0833333333333 998.9583333333334 219.6666666666666 998.8333333333334C269.1666666666667 986.1666666666666 293.3333333333333 955.2083333333334 293.4166666666667 904.0833333333334V883.1666666666666H411.5833333333333C411.5833333333333 893.875 411.3333333333333 903.9166666666666 411.625 913.9166666666666C412.5416666666667 942.75 424.2916666666667 966.625 448.1666666666667 982.6666666666666C459.9583333333333 990.5833333333334 474.5416666666666 994.3333333333334 487.9166666666667 1000H511.3333333333333C512.2083333333334 999.5833333333334 513 998.9166666666666 513.9583333333334 998.7083333333334C561.875 987.75 587.6666666666666 955.375 587.7083333333334 906.125V883.125H705.8333333333334V909.9166666666666C706.0833333333334 941.8333333333331 718.75 967.625 745.5833333333334 984.9583333333331C756.25 991.8333333333331 769.1666666666666 995.0833333333331 781.0833333333334 1000H806.5C807 999.5833333333331 807.4583333333334 999.0416666666666 808.0416666666666 998.875C857.875 986.4166666666666 882.3749999999999 955.125 882.4166666666666 903.8333333333331V882.8333333333333H1000V0H0V882.5H116.875C116.875 893.1666666666666 116.7083333333333 902.25 116.875 911.3333333333334C117.875 955.0833333333334 145.6666666666667 988.8333333333334 188.375 998.25C189.875 998.5833333333334 191.2916666666667 999.4166666666666 192.75 1000H218.1666666666667zM774.3333333333333 602.2916666666667C748.0833333333334 590.9583333333334 721.6249999999999 580.0416666666667 695.0416666666666 569.5A20.08333333333333 20.08333333333333 0 0 0 681.5 569.4583333333334C654.625 580.125 628.0416666666667 591.625 601.1666666666666 602.2083333333333A21.458333333333332 21.458333333333332 0 0 1 586.7083333333334 602.2083333333333C559.8333333333334 591.625 533.2916666666667 580.125 506.3750000000001 569.4166666666666A20.124999999999996 20.124999999999996 0 0 0 492.8333333333334 569.5416666666666C466.2500000000001 580.0833333333333 440.0000000000001 591.4583333333333 413.3750000000001 601.9166666666666A22.833333333333336 22.833333333333336 0 0 1 398.1250000000001 602.0416666666666C371.7916666666668 591.7916666666665 345.6666666666668 580.875 319.6666666666668 569.7916666666665A18.958333333333332 18.958333333333332 0 0 0 303.2083333333335 569.6666666666665A2958.4166666666665 2958.4166666666665 0 0 1 223.8750000000001 602.4166666666665A20.124999999999996 20.124999999999996 0 0 1 210.3333333333334 602.4999999999999C184.6666666666668 592.2916666666666 159.0833333333334 581.8333333333333 133.8333333333334 570.6666666666666A24.750000000000004 24.750000000000004 0 0 0 111.8333333333334 570.7916666666666C94.3750000000001 578.5416666666666 76.6250000000001 585.5416666666665 58.5000000000001 593.0833333333333V59.2499999999999H941.0000000000002V592.7916666666667C937.4166666666669 591.4583333333334 934.4166666666669 590.4166666666667 931.4583333333334 589.2083333333334C915.2500000000002 582.5 899.1666666666669 575.4583333333334 882.7916666666669 569.2083333333333A19.041666666666664 19.041666666666664 0 0 0 870.1250000000002 569.2916666666667A3334.5833333333326 3334.5833333333326 0 0 0 790.7916666666669 602.0833333333335A18.874999999999996 18.874999999999996 0 0 1 774.3333333333336 602.2916666666667zM822.8749999999999 470.0833333333334V383.3333333333334H764.9999999999999V411.1666666666667H706.2499999999999V352.9166666666667C714.2499999999999 352.9166666666667 722.25 353.0416666666667 730.25 352.9166666666667C776.9166666666666 352.25 811.7499999999999 326.25 820.9583333333333 283.75C828.4583333333333 248.9583333333333 818.0833333333333 218.9166666666666 790.4583333333333 196.4999999999999C762.8333333333333 174 731.2083333333333 169.9583333333333 698.7916666666666 184.7083333333333C666.8750000000001 199.2916666666666 649.7083333333333 225.2083333333333 647.2083333333334 260.4583333333333C647.1666666666667 261.3333333333333 647.5416666666666 262.2916666666667 647.9583333333334 264.4583333333333C665.6666666666667 264.4583333333333 683.4583333333334 264.7083333333333 701.2916666666667 264.0416666666665C703.2916666666666 263.9583333333333 705.7916666666667 258.8333333333333 706.9166666666669 255.6249999999998C711.5000000000001 242.9583333333333 724.1250000000001 234.1249999999998 737.0416666666667 235.2083333333333A29.58333333333333 29.58333333333333 0 0 1 764.2083333333335 260.4166666666665A28.625 28.625 0 0 1 746.2083333333336 291.6666666666665A45.75 45.75 0 0 1 730.9583333333336 294.2083333333333C706.8750000000002 294.5 682.791666666667 294.3333333333333 658.666666666667 294.3333333333333H647.416666666667V470.0833333333333H822.8333333333336zM498.2083333333333 470.5C543.9166666666666 471.25 584.0416666666666 435.25 587.4166666666666 390.4583333333334C587.5833333333333 388.2083333333334 587.4166666666666 386.0000000000001 587.4166666666666 382.7916666666668H530.1249999999999C529.2916666666666 385.6250000000001 528.4583333333333 388.6250000000001 527.4166666666666 391.5416666666668C522.8333333333333 404.8750000000001 509.6249999999999 413.4583333333335 496.4583333333333 411.7500000000001A29.58333333333333 29.58333333333333 0 0 1 470.2916666666666 383.4583333333334C469.8749999999999 372.1250000000001 470.2083333333333 360.7500000000001 470.2083333333333 350.2500000000001C483.7499999999999 350.8333333333334 496.9583333333332 352.9166666666668 509.8749999999999 351.7083333333334C556.9583333333331 347.1666666666668 590.8333333333333 305.3333333333334 587.4999999999999 257.125C584.3749999999999 212.375 544.0416666666666 175.6666666666668 498.7499999999999 176.4583333333334C451.7916666666666 177.2916666666666 412.7083333333333 214.5 411.8333333333333 260.75A3360.624999999999 3360.624999999999 0 0 0 411.8333333333333 386.6666666666667C412.625 432.0833333333334 451.9999999999999 469.75 498.2083333333333 470.5zM332.25 438.125C355.0416666666667 410.5416666666668 363.0833333333333 364.2916666666668 330.1666666666666 323.4166666666668C345.3333333333333 304.8333333333334 353.5416666666667 283.5833333333334 351.9583333333333 259.0833333333334A88.08333333333333 88.08333333333333 0 0 0 233.5 182A87.29166666666666 87.29166666666666 0 0 0 176.5833333333333 264.5C194.75 264.5 212.25 264.7083333333333 229.7916666666667 264.125C231.8333333333333 264.0833333333333 234.625 259.8333333333333 235.5416666666667 257.0416666666667C240.25 242.9583333333333 252.875 233.8333333333333 266.5416666666667 235.2499999999999A29.74999999999999 29.74999999999999 0 0 1 293.4583333333333 261.9166666666667C295.2083333333333 276.9166666666667 284 291.5833333333333 269.0833333333333 293.0833333333334C258.125 294.1666666666667 247.0833333333333 294.3333333333334 235.4166666666667 295V353.3333333333333C245.25 353.3333333333333 254.875 352.9166666666667 264.4583333333333 353.375C281.4583333333333 354.25 293 365.625 293.625 381.4166666666667C294.25 395.9166666666667 283.2083333333333 409.0416666666667 268.2916666666667 411.6249999999999C253.8333333333334 414.125 239.8333333333334 404.375 235.4583333333333 388.7916666666667L233.6666666666667 382.9166666666667H177.25C173.125 413.2499999999999 196.7083333333333 449.1666666666667 229.75 463.375A87.83333333333333 87.83333333333333 0 0 0 332.25 438.125zM499.8333333333333 294.2083333333334A29.74999999999999 29.74999999999999 0 0 1 470.2499999999999 265.375A29.70833333333333 29.70833333333333 0 0 1 499.4166666666665 235.0833333333334A29.791666666666668 29.791666666666668 0 0 1 528.9999999999999 263.9583333333334A29.74999999999999 29.74999999999999 0 0 1 499.8333333333333 294.2083333333334zM941.3749999999998 705.2083333333334H57.875C57.875 690.125 57.625 675.8333333333334 58.1666666666667 661.5833333333334C58.25 659.0833333333333 61.5 655.625 64.0833333333333 654.5C81.0416666666667 647 98.0833333333333 639.7083333333334 115.4166666666667 633.25C120 631.5833333333335 126.375 631.5833333333335 130.9166666666666 633.4166666666667C156.9166666666666 643.6666666666667 182.4583333333333 655 208.5416666666666 665.125A26 26 0 0 0 225.7916666666666 665C251.2083333333333 655.1666666666666 276.4166666666666 644.5833333333333 301.5 633.75C308.3333333333333 630.8333333333333 314 630.625 320.875 633.625C345.6249999999999 644.375 370.75 654.25 395.5 664.9583333333333A22.124999999999996 22.124999999999996 0 0 0 414.875 665.2083333333334C440.5 654.0416666666666 466.3749999999999 643.375 492.3749999999999 633.125C496.6666666666666 631.4583333333335 502.7083333333332 631.4583333333335 506.9583333333332 633.125A2758.8749999999995 2758.8749999999995 0 0 1 584.4583333333331 665.2083333333334A21.333333333333332 21.333333333333332 0 0 0 602.9583333333333 665.3333333333334C628.6249999999999 654.25 654.4166666666665 643.5 680.4583333333333 633.2916666666667A23.125 23.125 0 0 1 695.875 633.3333333333333C721.9166666666666 643.5833333333333 747.5 654.9166666666667 773.5416666666666 665.0416666666666A26 26 0 0 0 790.7916666666667 665.125C817.1666666666667 654.875 843.1250000000001 643.5833333333333 869.3333333333335 633.0416666666667C872.9166666666667 631.5833333333333 877.8333333333335 630.7916666666667 881.2500000000002 632.0833333333334C899.7500000000001 639.1666666666667 918.0416666666669 646.8333333333333 936.2500000000002 654.75C938.5000000000002 655.75 941.0416666666669 659.2083333333333 941.1250000000002 661.625C941.5833333333334 675.875 941.3750000000002 690.1666666666667 941.3750000000002 705.2083333333333zM116.5416666666667 823.2083333333334H58.25V765.5H940.6249999999998V823.2083333333334H764.4583333333334V795.0833333333334H705.625V823.1666666666667H469.9583333333334V795H411.0833333333333V823.0416666666667H175.1666666666667V795.2083333333334H116.5416666666667V823.2083333333334zM206.75 941.3333333333334C192.4583333333333 942.1666666666666 178.8333333333333 932.4583333333331 176.75 917.75C175.0833333333333 906.4583333333334 176.4166666666667 894.75 176.4166666666667 882.875H234.4166666666667C234.4166666666667 894.125 235.0833333333333 904.4583333333334 234.2916666666667 914.7083333333334A28.874999999999993 28.874999999999993 0 0 1 206.7916666666666 941.375zM500.3333333333333 941.375C486.0416666666666 941.7083333333331 472.2916666666666 931.1666666666666 470.7499999999999 916.9583333333334C469.5416666666666 905.875 470.4999999999999 894.5416666666666 470.4999999999999 882.9166666666666H528.8749999999999C528.8749999999999 894.3333333333333 529.5833333333331 905 528.7083333333333 915.5833333333331C527.5833333333333 929.875 514.6666666666666 941 500.3333333333333 941.4166666666666zM794.7499999999999 941.375C781.0833333333333 941.7083333333331 767.5416666666666 932.2083333333331 765.7916666666665 918.875C764.2499999999999 907.2083333333334 765.4583333333333 895.2083333333333 765.4583333333333 882.9583333333333H823.3749999999999C823.3749999999999 894.375 824.2916666666665 905.0416666666666 823.1666666666666 915.5833333333331A29.08333333333333 29.08333333333333 0 0 1 794.75 941.375z" />
    <glyph glyph-name="adblock"
      unicode="&#xF11E;"
      horiz-adv-x="960" d=" M483.84 1000L959.8400000000001 795.88L958.92 767.28L958.2400000000002 755.08L957.2000000000002 741.28L955.7600000000002 725.96L953.8800000000002 709.1600000000001L951.52 691L948.72 671.5600000000001A1115.0800000000002 1115.0800000000002 0 0 0 894.5999999999999 459.48C821.72 260.5200000000001 701 117.96 532 41.2800000000002L516.96 34.6800000000002L504.36 29.4800000000002L483.64 21.4800000000002H476.5199999999999L468.4 24.4800000000002C279.8399999999999 95.0400000000002 146 242.2800000000002 67 454.6400000000002A1096.9199999999998 1096.9199999999998 0 0 0 16.04 642.2L11.4 669.92L8.44 689.76L5.04 716.96L3.32 733.24L2.04 748.16L1.16 761.44L0.64 773.6L0 795.88L476 1000H483.84zM479.88 936.44L61.56 757.04L61.84 753.28L63.04 739.44L64.56 724.48L67.8 698.48L70.56 679.88L75.08 652.8399999999999A1036.8 1036.8 0 0 1 123.24 475.5599999999999C195.16 282.28 312.84 151.96 474.6 86.4400000000001L479.88 84.4400000000001L492.88 89.64L507.2 95.92C659.04 164.8000000000001 769.88 293.44 838.28 480.12C858.5600000000001 535.6 874.28 594.16 885 654.36L889.32 680.24L892 698.64L894.24 715.8399999999999L896.0400000000002 731.6L897.3600000000001 745.84L898.2000000000003 757.04L479.8800000000002 936.44zM615.2 720L660.2 675L525.2 540L660.2 405L615.2 360L480.2 495L345.2000000000001 360L300.2000000000001 405L435.2000000000001 540L300.2 675L345.2000000000001 720L480.2 585L615.2 720z" />
    <glyph glyph-name="alt-tick"
      unicode="&#xF115;"
      horiz-adv-x="1090.909090909091" d=" M1028.2727272727273 1000C845.3636363636363 893.6363636363636 664.9545454545454 707.6818181818182 545.4090909090909 570C458.5909090909091 470 403.5454545454546 395.1363636363637 403.5454545454546 395.1363636363637L122.0454545454546 607.4090909090909L0 510.6818181818182L480.4090909090909 33.2272727272729C499.6363636363637 81.409090909091 521.9545454545455 128.0909090909092 545.4090909090909 173.909090909091C751.6363636363636 575.2272727272727 1090.909090909091 872.4545454545455 1090.909090909091 872.4545454545455L1028.2727272727273 1000z" />
    <glyph glyph-name="antivirus-pro"
      unicode="&#xF11D;"
      horiz-adv-x="1000" d=" M29.375 792.6875L512.875 1000L996.3124999999998 792.6875L995.625 770.5L994.9375 758.15625L993.90625 744.15625L992.40625 728.53125L990.5 711.4375L988.09375 692.90625L985.1875 672.96875A1132.9687500000002 1132.9687500000002 0 0 0 930.03125 456.6874999999999C857.0625 257.3749999999999 733.375 104.34375 547.125 25.4374999999999L534.3125 20.1562499999999L513.0312499999999 11.9374999999998L504.6562499999999 15.0624999999999C305.8125 89.4374999999999 174.3437499999999 245.2812499999999 97.5624999999999 451.71875A1129.96875 1129.96875 0 0 0 40.8437499999999 671.21875L37.8437499999999 691.46875L35.4062499999999 710.34375A1042.78125 1042.78125 0 0 0 34.3437499999999 719.21875L32.6249999999999 735.875C32.1249999999999 741.1875 31.6874999999999 746.1875 31.3124999999999 750.9375L30.4374999999999 764.375L29.9062499999999 776.75L29.4374999999999 792.6875zM948.1875000000002 762.3125L512.8125 949L77.5 762.3125L78.125 753.25L79.5625 737.09375L81.53125 718.9375L82.75 709.15625L85.625 688.28125L87.125 678.4375C97.9375 608.96875 115.5625 537.65625 141.4375 468.0625C212.25 277.75 330.9375 134.625 508.5625 63.7812500000001L512.8125 62.1562500000001L517.125 63.7812500000001C688.0625 132.0625000000001 804.3125 267.0937500000001 875.8750000000001 446.2812500000003L881.0000000000001 459.4687500000002L886.0000000000001 472.8125000000002A1086.5625 1086.5625 0 0 1 938.8125000000002 680.1250000000002L941.9062500000002 701.1562500000002L944.3437500000002 720.5312500000002C944.7187500000002 723.5937500000002 945.0312500000002 726.5937500000002 945.3437500000002 729.5312500000002L947.0000000000002 746.1875000000002L948.1875000000002 762.3125000000002zM513.4062500000001 739.34375L520.28125 739.15625C599.7187500000001 735.28125 662.46875 670.09375 662.46875 590.75A147.90625 147.90625 0 0 0 608.1562500000001 476.1875L606.7187500000001 475.125V341.0625H418.9687500000001V475.125L417.5312500000001 476.1875A147.93749999999997 147.93749999999997 0 0 0 363.4062500000002 583.28125L363.2187500000002 590.78125C363.2187500000002 670.625 426.6562500000001 735.71875 506.1875000000001 739.21875L513.4062500000002 739.34375zM518.5937500000001 692.3125L512.84375 692.46875C456.0625000000001 692.46875 410.0937500000001 646.875 410.0937500000001 590.75C410.0937500000001 558.6875 425.1875000000001 529.15625 450.28125 510.0625L455.4375 506.4062499999999L465.84375 499.4375V387.9374999999999H559.84375V499.4375L570.28125 506.40625A101.25 101.25 0 0 1 615.5937499999999 590.78125A102.0625 102.0625 0 0 1 524.3437499999999 691.875L518.5937499999999 692.3125z" />
    <glyph glyph-name="app-store"
      unicode="&#xF136;"
      horiz-adv-x="1090.909090909091" d=" M0 387.1818181818183V537.9545454545455A25.000000000000004 25.000000000000004 0 0 0 24.7727272727273 563.0454545454545H286.3636363636364L172.5 362.0454545454545H24.7727272727273A25.000000000000004 25.000000000000004 0 0 0 0 387.1818181818183M186.3636363636364 78.4545454545455L102.8636363636364 20.8181818181818C91.6363636363636 13.090909090909 83.6818181818182 17.9999999999999 85.2272727272727 31.7272727272726L96.3636363636364 130.2727272727272C97.9090909090909 143.9999999999998 108.8636363636364 149.590909090909 120.6818181818182 142.772727272727L185.2727272727273 105.1363636363634C197.0909090909091 98.2727272727271 197.5454545454545 86.1818181818179 186.3181818181818 78.4545454545453M206.4090909090909 133.9999999999999L141.7727272727273 171.590909090909A25.272727272727273 25.272727272727273 0 0 0 132.6818181818182 205.8636363636364L431.8181818181818 734.0454545454545A24.636363636363637 24.636363636363637 0 0 0 465.6818181818181 743.3181818181818L530.2727272727271 705.8181818181818A25.454545454545457 25.454545454545457 0 0 0 539.3636363636363 671.4545454545455L240.2727272727272 143.2727272727274A24.72727272727273 24.72727272727273 0 0 0 206.3636363636362 134M434.0454545454545 362.0454545454545L547.9090909090909 563.0454545454545H613.4999999999999L705.9999999999999 362.0454545454545H434.0909090909091zM804.9545454545453 302.0454545454545C779.0909090909089 315.2272727272727 650.272727272727 616.590909090909 617.2727272727271 695.2272727272727C584.272727272727 773.8181818181818 484.5454545454544 983.0909090909092 516.8181818181816 999.3636363636364C539.7727272727271 1011.0454545454546 622.181818181818 846.2272727272727 683.9545454545453 747.2727272727273C745.6363636363634 648.3181818181818 874.6363636363635 393.1818181818182 890.5454545454545 364.1363636363637C906.3181818181818 335.0454545454545 875.3181818181816 310.7272727272727 858.0909090909091 303.4545454545454C840.8181818181819 296.1818181818182 830.8181818181818 288.9090909090909 805 302M889.6363636363637 163.4999999999999L850.7272727272727 225.8181818181817A24.863636363636363 24.863636363636363 0 0 0 859.909090909091 261.6363636363635L897 280.9545454545454A27.18181818181818 27.18181818181818 0 0 0 933.4090909090908 268.6818181818182L964.1363636363636 208.8181818181818A29.863636363636367 29.863636363636367 0 0 0 953.7727272727273 170.2272727272726L927.2272727272726 154.1363636363636A27.68181818181818 27.68181818181818 0 0 0 889.6363636363634 163.4999999999999M1032.909090909091 0C1024.7272727272727 26.4090909090909 962.6818181818182 28.1818181818182 934.8636363636364 67.9545454545455C907 107.5909090909091 930.0454545454546 127.9545454545455 939.7272727272726 137.4090909090909C1052.4545454545455 201.8181818181819 1032.909090909091 0 1032.909090909091 0M1090.909090909091 387.1818181818183A25.000000000000004 25.000000000000004 0 0 0 1066.1363636363635 362.0454545454545H935.181818181818A76.36363636363637 76.36363636363637 0 0 1 927.4545454545452 384.7727272727273A3136.999999999999 3136.999999999999 0 0 0 903.3636363636361 430.909090909091C886.0909090909089 464.5000000000001 861.1818181818179 512.5 834.5454545454544 563.0454545454545H1066.090909090909C1079.7272727272725 563.0454545454545 1090.8636363636363 551.7727272727273 1090.8636363636363 537.9545454545455L1090.909090909091 387.1818181818183z" />
    <glyph glyph-name="arrow-bottom"
      unicode="&#xF108;"
      horiz-adv-x="1000" d=" M875 318.75C875 303.75 868.125 289.5625 855.625 278.9375L546.8124999999999 16.4374999999999C534.3125 5.8124999999999 517.6875 -2e-13 499.9999999999999 -2e-13S465.6874999999999 5.8749999999998 453.1874999999999 16.4374999999998L144.4375 278.9374999999999A52 52 0 0 0 125 318.75C125 333.75 131.875 347.8749999999999 144.375 358.4999999999999C156.875 369.1249999999999 173.5 374.9999999999999 191.1875 374.9999999999999S225.5 369.1249999999999 238.0000000000001 358.4999999999999L437.5 189V937.5A62.5 62.5 0 1 0 562.5 937.5V189L762 358.4999999999999C774.5 369.1249999999999 791.125 374.9999999999999 808.8125 374.9999999999999S843.125 369.1249999999999 855.6250000000001 358.4999999999999C868.125 347.8749999999999 875.0000000000001 333.7499999999999 875.0000000000001 318.75z" />
    <glyph glyph-name="arrow-left"
      unicode="&#xF109;"
      horiz-adv-x="1000" d=" M318.75 125A52 52 0 0 0 278.9375 144.375L16.4374999999999 453.1875000000001C5.8125 465.6875 0 482.3125 0 500S5.875 534.3125 16.4375 546.8125L278.9375 855.5625A52 52 0 0 0 318.75 875C333.75 875 347.875 868.125 358.5 855.625C369.125 843.125 375 826.5 375 808.8125S369.125 774.5 358.5 762L189 562.5H937.5A62.5 62.5 0 1 0 937.5 437.5H189L358.5000000000001 238C369.1250000000001 225.5 375.0000000000001 208.875 375.0000000000001 191.1875S369.1250000000001 156.875 358.5000000000001 144.3749999999999C347.8750000000001 131.875 333.7500000000001 124.9999999999999 318.7500000000001 124.9999999999999z" />
    <glyph glyph-name="arrow-right"
      unicode="&#xF10A;"
      horiz-adv-x="1000" d=" M681.25 875C696.25 875 710.4375 868.125 721.0625 855.625L983.5625000000002 546.8125C994.1875000000002 534.3125 1000.0000000000002 517.6875 1000.0000000000002 500.0000000000001S994.1250000000002 465.6875 983.5625000000002 453.1875000000001L721.0625000000001 144.4375A52.06250000000001 52.06250000000001 0 0 0 681.25 125A52 52 0 0 0 641.5000000000001 144.375C630.8750000000001 156.875 625.0000000000001 173.5 625.0000000000001 191.1875000000001S630.8750000000001 225.5 641.5000000000001 238.0000000000001L811 437.5H62.5A62.5 62.5 0 1 0 62.5 562.5H811L641.5000000000001 762C630.8750000000001 774.5 625.0000000000001 791.125 625.0000000000001 808.8125S630.8750000000001 843.125 641.5000000000001 855.625C652.1250000000001 868.125 666.2500000000001 875 681.25 875z" />
    <glyph glyph-name="arrow-top"
      unicode="&#xF10B;"
      horiz-adv-x="1000" d=" M125 681.25C125 696.25 131.875 710.4375 144.375 721.0625L453.1874999999999 983.5625000000002C465.6875 994.1875 482.3125 1000 500 1000S534.3125 994.125 546.8125 983.5625L855.5625 721.0625C868.0625 710.4375 875 696.3125 875 681.25C875 666.25 868.125 652.125 855.625 641.5C843.125 630.875 826.5 625 808.8124999999999 625S774.5 630.875 761.9999999999999 641.5L562.5 811V62.5A62.5 62.5 0 1 0 437.5 62.5V811L238 641.5C225.5 630.875 208.875 625 191.1875 625S156.875 630.875 144.375 641.5A52 52 0 0 0 125 681.25z" />
    <glyph glyph-name="at-symbol"
      unicode="&#xF140;"
      horiz-adv-x="1000" d=" M438.7 945.8C684.8499999999999 979.45 911.7 807.8 945.4999999999998 562.3A448.5000000000001 448.5000000000001 0 0 0 925.2 351.7000000000001A149.90000000000003 149.90000000000003 0 0 0 782.65 252.6500000000001A151.6 151.6 0 0 0 646.4499999999999 338.35A218 218 0 0 0 348.3499999999999 342.6500000000001A216.65000000000006 216.65000000000006 0 0 0 334.3499999999999 639.7A218.45 218.45 0 0 0 630.7499999999999 672.2A43.5 43.5 0 0 0 717.8 672.2V404.1A64.85000000000001 64.85000000000001 0 0 1 782.65 339.4500000000001A62.849999999999994 62.849999999999994 0 0 1 842.9499999999999 380.1500000000001A360.95 360.95 0 0 1 809.0499999999998 688.5A362.7 362.7 0 0 1 548.1499999999999 857.25A362.79999999999995 362.79999999999995 0 0 1 171 649.9000000000001A361.09999999999997 361.09999999999997 0 0 1 258.35 229.3A363.34999999999997 363.34999999999997 0 0 1 687.05 188.5499999999999A43.599999999999994 43.599999999999994 0 0 0 752.9999999999999 152.1499999999998C753.3 136.6499999999999 745.25 122.1499999999998 731.9499999999999 114.1499999999998A446.2 446.2 0 0 0 500.7 50C480.55 50 460.3999999999999 51.3 440.3499999999999 53.95A452.4 452.4 0 0 0 54.2499999999999 440.3000000000001C20.4499999999999 685.8000000000001 192.5999999999999 912.1 438.75 945.8zM500.2 628.8A130.4 130.4 0 0 1 369.7 498.6000000000001A130.4 130.4 0 0 1 500.2 368.4000000000001A130.5 130.5 0 0 1 630.75 498.6000000000001A130.4 130.4 0 0 1 500.2500000000001 628.8000000000001z" />
    <glyph glyph-name="block"
      unicode="&#xF119;"
      horiz-adv-x="1000" d=" M687.5 1000L1000 687.5V312.5L687.5 0H312.5L0 312.5V687.5L312.5 1000H687.5zM661.625 937.5H338.3333333333333L62.5 661.625V338.375L338.375 62.5H661.625L937.5 338.375V661.6666666666667L661.625 937.5zM645.8333333333333 687.5L687.5 645.8333333333334L541.625 500L687.5 354.1666666666668L645.8333333333333 312.5L500 458.375L354.1666666666667 312.5L312.5 354.1666666666668L458.3333333333333 500.0416666666667L312.5 645.8333333333334L354.1666666666667 687.5L500 541.6666666666667L645.8333333333333 687.5z" />
    <glyph glyph-name="blog"
      unicode="&#xF121;"
      horiz-adv-x="1000" d=" M875 937.5A125 125 0 0 0 1000 812.5V187.5A125 125 0 0 0 875 62.5H125A125 125 0 0 0 0 187.5V812.5A125 125 0 0 0 125 937.5H875zM937.5 687.5H62.5V187.5A62.5 62.5 0 0 1 125 125H875A62.5 62.5 0 0 1 937.5 187.5V687.5zM781.25 312.5A31.25 31.25 0 1 0 781.25 250H531.25A31.25 31.25 0 1 0 531.25 312.5H781.25zM343.75 312.5A31.25 31.25 0 1 0 343.75 250H218.75A31.25 31.25 0 1 0 218.75 312.5H343.75zM781.25 437.5A31.25 31.25 0 1 0 781.25 375H531.25A31.25 31.25 0 0 0 531.25 437.5H781.25zM343.75 437.5A31.25 31.25 0 0 0 343.75 375H218.75A31.25 31.25 0 0 0 218.75 437.5H343.75zM781.25 562.5A31.25 31.25 0 1 0 781.25 500H531.25A31.25 31.25 0 0 0 531.25 562.5H781.25zM343.75 562.5A31.25 31.25 0 0 0 343.75 500H218.75A31.25 31.25 0 0 0 218.75 562.5H343.75zM875 875H125A62.5 62.5 0 0 1 62.5 812.5V750H937.5V812.5A62.5 62.5 0 0 1 875 875z" />
    <glyph glyph-name="chevron-down"
      unicode="&#xF112;"
      horiz-adv-x="1000" d=" M499.9 200.25C476.35 200.25 454.2 209.6 437.55 226.6L25.7499999999999 646.6A90.35000000000001 90.35000000000001 0 0 0 -0.1000000000001 710.25C-0.1000000000001 734.25 9.0999999999999 756.9 25.7499999999999 773.9A87.1 87.1 0 0 0 150.5999999999999 773.9L499.8999999999999 417.55L849.25 773.8499999999999A86.85 86.85 0 0 0 974.05 773.8499999999999C990.7499999999998 756.8499999999999 999.8999999999997 734.25 999.8999999999997 710.2C999.8999999999997 686.2 990.7499999999998 663.55 974.05 646.55L562.3 226.55C545.65 209.55 523.5 200.25 499.9 200.25z" />
    <glyph glyph-name="chevron-left-thin"
      unicode="&#xF13C;"
      horiz-adv-x="500" d=" M368.75 911.25L448.6666666666666 991.25A29.999999999999993 29.999999999999993 0 1 0 491.1666666666666 948.6666666666666L70.3333333333333 527.8333333333335L491.1666666666666 107.0000000000001A30.16666666666666 30.16666666666666 0 0 0 448.6666666666666 64.4166666666669C443.8333333333333 69.2500000000001 456.4166666666666 56.5833333333336 430.9166666666666 82.0833333333335L8.4166666666666 504.5833333333335A29.58333333333333 29.58333333333333 0 0 0 0.0833333333333 527.8333333333335A29.58333333333333 29.58333333333333 0 0 0 8.4166666666666 551.0000000000002L368.7499999999999 911.2500000000002z" />
    <glyph glyph-name="chevron-left"
      unicode="&#xF131;"
      horiz-adv-x="600" d=" M1 499.8C1 476.3 10.3 454.1 27.2 437.5L446.6 25.8C463.6 9.1999999999998 486.1000000000001 0 510.1 0S556.7 9.2 573.7 25.8A86.80000000000001 86.80000000000001 0 0 1 573.7 150.5999999999998L217.9 499.8L573.7 849.1A86.89999999999999 86.89999999999999 0 0 1 573.7 973.8A90.10000000000001 90.10000000000001 0 0 1 509.9999999999999 999.7A90.10000000000001 90.10000000000001 0 0 1 446.5 973.8L27.2 562.2A86.80000000000001 86.80000000000001 0 0 1 0.9 499.8z" />
    <glyph glyph-name="chevron-right-thin"
      unicode="&#xF13D;"
      horiz-adv-x="500" d=" M131.25 911.25A80791.99999999999 80791.99999999999 0 0 1 51.3333333333333 991.25A29.999999999999993 29.999999999999993 0 1 1 8.8333333333333 948.6666666666666L429.6666666666667 527.8333333333335L8.8333333333333 107.0000000000001A30.16666666666666 30.16666666666666 0 0 1 51.3333333333333 64.4166666666669C56.1666666666667 69.2500000000001 43.5833333333333 56.5833333333336 69.0833333333333 82.0833333333335L491.5833333333333 504.5833333333335A29.58333333333333 29.58333333333333 0 0 1 499.9166666666666 527.8333333333335A29.58333333333333 29.58333333333333 0 0 1 491.5833333333333 551.0000000000002L131.1666666666667 911.25z" />
    <glyph glyph-name="chevron-right"
      unicode="&#xF130;"
      horiz-adv-x="600" d=" M599 499.8A86.80000000000001 86.80000000000001 0 0 0 572.8 437.5L153.4 25.8A90.10000000000001 90.10000000000001 0 0 0 90 0A90.10000000000001 90.10000000000001 0 0 0 26.4 25.8A86.80000000000001 86.80000000000001 0 0 0 26.4 150.5999999999998L382.2 499.7999999999998L26.3 849.1A86.89999999999999 86.89999999999999 0 0 0 26.3 973.8A90.10000000000001 90.10000000000001 0 0 0 90 999.7C114 999.7 136.6 990.5 153.5 973.8L572.9 562.2C589.9 545.5 599.2 523.4 599.2 499.8z" />
    <glyph glyph-name="circle-arrow-right"
      unicode="&#xF10C;"
      horiz-adv-x="1000" d=" M500 1000C776.15625 1000 1000 776.15625 1000 500S776.15625 0 500 0S0 223.84375 0 500S223.84375 1000 500 1000zM500 937.5C258.375 937.5 62.5 741.625 62.5 500S258.375 62.5 500 62.5S937.5 258.375 937.5 500S741.625 937.5 500 937.5zM559.4375 687.5C566.9375 687.5 574.0000000000001 684.625 579.2812500000001 679.40625L741.59375 519.53125A27.125 27.125 0 0 0 741.59375 480.5625L579.2812500000001 320.6875A28.15625 28.15625 0 0 0 559.4375 312.59375A28.15625 28.15625 0 0 0 539.5625 320.6875A27.125 27.125 0 0 0 539.5625 359.65625L650.1250000000001 468.65625H281.25A31.25 31.25 0 0 0 281.25 531.15625H650.4375L539.5625 640.4375A27.15625 27.15625 0 0 0 539.5625 679.40625A28.15625 28.15625 0 0 0 559.4374999999999 687.5z" />
    <glyph glyph-name="cleanandspeed"
      unicode="&#xF14D;"
      horiz-adv-x="1187.5" d=" M981.75 904.375C1192.8125 751.375 1250.375 458.125 1112.875 236.75C1020.8124999999998 88.5 857 0 682.9375 0A501.43749999999994 501.43749999999994 0 0 0 453.875 55.125A34.375 34.375 0 0 0 438.875 101.5625A34.8125 34.8125 0 0 0 485.6874999999999 116.4375C686 13.875 935.5625 82.625 1053.8124999999998 272.9375C1172.3749999999998 463.8749999999999 1122.75 716.6875 940.8749999999998 848.5625A440.5 440.5 0 0 1 485.625 883.75A34.8125 34.8125 0 0 0 438.875 898.5625A34.375 34.375 0 0 0 453.8124999999999 945.0625C621.6875 1031.0625 828.8125 1015.0625 981.6874999999998 904.3125zM457.5 339A36.87499999999999 36.87499999999999 0 1 0 457.5 265.25H234.625A36.87499999999999 36.87499999999999 0 0 0 234.625 339H457.5zM925.25 724.375C939.625 710.0625 939.75 686.875 925.4375 672.4375L803.75 551.5625C811.4374999999999 535.5625 815.75 517.6875 815.75 498.75A123.25 123.25 0 0 0 692.125 375.9375A123.25 123.25 0 0 0 568.5625 498.75C568.5625 566.625 623.875 621.625 692.125 621.625C714.375 621.625 735.25 615.8125 753.25 605.5625L872.8125 724.4375A37.1875 37.1875 0 0 0 925.3125 724.4375zM692.125 547.875A49.312500000000014 49.312500000000014 0 0 1 642.6875 498.6874999999999C642.6875 471.5625 664.8124999999999 449.5625 692.125 449.5625A49.312500000000014 49.312500000000014 0 0 1 741.5625 498.6874999999999A49.312500000000014 49.312500000000014 0 0 1 692.125 547.875zM358.625 535.5625A36.87499999999999 36.87499999999999 0 1 0 358.625 461.8125H36.875A36.87499999999999 36.87499999999999 0 1 0 36.875 535.5625H358.625zM457.5 732.1875A36.87499999999999 36.87499999999999 0 1 0 457.5 658.4375H234.625A36.87499999999999 36.87499999999999 0 0 0 234.625 732.1875H457.5z" />
    <glyph glyph-name="clipboard-checklist"
      unicode="&#xF142;"
      horiz-adv-x="1000" d=" M850.7499999999999 999.5833333333334C864.2916666666665 999.5416666666666 878.9166666666665 996.375 891.1666666666665 990.625C926.1666666666666 974.0833333333334 941.4166666666666 944.375 941.4166666666666 906.2083333333334C941.4166666666666 724.25 941.4166666666666 542.2916666666667 941.2499999999998 360.3750000000001A23.75 23.75 0 0 1 947.7916666666666 343.0000000000001A195.41666666666669 195.41666666666669 0 0 0 994.2083333333331 254.125C996.2916666666666 244.9583333333335 998.0833333333331 235.7500000000001 999.9999999999998 226.5416666666668V187.5C999.2916666666666 184.3750000000001 998.4583333333331 181.2500000000001 997.9166666666664 178.125C984.1666666666666 97.9999999999999 939.9583333333331 42.25 864.0833333333331 12.7083333333334C848.2499999999998 6.5416666666667 831.0416666666665 4.1250000000001 814.4583333333331 0H197.2083333333333C196.6666666666667 0.3333333333334 196.1666666666666 0.9166666666666 195.5833333333333 1.0000000000001C150.375 7.375 117.5 47.6666666666669 119.0416666666667 95.8333333333334C119.2916666666667 103.5000000000001 119.0833333333333 111.1250000000001 119.0833333333333 118.3333333333334C102.9583333333333 119.1666666666668 88.25 119.0416666666668 73.75 120.8333333333334C17.25 127.9166666666668 -17.2916666666667 194.4583333333333 8.9166666666667 245C26 277.9166666666667 53.375 293.8749999999999 89.9583333333333 294.875C99.5416666666667 295.125 109.2083333333333 294.875 118.5416666666667 294.875V412.0833333333334C108.625 412.0833333333334 99.25 411.9583333333334 89.875 412.0833333333334C66.9583333333333 412.5 46.125 419.0416666666668 29.2916666666667 435.0000000000001C3.6666666666667 459.1250000000001 -5.7916666666667 488.7083333333334 3.5833333333333 522.75C13.4166666666667 558.3333333333334 37.4583333333333 579.9166666666667 73.875 586.0416666666667C88.4583333333333 588.5 103.5 587.8750000000001 118.375 588.6666666666667V704.3333333333334C103.4166666666667 705.0833333333333 89.0833333333333 704.9583333333333 74.9583333333333 706.625C32.7916666666667 711.6666666666667 -0.125 750.0416666666667 0 793.0833333333334C0.125 836.25 32.875 874.1666666666666 75.2083333333333 879.25C89.5833333333333 880.9583333333334 104.1666666666667 880.875 119.0833333333333 881.5833333333334V908.5C119.5833333333333 961.7916666666666 156.9583333333333 999.8333333333334 210.0833333333333 999.875C423.625 1000 637.1666666666666 1000.125 850.7499999999999 999.5833333333334zM795.4166666666666 353.4583333333334A146.95833333333334 146.95833333333334 0 0 1 648.4166666666666 207.2916666666668C648.2083333333333 125.8333333333335 713.8333333333333 58.9583333333335 794.3333333333333 58.625C874.6666666666666 58.25 940.8749999999998 124.6666666666668 941.3333333333331 206.2083333333333A146.95833333333334 146.95833333333334 0 0 1 795.4166666666666 353.4583333333333zM845.2083333333333 941.375H209.625C189.8333333333333 941.0416666666666 178 929.4166666666666 177.7083333333333 909.8333333333334C177.5833333333333 901.0416666666666 178 892.2083333333334 177.5833333333333 883.4583333333334C177.2916666666667 877.8333333333334 179.25 875.125 184.4583333333333 872.625C217.7916666666666 856.625 235.875 829.7083333333333 235.875 792.9583333333334C235.875 756.2083333333334 217.7916666666666 729.25 184.5 713.2916666666667C179.3333333333333 710.7916666666667 177.5416666666666 708.125 177.5416666666666 702.4583333333334C177.7916666666666 665.0416666666667 177.8333333333333 627.5833333333333 177.5416666666666 590.1666666666667C177.5 584.2916666666667 179.7916666666666 581.9583333333334 184.75 579.5416666666666C218 563.4166666666666 236 536.4166666666666 235.875 499.6666666666667C235.7916666666667 463.3333333333334 217.9583333333333 436.5 185.0416666666667 420.625C178.8333333333333 417.625 177.5416666666667 414.3333333333334 177.5416666666667 408.2083333333334C177.7916666666667 371.75 177.875 335.2916666666667 177.5 298.8333333333333C177.4166666666667 291.8749999999999 179.9166666666666 288.9583333333334 185.9166666666667 285.9999999999999C216.0833333333333 271.2083333333333 233.25 246.6249999999999 235.75 213.2083333333333C238.125 180.5416666666666 226.1666666666666 152.0416666666666 197.9583333333333 135.8749999999999C179.7083333333333 125.4166666666665 175 113.6249999999999 177.6666666666666 95.3749999999998C177.75 94.7499999999998 177.6666666666666 94.1249999999998 177.6666666666666 93.4583333333332C177.875 70.7916666666665 190.1666666666666 58.5833333333332 212.8333333333333 58.5833333333332H641.4583333333333C644.2083333333333 58.5833333333332 646.9583333333333 58.8749999999999 651.4583333333333 59.1249999999999C615.9583333333333 95.9166666666665 595.5833333333334 138.1666666666665 590.9166666666666 187.4583333333332C586.25 237.2916666666667 598.75 282.7499999999998 626.7916666666666 324.2083333333332A207.08333333333331 207.08333333333331 0 0 0 882.7916666666666 393.1249999999999V903.7083333333334C882.7916666666666 931.2916666666666 872.7916666666667 941.375 845.2916666666667 941.375zM528.125 331.5416666666668A27.333333333333336 27.333333333333336 0 0 0 520.625 303.7083333333335C481.7083333333334 264.5000000000001 442.7083333333333 225.2916666666668 403.3333333333334 186.4583333333335C391.0416666666667 174.3750000000001 374.5833333333334 174.3750000000001 362.2083333333334 186.4166666666668A3071.4166666666665 3071.4166666666665 0 0 0 295.2916666666667 253.3333333333335A28.66666666666666 28.66666666666666 0 0 0 295.3333333333334 294.5000000000001C306.7083333333334 305.8333333333334 324.1250000000001 306.0833333333334 336.5833333333334 294.3750000000001C349.7916666666667 281.8750000000001 362.4166666666667 268.7500000000001 375.3333333333334 255.9166666666669C377.5833333333334 253.6666666666669 380 251.5833333333335 382.7916666666667 249.0000000000001C385.7083333333334 251.7916666666669 388.3333333333333 254.1250000000003 390.7916666666667 256.5833333333334C419.7916666666667 285.5416666666668 448.625 314.6666666666668 477.875 343.3750000000001C495.5416666666667 360.7500000000001 521.8333333333334 354.3333333333334 528.125 331.5416666666668zM118.9583333333334 236.2916666666667C108.5416666666667 236.2916666666667 98.125 236.5833333333334 87.7083333333333 236.2083333333334A29.33333333333333 29.33333333333333 0 0 1 58.5416666666667 206.9166666666668A29.16666666666666 29.16666666666666 0 0 1 87.9166666666667 177.8333333333334C108.0833333333333 177.4583333333334 128.2916666666667 177.4166666666666 148.4583333333334 177.8333333333334A29.04166666666666 29.04166666666666 0 0 1 177.5833333333334 207.125C177.5 223.1250000000001 165.0416666666667 235.6666666666667 148.2083333333334 236.2083333333334C138.4583333333334 236.5416666666668 128.7083333333334 236.2916666666667 118.9166666666667 236.2916666666667zM794.9166666666666 294.8333333333334C810.9166666666666 294.8333333333334 823.4999999999999 282.3333333333334 824.0833333333333 265.5833333333335C824.375 256.2083333333334 824.125 246.8333333333335 824.125 236.2916666666669C834.6666666666666 236.2916666666669 843.7083333333333 236.5000000000001 852.8333333333333 236.2500000000001C870.1666666666666 235.7500000000001 882.8333333333333 223.0833333333335 882.7083333333333 206.7083333333335A29.16666666666666 29.16666666666666 0 0 0 853.2083333333333 177.8333333333334C833.7083333333333 177.5000000000001 814.1666666666666 177.4166666666666 794.6666666666666 177.8333333333334A28.749999999999993 28.749999999999993 0 0 0 765.7083333333333 207.1666666666668C765.2916666666665 226.6666666666668 765.2916666666665 246.2083333333335 765.7083333333333 265.7083333333335A29.08333333333333 29.08333333333333 0 0 0 794.9166666666666 294.8333333333336zM528.125 565.875A27.375 27.375 0 0 0 520.625 538.0416666666667C481.6666666666667 498.7916666666667 442.6666666666667 459.625 403.2916666666668 420.7916666666668C391.0000000000001 408.7083333333334 374.5416666666668 408.7916666666668 362.1666666666668 420.7916666666668A3082.5 3082.5 0 0 0 295.2500000000001 487.7083333333334A28.66666666666666 28.66666666666666 0 0 0 295.3750000000001 528.9166666666667C306.7500000000001 540.1666666666667 324.1666666666668 540.4166666666667 336.6250000000001 528.7083333333334C349.8333333333335 516.2083333333333 362.4583333333334 503.0833333333334 375.3750000000001 490.2500000000001C377.6250000000001 488 380.0416666666668 485.9166666666667 382.7916666666668 483.3750000000001C385.7083333333335 486.1666666666667 388.3750000000001 488.5000000000001 390.8333333333335 491.0000000000001C419.8333333333335 519.9166666666667 448.6666666666668 549.0833333333334 477.9166666666667 577.7916666666667C495.5416666666667 595.125 521.9166666666667 588.625 528.1250000000001 565.875zM87.5833333333333 529.125A29.04166666666666 29.04166666666666 0 0 1 58.5833333333333 499.75C58.7083333333333 483.75 71.2083333333333 471.2916666666667 88.0416666666667 470.75C97.7916666666667 470.4583333333334 107.5833333333333 470.75 117.3333333333334 470.7083333333334C127.4166666666667 470.7083333333334 137.5 470.5 147.5833333333334 470.75C165 471.1666666666667 177.7083333333334 483.8333333333334 177.5833333333334 500.2083333333334A29.124999999999993 29.124999999999993 0 0 1 148.0833333333334 529.1666666666667C127.9166666666667 529.5 107.75 529.5833333333334 87.5833333333333 529.1250000000001zM790.9166666666666 529.25C810.8333333333334 529.25 824.0833333333333 517.375 824.0833333333333 500C824.0833333333333 482.5833333333334 810.8333333333331 470.75 790.9583333333331 470.7083333333334C762.9583333333331 470.625 734.9583333333331 470.7083333333334 706.9583333333333 470.7083333333334C678.9999999999999 470.7083333333334 650.9999999999999 470.625 622.9999999999999 470.7083333333334C603.1249999999999 470.75 589.8749999999999 482.5833333333334 589.8333333333333 499.9583333333334C589.8333333333333 517.375 603.125 529.2083333333334 622.9999999999999 529.25H790.9166666666666zM520.7083333333333 813.4166666666667C532.75 801.1666666666667 532.0416666666666 783.75 518.4166666666666 770.0833333333334C480.7916666666666 732.25 443.0833333333333 694.5 405.25 656.9583333333333C391 642.7916666666667 374.7083333333333 642.7083333333333 360.5 656.6666666666667C339.1666666666666 677.625 318 698.7916666666667 297.0416666666667 720.125C283.7083333333333 733.625 283.3333333333333 751.5416666666666 295.5833333333333 763.4583333333333C307.5 775.0833333333333 325.0416666666667 774.5 338.25 761.5416666666666C352.8333333333333 747.2083333333333 367.0833333333333 732.5 383.75 715.7083333333333C388 720.9166666666667 390.9166666666667 725.2916666666667 394.5833333333333 728.9166666666667C421.8333333333333 756.4166666666667 449.1666666666667 783.75 476.6666666666666 811C490.8333333333333 825.0833333333333 508.4166666666666 825.875 520.7083333333333 813.4166666666666zM791 763.625C810.8333333333334 763.5833333333334 824.1250000000001 751.7083333333334 824.0833333333334 734.2916666666667C824.0833333333334 716.9166666666667 810.7916666666667 705.125 790.9166666666667 705.0416666666667H623C603.1666666666667 705.125 589.875 716.9583333333334 589.875 734.375C589.9166666666666 751.75 603.2083333333334 763.5833333333334 623.0833333333334 763.625H791zM87.9166666666667 822.0833333333334A29.08333333333333 29.08333333333333 0 0 1 58.625 792.9583333333334C58.5833333333333 777 71.0416666666667 764.2916666666667 87.7916666666667 763.75C97.875 763.375 107.9583333333333 763.6666666666667 118.0416666666667 763.6666666666667C128.1666666666667 763.6666666666667 138.25 763.4166666666667 148.3333333333333 763.75C165.125 764.2916666666667 177.5833333333334 776.875 177.625 792.875A29.08333333333333 29.08333333333333 0 0 1 148.4583333333333 822.0833333333334C128.25 822.5 108.0416666666667 822.5 87.9166666666666 822.0833333333334z" />
    <glyph glyph-name="cloud"
      unicode="&#xF122;"
      horiz-adv-x="1000" d=" M441 874.6875C303.125 868.75 187.1875 774 159.625 644.8125L158.3125 638L150.6875 634.3125C58.8125 587.875 0 496.6874999999999 0 395.25C0 245.375 127.1875 125 282.0625 125H718C872.8125 125 1000 245.375 1000 395.25L999.6875 408.3125C993 542.0625 884.1874999999999 650.1875 747.625 664.0625L745.125 664.25L744.8750000000001 665.1875C708.5 788.75 590.375 875 454.875 875L441 874.6875zM454.8125 812.5C570.3125 812.5 669.1875 734.625 689.8124999999999 627.3125A30.8125 30.8125 0 0 1 720.25 603C840.0625 601.875 937.5 508.625 937.5 395.25C937.5 280.6875 839 187.5 718 187.5H282.0625C161 187.5 62.5 280.6875 62.5 395.25C62.5 479.375 115.8125 554.75 198.3125 587.25A29.874999999999996 29.874999999999996 0 0 1 217.375 611.3125C230.6875 726 332.75 812.5 454.875 812.5z" />
    <glyph glyph-name="cog"
      unicode="&#xF139;"
      horiz-adv-x="1000" d=" M593.0833333333333 1000C626 1000 654.25 977.9166666666666 661.5833333333333 947.6666666666666L662.9166666666666 940.5833333333334L676.8333333333333 846.0833333333334L692.8333333333333 837.7916666666667L703.2916666666666 831.8333333333334L718.75 822.4166666666667L810.4583333333333 858.25A75.83333333333333 75.83333333333333 0 0 0 836.2083333333333 862.7083333333334C859.3333333333333 862.7083333333334 880.6666666666666 852.0416666666667 893.7083333333333 834.5L898.1666666666665 827.5833333333334L990.5833333333331 671.5416666666667C1006.4166666666664 643 1001.7083333333331 609.7083333333333 979.3333333333331 588.2083333333334L973.3749999999998 583.0833333333335L895.6249999999999 523.7500000000001L896.4583333333331 500.0000000000001L895.6249999999999 476.2500000000001L973.2083333333331 417.0416666666668C998.1249999999998 397.8750000000001 1006.5416666666666 364.9583333333335 994.7083333333331 336.6250000000001L991.2916666666666 329.6250000000001L897.5416666666665 171.5C885.4999999999998 150.0416666666666 862.1249999999998 136.9166666666668 836.5416666666665 136.9166666666668A72.5 72.5 0 0 0 819.0833333333331 139.0000000000001L810.7083333333331 141.6250000000001L718.6249999999998 177.7916666666668L713.5416666666665 174.5416666666668L697.8333333333331 165.1666666666666L682.1666666666665 156.6666666666666L676.8333333333331 153.9583333333333L662.8749999999998 58.7083333333332C658.7916666666664 27.5416666666665 632.6666666666664 3.6249999999999 600.583333333333 0.3749999999999L593.083333333333 -1e-13H407C374 -1e-13 345.8333333333334 22.0833333333333 338.4166666666667 52.4166666666665L337.0833333333333 59.5833333333333L323.25 153.9166666666665L317.8333333333333 156.6249999999999L302 165.1249999999999L286.4166666666667 174.4166666666665L281.3333333333334 177.6666666666665L189.5833333333334 141.8333333333333A76.25 76.25 0 0 0 164 137.4166666666665A71.24999999999999 71.24999999999999 0 0 0 106.5 165.4583333333333L102 172.3749999999999L9.4166666666667 328.4583333333332C-6.4583333333333 356.9166666666665 -1.7083333333333 390.1666666666665 20.6666666666667 411.7083333333332L26.625 416.8333333333332L104.5416666666667 476.2499999999998L103.5416666666667 499.9999999999998L104.5000000000001 523.7499999999998L26.8750000000001 582.9166666666665C1.4583333333334 602.4999999999998 -6.8749999999999 636.6666666666665 6.0000000000001 664.9166666666665L9.6666666666667 671.8333333333331L102.5833333333334 828.5833333333331C114.5416666666667 849.9999999999998 137.8750000000001 863.1666666666665 163.5416666666667 863.1666666666665C169.3750000000001 863.1666666666665 175.2083333333334 862.4583333333331 180.8750000000001 861.0833333333331L189.2083333333334 858.4166666666665L281.5416666666668 822.2916666666665L286.6250000000001 825.4999999999998L302.2500000000001 834.8749999999998L317.9166666666668 843.3333333333331L323.2500000000001 846.0416666666665L337.2083333333335 941.2916666666666C341.2083333333333 972.5 367.2916666666667 996.375 399.4583333333333 999.625L406.9583333333333 1000H593.0833333333333zM593.0833333333333 937.5H407C403.4583333333333 937.5 400.9583333333334 936.125 399.7916666666667 934.25L399.0416666666667 932.25L380.4166666666667 805L346.2916666666667 787.625L333.125 780.5416666666667L315.0416666666667 769.5L288.2916666666667 752.5416666666667L167.25 799.9166666666667A10.33333333333333 10.33333333333333 0 0 1 163.5 800.6666666666667A7.916666666666666 7.916666666666666 0 0 1 158.0833333333333 798.9166666666667L156.3333333333333 796.7083333333334L63.125 639.4583333333335A5.083333333333333 5.083333333333333 0 0 1 63.0416666666667 634.7083333333334L64.7083333333333 632.625L168.3333333333333 553.6666666666667L166.0416666666667 500L166.9166666666667 479.5833333333334L168.6666666666667 446.5833333333334L64.7916666666667 367.3333333333334C62.8333333333333 365.8333333333334 62.0833333333333 364.1250000000001 62.4583333333333 362.2500000000001L63.1666666666667 360.3333333333335L156.5833333333333 202.8333333333335C157.375 201.4583333333334 160.0833333333333 199.9166666666668 164 199.9166666666668L166.8333333333333 200.0000000000001L288.0833333333333 247.4166666666669L319.625 227.3750000000001L332.6666666666667 219.5833333333334L346 212.4166666666666L380.3749999999999 195.125L399.0416666666666 67.6250000000001C399.2916666666666 65.7916666666667 401.125 63.8333333333334 403.9166666666667 62.9583333333335L407 62.5000000000002H593.0833333333333C596.5416666666665 62.5000000000002 599.0833333333333 63.8750000000002 600.2916666666665 65.7500000000002L601.0416666666666 67.7500000000001L619.6666666666665 195L653.6666666666666 212.2916666666666L666.9999999999999 219.4999999999999L680.0416666666665 227.2916666666667L711.9166666666665 247.5416666666667L833.0833333333333 199.9999999999999C834.1249999999999 199.5833333333332 835.1666666666666 199.3749999999999 836.5416666666665 199.3749999999999A8 8 0 0 1 841.9583333333331 201.1666666666665L843.7499999999998 203.3749999999999L936.6666666666666 359.9583333333332A5.625 5.625 0 0 1 936.6666666666666 365.7916666666665L935.2916666666664 367.3333333333333L832.0416666666664 446.1666666666665L833.9999999999998 497.8333333333333L832.0416666666664 553.875L935.2916666666664 632.625C937.208333333333 634.0833333333333 937.9166666666664 635.8333333333333 937.5416666666664 637.7499999999999L936.833333333333 639.7083333333333L843.708333333333 796.9166666666665C842.7499999999998 798.5833333333333 839.9583333333331 800.2083333333333 836.2083333333331 800.2083333333333L833.2499999999997 800.0416666666666L712.2916666666664 752.75L674.6249999999998 776.2083333333333L663.9999999999998 782.3333333333333L619.6249999999998 805.3749999999999L600.958333333333 932.5416666666666C600.708333333333 934.2083333333331 598.8749999999998 936.1666666666666 596.1249999999998 937.0416666666666L593.083333333333 937.4999999999998zM500 687.5A187.49999999999997 187.49999999999997 0 1 0 500 312.5A187.49999999999997 187.49999999999997 0 0 0 500 687.5zM500 625A125 125 0 1 1 500 375A125 125 0 0 1 500 625z" />
    <glyph glyph-name="computer"
      unicode="&#xF123;"
      horiz-adv-x="1000" d=" M812.5 812.5A62.5 62.5 0 0 0 875 750V312.5H937.5V187.5A62.5 62.5 0 0 0 875 125H125A62.5 62.5 0 0 0 62.5 187.5V312.5H125V750A62.5 62.5 0 0 0 187.5 812.5H812.5zM875 250H125V187.5H875V250zM812.5 750H187.5V312.5H812.5V750z" />
    <glyph glyph-name="cookie"
      unicode="&#xF13A;"
      horiz-adv-x="1000" d=" M400.1666666666667 1000A18.75 18.75 0 0 0 416.625 990.1666666666666A94.54166666666666 94.54166666666666 0 0 1 513.4583333333333 941.1666666666666L520.2916666666665 942.4166666666666A18.70833333333333 18.70833333333333 0 0 0 538.2499999999999 936.5A19.166666666666664 19.166666666666664 0 0 0 541.9166666666665 917.75A113.54166666666666 113.54166666666666 0 0 1 648.6249999999998 767.2083333333334C658.3333333333331 767.2083333333334 667.9999999999998 768.5 677.5416666666664 771.0833333333334L687.0416666666665 774.125A18.58333333333333 18.58333333333333 0 0 0 704.5416666666666 771.5C709.6666666666666 767.6666666666667 712.4583333333333 761.5833333333334 712.0833333333333 755.25L711.7083333333333 748.3333333333334A113.41666666666664 113.41666666666664 0 0 1 847.3333333333333 636.875L858.3749999999999 639.7916666666667A18.75 18.75 0 0 0 878.3749999999999 633.6666666666667A18.999999999999996 18.999999999999996 0 0 0 880.3749999999999 612.5833333333334A87.66666666666667 87.66666666666667 0 0 1 869.7499999999999 570.75C869.7499999999999 522.6666666666667 908.6249999999998 483.5416666666667 956.3749999999998 483.5416666666667C960.7916666666666 483.5416666666667 965.3333333333331 483.9583333333334 969.9166666666666 484.7083333333334L976.875 486.1250000000001A18.874999999999996 18.874999999999996 0 0 0 999.9166666666666 466.3333333333335A504.7916666666666 504.7916666666666 0 0 0 854.9166666666666 150.7916666666668A501.4583333333333 501.4583333333333 0 0 0 564.625 6.0416666666667L538.875 3.375L522.625 2.2916666666667A475.4166666666666 475.4166666666666 0 0 0 479.625 2.2916666666667L458.9166666666667 3.6666666666667A537.2499999999999 537.2499999999999 0 0 0 438.375 5.7500000000001L425.7083333333333 7.4583333333335A419 419 0 0 0 404.9166666666667 11.1250000000002L385.0416666666667 15.541666666667L375.6666666666667 17.8750000000003L353.375 24.1250000000002A506.1249999999999 506.1249999999999 0 0 0 100.625 203.291666666667A501.83333333333326 501.83333333333326 0 0 0 0.5416666666667 483.6250000000002L0 506.2500000000001C0 512.5416666666667 0.1666666666667 519.2083333333334 0.5 526.375L1.5416666666667 544.5416666666667L2.9166666666667 559.75L5 576.4166666666667L7.6666666666667 593.1666666666667L11.75 614.3333333333334L15.4166666666667 629.75L19.8333333333333 646.4166666666667L20.5 648.0416666666666A509.87499999999994 509.87499999999994 0 0 0 159.25 874.4166666666666A496.4999999999999 496.4999999999999 0 0 0 396.25 999.5833333333334A18.625 18.625 0 0 0 400.1666666666667 1000zM381.7083333333333 931.5L371.2083333333333 928.4583333333334C319.9583333333333 912.4166666666666 271.9166666666667 886.7916666666667 229.5416666666666 852.8333333333334L217.0416666666666 842.4166666666667L202.2083333333333 829A447.4583333333333 447.4583333333333 0 0 1 85.2916666666666 645.7916666666666L80.6249999999999 630.875L79.1249999999999 626.5L76.0416666666666 614.4166666666666L72.8333333333333 601L69.2499999999999 582.4166666666667L67.6249999999999 572.8333333333333L65.5416666666666 557.4583333333333L64.6249999999999 548.6666666666667L63.8333333333333 539.25L62.9166666666666 523.7083333333333L62.6249999999999 514.5833333333334L62.5 506.625L63.0416666666666 485.25C67.1249999999999 396.25 97.2083333333333 312.25 150.6666666666666 240.7083333333334C203 170.8333333333335 276.125 117.125 354.625 89.375L368.5416666666666 84.75L371.3333333333333 83.9166666666667L383.7083333333333 80.4166666666667L399.8333333333333 76.25L417.2083333333333 72.4166666666667C421.5 71.5833333333334 425.5416666666667 70.7916666666666 429.4583333333333 70.1666666666667L435.2083333333333 69.2500000000001L450.2916666666667 67.2916666666669L463.0833333333333 66.0416666666667L482.2500000000001 64.7916666666667C486.7083333333334 64.5416666666667 490.8750000000001 64.375 494.8750000000001 64.375L500.7500000000001 64.2916666666667L519.8333333333334 64.7083333333334L537.5416666666667 65.9166666666667L557.6666666666667 68.1666666666667A438.99999999999994 438.99999999999994 0 0 1 810.5416666666667 194.7916666666668A443.5416666666666 443.5416666666666 0 0 1 925.6666666666666 398.5L929.2499999999998 413.8333333333334L931 423.2916666666668L926.3333333333334 424.125A149.74999999999997 149.74999999999997 0 0 0 808.3333333333334 552.4583333333334L807.5833333333334 560.5416666666667L807.25 570.75L807.3333333333334 573L803.4583333333334 573.375A175.91666666666666 175.91666666666666 0 0 0 659.7083333333334 688.1666666666667L656.9166666666667 696.5833333333334L654.625 704.9166666666667L648.6666666666667 704.7083333333334C558.25 704.7083333333334 483.7916666666667 773.5416666666667 474.2083333333333 861.6666666666667L473.4583333333333 870.25L473.125 880.0833333333334L465.8333333333333 881.375A156.8333333333333 156.8333333333333 0 0 0 395.9166666666666 917.125L388.6666666666667 923.9583333333334L381.7083333333333 931.5zM718.75 437.5A93.74999999999999 93.74999999999999 0 1 0 718.75 250A93.74999999999999 93.74999999999999 0 0 0 718.75 437.5zM375 500A125 125 0 1 0 375 250A125 125 0 0 0 375 500zM718.75 375A31.25 31.25 0 1 1 718.75 312.5A31.25 31.25 0 0 1 718.75 375zM375 437.5A62.5 62.5 0 1 1 375 312.5A62.5 62.5 0 0 1 375 437.5zM343.75 812.5A93.74999999999999 93.74999999999999 0 1 0 343.75 625A93.74999999999999 93.74999999999999 0 0 0 343.75 812.5zM343.75 750A31.25 31.25 0 1 1 343.75 687.5A31.25 31.25 0 0 1 343.75 750z" />
    <glyph glyph-name="copy"
      unicode="&#xF14C;"
      horiz-adv-x="999.8749999999999" d=" M562.375 187.5416666666668H375V124.9583333333335A62.37500000000001 62.37500000000001 0 0 1 430.125 62.9166666666667L437.4166666666667 62.5L874.9166666666666 62.5416666666667A62.5 62.5 0 0 1 936.9999999999998 117.7500000000001L937.4166666666666 125.0416666666668V536.5833333333335L723.9583333333333 750H687.375L624.875 812.5H749.875L999.8749999999998 562.5V125.0416666666666A125 125 0 0 0 884.2083333333333 0.4166666666666L874.875 0.0416666666666L437.375 -1e-13A124.91666666666669 124.91666666666669 0 0 0 312.7916666666667 115.7083333333333L312.5 125.0416666666666V187.5416666666666L124.875 187.4999999999999A124.91666666666669 124.91666666666669 0 0 0 0.2916666666667 303.2083333333333L0 312.5416666666668L0.4166666666667 900.0416666666667C0.4166666666667 951.9166666666666 37.625 994.9166666666666 85.1666666666667 999.5833333333334L93.6666666666667 1000H437.4166666666667L687.4166666666666 750L687.375 437.5833333333334L812.375 437.5416666666667V375L687.375 375.0416666666667V312.5C687.375 289.7083333333334 681.2916666666666 268.3333333333335 670.6249999999999 249.9166666666668L812.375 250V187.5H562.375zM411.4583333333333 937.5416666666669H93.6666666666667C79.3333333333333 937.5416666666669 65.875 924.5833333333334 63.3333333333333 906.2916666666669L62.9166666666667 899.9583333333334L62.5 312.4583333333335A62.37500000000001 62.37500000000001 0 0 1 117.5833333333333 250.3750000000003L124.875 249.9583333333335L562.375 250.0416666666668A62.5 62.5 0 0 1 624.4583333333333 305.2500000000001L624.875 312.5416666666668V724.0833333333334L411.4583333333333 937.5zM499.9166666666667 437.5416666666668V375H187.4166666666667V437.5H499.9166666666667zM499.9166666666667 625.0416666666667V562.5416666666667H187.4166666666667V625H499.9166666666667z" />
    <glyph glyph-name="credit-card"
      unicode="&#xF124;"
      horiz-adv-x="1000" d=" M875 875A125 125 0 0 0 1000 750V187.5A125 125 0 0 0 875 62.5H125A125 125 0 0 0 0 187.5V750A125 125 0 0 0 125 875H875zM937.5 562.5H62.5V187.5A62.5 62.5 0 0 1 125 125H875A62.5 62.5 0 0 1 937.5 187.5V562.5zM812.5 437.5A62.5 62.5 0 0 0 875 375V250A62.5 62.5 0 0 0 812.5 187.5H687.5A62.5 62.5 0 0 0 625 250V375A62.5 62.5 0 0 0 687.5 437.5H812.5zM406.25 312.5A31.25 31.25 0 1 0 406.25 250H156.25A31.25 31.25 0 1 0 156.25 312.5H406.25zM812.5 375H687.5V250H812.5V375zM406.25 437.5A31.25 31.25 0 0 0 406.25 375H156.25A31.25 31.25 0 0 0 156.25 437.5H406.25zM937.5 687.5H62.5V625H937.5V687.5zM875 812.5H125A62.5 62.5 0 0 1 62.5 750H937.5A62.5 62.5 0 0 1 875 812.5z" />
    <glyph glyph-name="cross"
      unicode="&#xF10D;"
      horiz-adv-x="1000" d=" M48.4 984.95A50 50 0 0 0 119.1 984.95L500 604.0999999999999L880.9 984.95A50 50 0 0 0 951.6 984.95L984.95 951.6A50 50 0 0 0 984.95 880.9L604 500L984.9 119.05A50 50 0 0 0 989.05 53.05L984.9 48.3499999999999L951.55 14.9999999999999A50 50 0 0 0 880.8499999999999 14.9999999999999L499.9499999999999 395.9999999999999L119.0999999999999 14.9999999999999A50 50 0 0 0 48.3999999999999 14.9999999999999L15.0499999999999 48.3499999999999A50 50 0 0 0 15.0499999999999 119.05L395.9000000000001 500L15.05 880.9A50 50 0 0 0 10.9 946.9L15.05 951.6z" />
    <glyph glyph-name="dashboard"
      unicode="&#xF125;"
      horiz-adv-x="1000" d=" M312.5 562.5A125 125 0 0 0 437.5 437.5V125A125 125 0 0 0 312.5 0H125A125 125 0 0 0 0 125V437.5A125 125 0 0 0 125 562.5zM812.5 375A125 125 0 0 0 937.5 250V125A125 125 0 0 0 812.5 0H625A125 125 0 0 0 500 125V250A125 125 0 0 0 625 375zM312.5 500H125A62.5 62.5 0 0 1 62.5 437.5V125A62.5 62.5 0 0 1 125 62.5H312.5A62.5 62.5 0 0 1 375 125V437.5A62.5 62.5 0 0 1 312.5 500zM812.5 312.5H625A62.5 62.5 0 0 1 562.5 250V125A62.5 62.5 0 0 1 625 62.5H812.5A62.5 62.5 0 0 1 875 125V250A62.5 62.5 0 0 1 812.5 312.5zM812.5 1000A125 125 0 0 0 937.5 875V562.5A125 125 0 0 0 812.5 437.5H625A125 125 0 0 0 500 562.5V875A125 125 0 0 0 625 1000zM812.5 937.5H625A62.5 62.5 0 0 1 562.5 875V562.5A62.5 62.5 0 0 1 625 500H812.5A62.5 62.5 0 0 1 875 562.5V875A62.5 62.5 0 0 1 812.5 937.5zM312.5 1000A125 125 0 0 0 437.5 875V750A125 125 0 0 0 312.5 625H125A125 125 0 0 0 0 750V875A125 125 0 0 0 125 1000zM312.5 937.5H125A62.5 62.5 0 0 1 62.5 875V750A62.5 62.5 0 0 1 125 687.5H312.5A62.5 62.5 0 0 1 375 750V875A62.5 62.5 0 0 1 312.5 937.5z" />
    <glyph glyph-name="download-down-arrow"
      unicode="&#xF10E;"
      horiz-adv-x="833.3333333333333" d=" M416.4166666666667 1000A83.33333333333331 83.33333333333331 0 0 0 499.7499999999999 916.6666666666666V265.9166666666667L707.9166666666667 477.9166666666666A72.41666666666666 72.41666666666666 0 0 0 811.9166666666666 477.9166666666666C825.8333333333333 463.75 833.5 445 833.5 425S825.8333333333333 386.1666666666667 811.9166666666666 372L468.9166666666667 22.5833333333335A72.33333333333331 72.33333333333331 0 0 0 364.9166666666667 22.5833333333335L21.9166666666667 372.0000000000001A75.08333333333333 75.08333333333333 0 0 0 0.4166666666667 425C0.4166666666667 445 8.0833333333333 463.8333333333334 21.9166666666667 477.9166666666666A72.33333333333331 72.33333333333331 0 0 0 125.9166666666667 477.9166666666666L333.0833333333333 266.9166666666667V916.6666666666666A83.33333333333331 83.33333333333331 0 0 0 416.4166666666667 1000z" />
    <glyph glyph-name="download-tray"
      unicode="&#xF10F;"
      horiz-adv-x="1000" d=" M0 625A62.5 62.5 0 0 0 125 625V437.5625H875V625A62.5 62.5 0 1 0 1000 625V375A62.5 62.5 0 0 0 937.5 312.5L936.4375 312.5625H63.5625L62.5 312.5A62.5 62.5 0 0 0 0 375V625z" />
    <glyph glyph-name="download"
      unicode="&#xF110;"
      horiz-adv-x="1000" d=" M937.5 375.125A62.5 62.5 0 0 0 1000 312.625V62.625A62.5 62.5 0 0 0 937.5 0.125H62.5A62.5 62.5 0 0 0 0 62.625V312.625A62.5 62.5 0 1 0 125 312.625V125.125H875V312.625A62.5 62.5 0 0 0 937.5 375.125zM499.8125 1000A62.5 62.5 0 0 0 562.3125 937.5V449.4374999999999L718.4375000000001 608.4375A54.3125 54.3125 0 0 0 796.4375 608.4375C806.875 597.8125 812.625 583.75 812.625 568.75S806.875 539.625 796.4375 529L539.1875 266.9375A54.25 54.25 0 0 0 461.1875 266.9375L203.9375 529A56.3125 56.3125 0 0 0 187.8125 568.75C187.8125 583.75 193.5625 597.875 203.9375 608.4375A54.25 54.25 0 0 0 281.9375 608.4375L437.3125 450.1875V937.5A62.5 62.5 0 0 0 499.8125 1000z" />
    <glyph glyph-name="envelope"
      unicode="&#xF14A;"
      horiz-adv-x="1333.3333333333335" d=" M1216.111111111111 1000H117.2222222222222C52.6111111111111 1000 0 948.2222222222222 0 884.6111111111111V115.3888888888889C0 52 52.4444444444444 0 117.2222222222222 0H1216.111111111111C1280.5555555555557 0 1333.3333333333335 51.611111111111 1333.3333333333335 115.3888888888889V884.6111111111111C1333.3333333333335 948 1280.888888888889 1000 1216.111111111111 1000zM1200 923.0555555555557L669.1666666666667 400.4444444444445L133.7222222222223 923.0555555555557H1200zM78.0555555555556 131.3333333333334V869.0555555555555L454.4444444444445 501.7777777777778L78.1666666666667 131.3333333333334zM133.3333333333334 76.8888888888889L509.7777777777778 447.6111111111111L641.7222222222223 318.8333333333334A39.44444444444445 39.44444444444445 0 0 1 696.8333333333333 318.9444444444445L825.4444444444443 445.6111111111111L1199.888888888889 76.9444444444445H133.3888888888889zM1255.1666666666667 131.3333333333334L880.7777777777777 500L1255.2222222222224 868.6666666666666V131.3333333333334z" />
    <glyph glyph-name="exit"
      unicode="&#xF126;"
      horiz-adv-x="1000" d=" M406.25 937.5A31.25 31.25 0 0 0 406.25 875H187.5V125H406.25A31.25 31.25 0 1 0 406.25 62.5H156.25L150.625 63A31.25 31.25 0 0 0 125 93.75V906.25A31.25 31.25 0 0 0 156.25 937.5zM684.5 656.25C692 656.25 699.125 653.375 704.375 648.125L835.4999999999999 519.5A27.125 27.125 0 0 0 835.4999999999999 480.5L704.375 351.8125000000001A28.187500000000007 28.187500000000007 0 0 0 684.5 343.7500000000001A28.187500000000007 28.187500000000007 0 0 0 664.625 351.8750000000001A27.125 27.125 0 0 0 664.625 390.8125000000001L743.8125 468.5000000000001H375.1875A31.25 31.25 0 0 0 375.1875 531.0625000000001H744.1875L664.625 609.1875000000001A27.125 27.125 0 0 0 664.625 648.1875A28.125 28.125 0 0 0 684.5 656.2500000000001z" />
    <glyph glyph-name="fingerprint"
      unicode="&#xF127;"
      horiz-adv-x="1000" d=" M528.3125 754.5625C740.9375 740.3125 907.6249999999998 551.0625 907.6249999999998 323.6875V316.5625C907.6249999999998 231.9374999999999 840.4375 163.0625 757.8749999999999 163.0625C675.3749999999999 163.0625 608.2499999999999 231.9375 608.2499999999999 316.5625V336.9375C608.2499999999999 367.6875 596.4999999999998 396.3125 575.1249999999999 417.5625000000001A104.12500000000001 104.12500000000001 0 0 1 501.3124999999998 448.3750000000001H500.6874999999998A96.68749999999999 96.68749999999999 0 0 1 428.1874999999999 414.625C403.8124999999999 387.4375 391.6874999999999 347.8125000000001 395.8124999999999 308.8125C409.5625 178.9375 558.9375 62.5 600 62.5A31.25 31.25 0 0 0 600 0.0625C524.875 0.0625 350.625 143.0625 333.75 302.3125C327.75 358.5625 345.625 416.1874999999999 381.625 456.375A159.375 159.375 0 0 0 500.375 510.8749999999999H501.3125000000001A166.25 166.25 0 0 0 619.1875 461.8749999999999C652.5 428.8749999999999 670.75 384.5 670.75 337V316.6249999999999C670.75 266.3749999999999 709.8749999999999 225.5624999999999 757.9374999999999 225.5624999999999C806.0624999999999 225.5624999999999 845.1249999999999 266.3749999999999 845.1249999999999 316.6249999999999V323.75C845.1249999999999 518.3125 704.1875 680.1875 524.1874999999999 692.1875A334.625 334.625 0 0 1 270.9375 601.25A362.5 362.5 0 0 1 157.5 336.875C157.5 254.1875 185.5 173.625 236.3125 110.0625000000001A31.25 31.25 0 1 0 187.4375 71.0625A427.12499999999994 427.12499999999994 0 0 0 94.9375 336.875C94.9375 454.625 143.5625 567.625 228.1875 646.75A396.4375 396.4375 0 0 0 528.3125 754.5zM501.25 633.125C659.9999999999999 633.125 789.125 500.25 789.125 336.875A31.25 31.25 0 0 0 726.625 336.875C726.625 465.75 625.5 570.625 501.25 570.625C376.9375 570.625 275.875 465.7500000000001 275.875 336.875C275.875 204.9375 423.25 54.6875 424.75 53.1875A31.25 31.25 0 1 0 380.375 9.1875C373.5 16.0625 213.375 179.5 213.375 336.875C213.375 500.25 342.5 633.125 501.25 633.125zM498.7499999999999 388.5A31.25 31.25 0 0 0 530 357.25C530 233.625 634 123.5625 715.9375 123.5625A31.25 31.25 0 0 0 715.9375 61.0625C604.0625 61.0625 467.5625 197.75 467.5625 357.3125A31.25 31.25 0 0 0 498.8125 388.5625zM501.25 877.6249999999999C673.5 877.6249999999999 835.0625 790.1875 933.4374999999998 643.6875A31.25 31.25 0 1 0 881.5624999999999 608.875C794.75 738.125 652.625 815.25 501.25 815.25S207.6875 738.125 120.9375 609A31.25 31.25 0 1 0 69.0625 643.8125C167.375 790.25 329 877.6875 501.25 877.6875zM501.25 1000C639.125 1000 772.125 948.0625 875.625 853.6875A31.25 31.25 0 0 0 833.5625 807.5A492.8125 492.8125 0 0 1 501.25 937.5A492.62499999999994 492.62499999999994 0 0 1 168.9375 807.5A31.312499999999996 31.312499999999996 0 0 0 126.8125 853.6875A555.25 555.25 0 0 0 501.25 1000z" />
    <glyph glyph-name="identity-protection"
      unicode="&#xF11F;"
      horiz-adv-x="1000" d=" M562.5 916.6666666666666A62.5 62.5 0 0 0 625 854.1666666666667V791.6666666666667H875A125 125 0 0 0 1000 666.6666666666667V166.6666666666668A125 125 0 0 0 875 41.6666666666667H125A125 125 0 0 0 0 166.6666666666668V666.6666666666667A125 125 0 0 0 125 791.6666666666667H375V854.1666666666667A62.5 62.5 0 0 0 437.5 916.6666666666666H562.5zM875 729.1666666666667H125A62.5 62.5 0 0 1 62.5 666.6666666666667V166.6666666666668A62.5 62.5 0 0 1 125 104.1666666666667H127.2083333333333A218.74999999999997 218.74999999999997 0 0 0 242.1666666666667 329.2500000000001A156.24999999999997 156.24999999999997 0 1 0 445.3333333333333 329.2500000000001A218.66666666666669 218.66666666666669 0 0 0 560.2916666666666 104.1250000000001L875 104.1666666666667A62.5 62.5 0 0 1 937.5 166.6666666666668V666.6666666666667A62.5 62.5 0 0 1 875 729.1666666666667zM343.75 291.6666666666668A156.24999999999997 156.24999999999997 0 0 1 190.625 104.1666666666667H496.875A156.24999999999997 156.24999999999997 0 0 1 343.75 291.6666666666668zM791.6666666666666 354.1666666666668A20.83333333333333 20.83333333333333 0 0 0 812.5 333.3333333333334V312.5A20.83333333333333 20.83333333333333 0 0 0 791.6666666666666 291.6666666666668H645.8333333333333A20.83333333333333 20.83333333333333 0 0 0 625 312.5V333.3333333333334A20.83333333333333 20.83333333333333 0 0 0 645.8333333333333 354.1666666666668H791.6666666666666zM343.75 541.6666666666667A93.74999999999999 93.74999999999999 0 1 1 343.75 354.1666666666668A93.74999999999999 93.74999999999999 0 0 1 343.75 541.6666666666667zM791.6666666666666 479.1666666666667A20.83333333333333 20.83333333333333 0 0 0 812.5 458.3333333333334V437.5A20.83333333333333 20.83333333333333 0 0 0 791.6666666666666 416.6666666666668H645.8333333333333A20.83333333333333 20.83333333333333 0 0 0 625 437.5V458.3333333333334A20.83333333333333 20.83333333333333 0 0 0 645.8333333333333 479.1666666666667H791.6666666666666zM562.5 854.1666666666667H437.5V791.6666666666667H562.5V854.1666666666667z" />
    <glyph glyph-name="info"
      unicode="&#xF116;"
      horiz-adv-x="941.1764705882352" d=" M470.5882352941176 988.9411764705882C730.0588235294117 988.9411764705882 941.1764705882352 777.8823529411765 941.1764705882352 518.3529411764705C941.1764705882352 258.9411764705882 730.0588235294117 47.7647058823528 470.5882352941176 47.7647058823528S0 258.9411764705882 0 518.3529411764705C0 777.8823529411764 211.1176470588235 988.941176470588 470.5882352941176 988.941176470588zM470.5882352941176 903.4117647058824A385.4705882352941 385.4705882352941 0 0 1 85.5882352941177 518.3529411764705A385.4705882352941 385.4705882352941 0 0 1 470.5882352941176 133.3529411764706A385.4705882352941 385.4705882352941 0 0 1 855.5882352941176 518.3529411764705A385.4705882352941 385.4705882352941 0 0 1 470.5882352941176 903.4117647058824zM445.4117647058823 612.5294117647059C474.5294117647059 612.5294117647059 496.9999999999999 605.4705882352941 512.8235294117646 591.4117647058824C528.5294117647059 577.3529411764706 536.470588235294 559.0588235294118 536.470588235294 536.5882352941177C536.470588235294 531.9411764705883 535.8823529411765 523.7647058823529 534.8235294117646 512C533.7647058823528 500.2352941176472 531.705882352941 489.5882352941177 528.7647058823528 479.7058823529412L498.5882352941176 372.9411764705884A302.2352941176471 302.2352941176471 0 0 1 491.9411764705882 343.6470588235296C490 332.7058823529414 488.9999999999999 324.294117647059 488.9999999999999 318.7058823529414C488.9999999999999 304.5294117647061 492.1764705882352 294.8235294117649 498.5882352941176 289.7058823529414C504.8823529411764 284.5294117647061 515.8823529411765 281.9411764705884 531.5294117647059 281.9411764705884C538.8823529411765 281.9411764705884 547.1176470588235 283.294117647059 556.470588235294 285.823529411765A141.76470588235293 141.76470588235293 0 0 1 576.5882352941176 292.5882352941179L568.5294117647059 259.6470588235296C544.2941176470587 250.1176470588238 524.9999999999999 242.823529411765 510.5882352941176 237.8235294117649A152.94117647058823 152.94117647058823 0 0 0 460.2941176470588 230.294117647059C430.9411764705882 230.294117647059 408.1176470588234 237.4705882352943 391.8823529411764 251.7647058823532A69.29411764705883 69.29411764705883 0 0 0 367.5294117647058 306.2352941176473C367.5294117647058 314.7647058823532 368.1176470588235 323.5294117647061 369.2941176470588 332.4705882352944C370.5882352941176 341.4117647058826 372.5294117647058 351.4117647058826 375.1764705882353 362.7058823529414L405.5294117647058 469.7647058823532C408.1764705882353 480.0588235294119 410.4705882352941 489.8235294117648 412.3529411764705 498.9411764705884C414.1176470588235 508.0588235294119 415.0588235294117 516.4705882352944 415.0588235294117 524.1176470588238C415.0588235294117 537.7647058823532 412.1764705882352 547.3529411764707 406.5882352941176 552.7058823529414C400.8823529411764 558.0588235294119 390.1764705882353 560.7058823529414 374.235294117647 560.7058823529414C366.4117647058823 560.7058823529414 358.3529411764705 559.5294117647061 350.1176470588235 557.1764705882356A342.3529411764706 342.3529411764706 0 0 1 329 550.1176470588238L337.0588235294117 583.058823529412C356.8823529411764 591.1764705882356 375.8823529411764 598.1176470588239 393.9999999999999 603.8823529411768C412.1176470588234 609.6470588235297 429.2941176470588 612.5294117647062 445.4117647058822 612.5294117647062zM512.3529411764706 808C532.1176470588235 808 549.1176470588235 801.4117647058824 563.1176470588235 788.1764705882354C577.2352941176471 775 584.2941176470588 759.0588235294117 584.2941176470588 740.5294117647059C584.2941176470588 721.9411764705883 577.2352941176471 706.0588235294117 563.1176470588235 693A71.99999999999999 71.99999999999999 0 0 0 512.3529411764706 673.4117647058824C492.5882352941177 673.4117647058824 475.529411764706 679.9411764705883 461.3529411764706 693A62.58823529411765 62.58823529411765 0 0 0 440.1176470588236 740.5294117647059C440.1176470588236 759.0588235294118 447.2941176470589 775 461.2941176470589 788.1764705882354C475.529411764706 801.4117647058824 492.5882352941177 808 512.3529411764706 808z" />
    <glyph glyph-name="internet-security"
      unicode="&#xF11B;"
      horiz-adv-x="1000" d=" M512.84375 1000L996.28125 792.6875L995.59375 770.5L994.9062500000002 758.15625L993.8750000000002 744.15625L992.3750000000002 728.53125L990.4687500000002 711.4375L988.0625000000002 692.90625L985.1562500000002 672.96875A1132.9687500000002 1132.9687500000002 0 0 0 930 456.6874999999999C857.03125 257.3749999999999 733.3437500000001 104.34375 547.09375 25.4374999999999L534.28125 20.1562499999999L513 11.9374999999998L504.625 15.0624999999999C305.78125 89.4374999999999 174.3125 245.2812499999999 97.53125 451.71875A1129.96875 1129.96875 0 0 0 40.8125 671.21875L37.8125 691.46875L35.375 710.34375A1042.78125 1042.78125 0 0 0 34.3125 719.21875L32.59375 735.875C32.09375 741.1875 31.65625 746.1875 31.28125 750.9375L30.40625 764.375L29.875 776.75L29.40625 792.6875L512.8125 1000zM512.84375 949L77.4375 762.3125L78.0625 753.25L79.53125 737.09375L81.5 718.9375L82.71875 709.15625L85.59375 688.28125L87.09375 678.4375C97.90625 608.96875 115.53125 537.65625 141.40625 468.0625C212.21875 277.75 330.90625 134.625 508.53125 63.7812500000001L512.78125 62.1562500000001L517.09375 63.7812500000001C688.03125 132.0625000000001 804.2812500000001 267.0937500000001 875.84375 446.2812500000003L880.9687500000001 459.4687500000002L885.9687500000001 472.8125000000002A1086.5625 1086.5625 0 0 1 938.7812500000002 680.1250000000002L941.8750000000002 701.1562500000002L944.3125000000002 720.5312500000002C944.6875000000002 723.5937500000002 945.0000000000002 726.5937500000002 945.3125000000002 729.5312500000002L946.9687500000002 746.1875000000002L948.1562500000002 762.3125000000002L512.8125 949zM515.71875 452.3125A39.4375 39.4375 0 1 0 515.71875 373.40625A39.4375 39.4375 0 0 0 515.71875 452.3125zM516.65625 572.9375L524.34375 572.6875C562.875 570.5 603.8749999999999 551.84375 633.03125 522.96875A23.906249999999996 23.906249999999996 0 1 0 599.375 489C578.9375 509.25 549.6875 522.875 523.21875 524.84375L516.6562499999999 525.09375H514.9374999999999L508.3749999999999 524.84375C481.8749999999999 522.875 452.6562499999999 509.21875 432.21875 489A23.84375 23.84375 0 0 0 398.4062499999999 489.1562499999999A23.906249999999996 23.906249999999996 0 0 0 398.5625 522.96875C427.71875 551.84375 468.7187499999999 570.46875 507.25 572.6875L514.90625 572.90625H516.65625zM516.90625 687.5C595.40625 687.5 670.65625 655.28125 728.71875 596.75A23.906249999999996 23.906249999999996 0 0 0 694.78125 563.0625C645.71875 612.46875 582.59375 639.6875 516.90625 639.6875C451.21875 639.6875 388.0312500000001 612.5 339.03125 563.09375A23.906249999999996 23.906249999999996 0 1 0 305.09375 596.75C363.125 655.3125 438.375 687.5 516.875 687.5z" />
    <glyph glyph-name="joining-arrows"
      unicode="&#xF145;"
      horiz-adv-x="1000" d=" M975 512.5A39.2 39.2 0 0 0 963.5 484.75L739.3499999999999 260.6A39.2 39.2 0 0 0 683.9 316.0999999999999L841.0999999999999 473.25H487.5C261.95 473.25 78.4500000000001 289.75 78.4500000000001 64.25A39.2 39.2 0 1 0 0 64.25A488.74999999999994 488.74999999999994 0 0 0 271.1 501.3L293.6 512.5L271.1 523.7A488.34999999999997 488.34999999999997 0 0 0 142.8 616A484.24999999999994 484.24999999999994 0 0 0 0 960.75A39.25 39.25 0 1 0 78.45 960.75C78.45 735.25 261.95 551.75 487.5 551.75H841.0999999999999L683.9 708.9A39.2 39.2 0 1 0 739.4 764.4L963.5 540.25C970.85 532.9 975 522.9000000000001 975 512.5z" />
    <glyph glyph-name="key"
      unicode="&#xF101;"
      horiz-adv-x="1000" d=" M507 954.35A156.74999999999997 156.74999999999997 0 0 0 673.25 989.6C725.55 969.6 801.2499999999999 932.5 864.65 869.4C928.3 806.05 966.45 729.55 987.3 676.55A155.35000000000002 155.35000000000002 0 0 0 952.2499999999998 509.55L797.2499999999999 355.3499999999999A156.25 156.25 0 0 0 626.55 321.85A584.3000000000001 584.3000000000001 0 0 0 545.5499999999998 363.2499999999999A39 39 0 0 0 586.2999999999998 429.7C608.4999999999999 416.05 632.0999999999999 404 656.4999999999999 393.9A78.5 78.5 0 0 1 742.2999999999998 410.6L897.2499999999999 564.85A77.5 77.5 0 0 1 914.7499999999998 648.05C896.5999999999999 694.1 863.7499999999999 760.3 809.6499999999999 814.1C755.9 867.6 690.65 899.45 645.3999999999999 916.75A78.64999999999999 78.64999999999999 0 0 1 561.9499999999998 899.05L408.9000000000001 746.7A77.6 77.6 0 0 1 392.5500000000001 660.7C403.5500000000001 636.05 415.9500000000001 612.2 429.4500000000001 589.95A39 39 0 0 0 423.7 542.15L77.95 196.5V80.1H171.55V150.25A39 39 0 0 0 210.55 189.25H280.7000000000001V259.4500000000001C280.7000000000001 280.9500000000001 298.2000000000001 298.45 319.7000000000001 298.45H428.8500000000001A39 39 0 1 0 428.8500000000001 220.4499999999999H358.65V150.25A39 39 0 0 0 319.65 111.2499999999999H249.5V41.0999999999999A39 39 0 0 0 210.5 2.0999999999999H39A39 39 0 0 0 0 41.0999999999999V212.65A39 39 0 0 0 11.4 240.2000000000001L347.4 576.2A720.3 720.3 0 0 0 321.3 629.0500000000001A156 156 0 0 0 353.85 802.0500000000001zM709.5500000000001 789.35A62.400000000000006 62.400000000000006 0 1 0 709.5500000000001 664.5999999999999A62.400000000000006 62.400000000000006 0 0 0 709.5500000000001 789.35z" />
    <glyph glyph-name="life-bouy"
      unicode="&#xF128;"
      horiz-adv-x="1000" d=" M1000 500A500.625 500.625 0 0 1 967.625 677.75V835.875A131.9375 131.9375 0 0 1 835.75 967.6875H677.5625A499.9374999999999 499.9374999999999 0 0 1 500 1000C438.375 1000 378.4375 988.875 322.5 967.6875H164.1875C91.4375 967.6875 32.3125 908.5625 32.3125 835.8125V677.6875A500 500 0 0 1 0 500C0 438.3125 11.125 378.3125 32.375 322.25V164.1250000000001C32.375 91.4375000000001 91.5 32.3125000000001 164.25 32.3125000000001H322.5C378.4375 11.0625000000001 438.375 1e-13 500 1e-13C561.625 1e-13 621.5625 11.1250000000001 677.5 32.3125000000001H835.75C908.5 32.3125000000001 967.625 91.4375000000001 967.625 164.1875V322.3125A500 500 0 0 1 1000 500zM832 209.625L723 318.6249999999999A285.25 285.25 0 0 1 787.375 500C787.375 566.875 764.75 630.25 723.0000000000001 681.375L832.0000000000001 790.375A437.8124999999999 437.8124999999999 0 0 0 941.0625 500C941.0625 392.0625 902.5625 290 832.0000000000001 209.625zM167.9999999999999 209.625A441.68750000000006 441.68750000000006 0 0 0 167.9999999999999 790.375L276.9999999999999 681.375A285.25 285.25 0 0 1 212.625 500C212.625 433.125 235.2500000000001 369.75 277 318.6249999999999L168 209.625zM271.5 500C271.5 561.0625 295.25 618.4375 338.3750000000001 661.5625A227.81249999999994 227.81249999999994 0 0 0 500 728.4375C558.5 728.4375 617 706.125 661.5625 661.5625A226.99999999999997 226.99999999999997 0 0 0 728.5 500C728.5 438.9375 704.75 381.5625 661.625 338.4375A228.75000000000006 228.75000000000006 0 0 0 338.4375 338.4375A226.99999999999997 226.99999999999997 0 0 0 271.5 500zM835.75 908.75C876 908.75 908.6875 876.0625 908.6875 835.875V788.25A506.125 506.125 0 0 1 788.125 908.75H835.75zM790.375 832L681.3750000000001 723A287.9375 287.9375 0 0 1 318.6250000000001 723L209.625 832A437.8124999999999 437.8124999999999 0 0 0 500 941.0625C607.9375 941.0625 710 902.5625 790.375 832zM91.25 835.875C91.25 876.0625 123.9375 908.75 164.1875 908.75H211.8125A506.125 506.125 0 0 1 91.1875 788.25V835.875zM164.25 91.25A73 73 0 0 0 91.3125 164.1250000000001V211.7500000000001A506.25 506.25 0 0 1 211.875 91.25H164.25zM209.625 168L318.625 277A286.75 286.75 0 0 1 500 212.6875C564.375 212.6875 628.75 234.125 681.3750000000001 277L790.375 168A437.8124999999999 437.8124999999999 0 0 0 500 58.9375A437.8124999999999 437.8124999999999 0 0 0 209.625 167.9999999999999zM908.6875000000002 164.1250000000001C908.6875000000002 123.9375 876.0000000000001 91.25 835.7500000000001 91.25H788.1250000000001A506.00000000000006 506.00000000000006 0 0 1 908.7500000000002 211.7500000000001V164.1250000000001z" />
    <glyph glyph-name="list"
      unicode="&#xF148;"
      horiz-adv-x="1000" d=" M328.5416666666667 538.4583333333334H979.1666666666666A20.83333333333333 20.83333333333333 0 0 0 1000 517.625V482.375A20.83333333333333 20.83333333333333 0 0 0 979.1666666666666 461.5416666666667H328.5416666666667A20.83333333333333 20.83333333333333 0 0 0 307.7083333333333 482.375V517.625A20.83333333333333 20.83333333333333 0 0 0 328.5416666666667 538.4583333333334zM328.5416666666667 153.875H979.1666666666666A20.83333333333333 20.83333333333333 0 0 0 1000 133.0416666666666V97.7499999999999A20.83333333333333 20.83333333333333 0 0 0 979.1666666666666 76.9166666666666H328.5416666666667A20.83333333333333 20.83333333333333 0 0 0 307.7083333333333 97.7499999999999V132.9999999999999A20.83333333333333 20.83333333333333 0 0 0 328.5416666666667 153.8333333333333zM328.5416666666667 923.0416666666666H979.1666666666666A20.83333333333333 20.83333333333333 0 0 0 1000 902.2083333333331V867A20.83333333333333 20.83333333333333 0 0 0 979.1666666666666 846.1666666666666H328.5416666666667A20.83333333333333 20.83333333333333 0 0 0 307.7083333333333 867V902.25A20.83333333333333 20.83333333333333 0 0 0 328.5416666666667 923.0833333333331zM115.375 615.4166666666667A115.41666666666664 115.41666666666664 0 1 0 115.375 384.6666666666667A115.41666666666664 115.41666666666664 0 0 0 115.375 615.4166666666667zM115.375 552.9166666666667A52.91666666666666 52.91666666666666 0 1 1 115.375 447.1666666666667A52.91666666666666 52.91666666666666 0 0 1 115.375 552.9166666666667zM115.375 230.8333333333334A115.41666666666664 115.41666666666664 0 1 0 115.375 0.0416666666666A115.41666666666664 115.41666666666664 0 0 0 115.375 230.7916666666667zM115.375 168.3333333333334A52.91666666666666 52.91666666666666 0 1 1 115.375 62.5416666666666A52.91666666666666 52.91666666666666 0 0 1 115.375 168.2916666666666zM115.4166666666667 1000A115.41666666666664 115.41666666666664 0 1 0 115.4166666666667 769.25A115.41666666666664 115.41666666666664 0 0 0 115.4166666666667 1000zM115.4166666666667 937.5A52.91666666666666 52.91666666666666 0 1 1 115.4166666666667 831.75A52.91666666666666 52.91666666666666 0 0 1 115.4166666666667 937.5z" />
    <glyph glyph-name="logout"
      unicode="&#xF113;"
      horiz-adv-x="1000" d=" M625 937.5A62.5 62.5 0 0 0 687.5 1000H937.5A62.5 62.5 0 0 0 1000 937.5L999.875 936.5L1000 63.625V62.5A62.5 62.5 0 0 0 937.5 0H687.5A62.5 62.5 0 1 0 687.5 125H875V875H687.5A62.5 62.5 0 0 0 625 937.5zM0 499.9375000000001A62.5 62.5 0 0 0 62.5 562.4375H550.6249999999999L391.625 718.5A54.3125 54.3125 0 0 0 391.625 796.5A56.3125 56.3125 0 0 0 431.3125 812.625C446.3125 812.625 460.4375 806.875 471.0625 796.5L733.125 539.25A54.25 54.25 0 0 0 733.125 461.25L471.0625000000001 204.0000000000001A56.3125 56.3125 0 0 0 431.3125000000001 187.875A56.3125 56.3125 0 0 0 391.5625000000001 204A54.25 54.25 0 0 0 391.5625000000001 281.9999999999999L549.875 437.375H62.5A62.5 62.5 0 0 0 0 499.8749999999999z" />
    <glyph glyph-name="magnify"
      unicode="&#xF133;"
      horiz-adv-x="960" d=" M425.8 993.32C531 993.32 632.2 954.4 710.52 883.64C882.3199999999999 728.56 897.3599999999999 462.96 745.4799999999999 288.6L960 73L923.52 32.88L707.12 248.9600000000001A425.08000000000004 425.08000000000004 0 0 0 426.28 143.3199999999999C320.4 143.3199999999999 219 182.28 140.6 253.1599999999999A422.4000000000001 422.4000000000001 0 0 0 0.56 547.2A421 421 0 0 0 109.92 852.96A426.88000000000005 426.88000000000005 0 0 0 425.8 993.36zM425.56 937.88C221.56 937.88 55.56 772.08 55.56 568.36S221.56 198.92 425.56 198.92S795.56 364.64 795.56 568.36C795.56 772.0799999999999 629.56 937.88 425.56 937.88zM384.4 851.72C564.68 851.72 711.4 705.2 711.4 525.1600000000001V518.48H656.8000000000001V525.1600000000001C656.8000000000001 675.1600000000001 534.5600000000001 797.1600000000001 384.4000000000001 797.1600000000001H377.6000000000002V851.72H384.2800000000001z" />
    <glyph glyph-name="malware-scan"
      unicode="&#xF13F;"
      horiz-adv-x="1043.4782608695652" d=" M391.304347826087 86.9565217391304V21.7391304347826H326.0869565217392V86.9565217391304H391.304347826087zM586.9565217391305 86.9565217391304V21.7391304347826H456.5217391304348V86.9565217391304H586.9565217391305zM717.3913043478261 86.9565217391304V21.7391304347826H652.1739130434783V86.9565217391304H717.3913043478261zM130.4347826086957 152.6521739130434L195.6521739130435 151.8695652173913C195.6521739130435 116.0869565217391 225.304347826087 86.9565217391304 260.8695652173913 86.9565217391304L260.6956521739131 21.7391304347826A130.43478260869566 130.43478260869566 0 0 0 130.4347826086957 152.6521739130434zM913.0434782608696 152.6521739130434A130.47826086956522 130.47826086956522 0 0 0 790.4347826086956 21.9565217391304L782.7826086956522 21.7391304347826L782.608695652174 86.9565217391304C816.0869565217391 86.9565217391304 844.3478260869566 112.695652173913 847.5217391304348 145.6521739130435L847.8260869565217 151.8695652173914L913.0434782608696 152.6521739130436zM195.6521739130435 347.8260869565218V217.391304347826H130.4347826086957V347.8260869565218H195.6521739130435zM913.0434782608696 347.8260869565218V217.391304347826H847.8260869565217V347.8260869565218H913.0434782608696zM652.1739130434783 1000L913.0434782608696 739.1304347826087V478.2608695652174H978.2608695652174V608.695652173913H1043.4782608695652V282.6086956521739H978.2608695652174V413.0434782608695H65.2173913043478V282.6086956521739H0V608.695652173913H65.2173913043478V478.2608695652174H130.4782608695652L130.9130434782609 895.6521739130435C130.9130434782609 950.6521739130434 170.9130434782609 996.0869565217392 221.6086956521739 999.7391304347826L228.2608695652174 1000H652.1739130434783zM625.1739130434783 934.7826086956522H228.2608695652174C211.6521739130435 934.7826086956522 196.1304347826087 918.1304347826087 196.1304347826087 895.6521739130435L195.6521739130435 478.2608695652174H847.8260869565217V712.1304347826087L625.1739130434783 934.7826086956522z" />
    <glyph glyph-name="map-pin"
      unicode="&#xF129;"
      horiz-adv-x="1000" d=" M500 1000C706.8125000000001 1000 875 840.375 875 644.1875C875 395.9375 549.375 51.875 535.5 37.375L499.9375 0L451.625 51.125C388.6875 119.75 125 420.75 125 644.1875C125 840.375 293.1875 1000 500 1000zM500 937.5C326.9375 937.5 187.5 805.125 187.5 644.1875C187.5 551.5 244.5 426.5625 340.75 288.9375000000001A1924.1250000000005 1924.1250000000005 0 0 1 488.875 102.8125000000001L500 90.8125000000001L511.0625 102.8125000000001A1922.3749999999998 1922.3749999999998 0 0 1 659.1875 288.9375000000001C755.5625 426.5625 812.5 551.4375 812.5 644.1875C812.5 805.125 673 937.5 500 937.5zM500 750A125 125 0 1 0 500 500A125 125 0 0 0 500 750zM500 687.5A62.5 62.5 0 1 1 500 562.5A62.5 62.5 0 0 1 500 687.5z" />
    <glyph glyph-name="money-cirlce-alt"
      unicode="&#xF12F;"
      horiz-adv-x="1000" d=" M500 1000C633.5416666666666 1000 759.125 948 853.5416666666666 853.5416666666666A496.70833333333326 496.70833333333326 0 0 0 1000 500C1000 366.4583333333334 947.9999999999998 240.875 853.5416666666666 146.4583333333334A496.70833333333326 496.70833333333326 0 0 0 500 0A496.70833333333326 496.70833333333326 0 0 0 146.4583333333334 146.4583333333334A496.70833333333326 496.70833333333326 0 0 0 0 500C0 633.5416666666667 52 759.125 146.4583333333334 853.5416666666666A496.70833333333326 496.70833333333326 0 0 0 500 1000zM500 937.5C258.75 937.5 62.5 741.25 62.5 500S258.75 62.5 500 62.5S937.5 258.7500000000001 937.5 500S741.2499999999999 937.5 500 937.5zM500 812.5A31.25 31.25 0 0 0 531.25 781.25V746.4583333333334A140.83333333333331 140.83333333333331 0 0 0 640.625 609.375A31.25 31.25 0 0 0 578.125 609.375A78.20833333333334 78.20833333333334 0 0 1 500 687.5A78.20833333333334 78.20833333333334 0 0 1 421.875 609.375C421.875 566.2916666666667 456.9166666666666 531.25 500 531.25A140.79166666666663 140.79166666666663 0 0 0 640.625 390.625A140.83333333333331 140.83333333333331 0 0 0 531.25 253.5416666666668V218.75A31.25 31.25 0 0 0 468.75 218.75V253.5416666666668A140.83333333333331 140.83333333333331 0 0 0 359.375 390.625A31.25 31.25 0 0 0 421.875 390.625C421.875 347.5416666666667 456.9166666666666 312.5 500 312.5A78.20833333333334 78.20833333333334 0 0 1 578.125 390.625A78.20833333333334 78.20833333333334 0 0 1 500 468.75A140.79166666666663 140.79166666666663 0 0 0 359.375 609.375A140.83333333333331 140.83333333333331 0 0 0 468.75 746.4583333333334V781.25A31.25 31.25 0 0 0 500 812.5z" />
    <glyph glyph-name="on-symbol"
      unicode="&#xF132;"
      horiz-adv-x="916.6666666666666" d=" M548.5833333333334 831.25A39.041666666666664 39.041666666666664 0 0 0 599.0416666666666 853.8333333333334A441.24999999999994 441.24999999999994 0 0 0 882.7916666666666 441.4166666666668A441.1666666666666 441.1666666666666 0 0 0 441.4583333333333 0A441.1666666666666 441.1666666666666 0 0 0 0 441.4166666666667C0 627.5 115.5833333333333 789.5 283.75 853.8333333333334A39.08333333333333 39.08333333333333 0 0 0 311.6666666666667 780.8333333333334A363.20833333333326 363.20833333333326 0 0 1 78.125 441.4166666666667C78.125 241.0833333333335 241.0833333333333 78.125 441.4166666666665 78.125C641.7083333333333 78.125 804.7083333333331 241.0833333333335 804.7083333333331 441.4166666666667A363.24999999999994 363.24999999999994 0 0 1 571.1249999999998 780.8333333333334A39.08333333333333 39.08333333333333 0 0 0 548.6249999999998 831.25zM441.4166666666667 1000C463 1000 480.4583333333333 982.5 480.4583333333333 960.9166666666666V578.4166666666667A39.08333333333333 39.08333333333333 0 0 0 402.3333333333333 578.4166666666667V960.9166666666666C402.3333333333333 982.5 419.8333333333333 1000 441.4166666666667 1000z" />
    <glyph glyph-name="padlock"
      unicode="&#xF149;"
      horiz-adv-x="750" d=" M375 1000A229.16666666666666 229.16666666666666 0 0 0 604 780.0416666666667L604.1666666666666 770.8333333333334V666.6666666666667H645.8333333333333A83.33333333333331 83.33333333333331 0 0 0 729.1666666666666 583.3333333333334V354.1666666666668A354.1666666666665 354.1666666666665 0 1 0 20.8333333333333 354.1666666666668V583.3333333333334A83.33333333333331 83.33333333333331 0 0 0 104.1666666666667 666.6666666666667H145.8333333333333V770.8333333333334A229.16666666666666 229.16666666666666 0 0 0 365.7916666666667 999.8333333333334L375 1000zM645.8333333333333 600H104.1666666666667A16.666666666666664 16.666666666666664 0 0 1 87.5 583.3333333333334V354.1666666666668A287.5 287.5 0 1 1 662.5 354.1666666666668V583.3333333333334A16.666666666666664 16.666666666666664 0 0 1 645.8333333333333 600zM377.9583333333333 489.5833333333334A71.41666666666666 71.41666666666666 0 0 0 413.7083333333333 356.2916666666668V239.1666666666668A35.70833333333333 35.70833333333333 0 1 0 342.25 239.1666666666668V356.2500000000001A71.41666666666666 71.41666666666666 0 0 0 377.9583333333333 489.5416666666668zM375 933.3333333333334A162.5 162.5 0 0 1 212.7083333333334 779.1666666666666L212.5 770.8333333333333V666.6666666666667H537.5V770.8333333333334A162.5 162.5 0 0 1 383.3333333333333 933.125L375 933.3333333333334z" />
    <glyph glyph-name="password-vault"
      unicode="&#xF120;"
      horiz-adv-x="1000" d=" M875 1000A125 125 0 0 0 1000 875V250A125 125 0 0 0 875 125V62.5A62.5 62.5 0 0 0 812.5 0H687.5A62.5 62.5 0 0 0 625 62.5V125H375V62.5A62.5 62.5 0 0 0 312.5 0H187.5A62.5 62.5 0 0 0 125 62.5V125A125 125 0 0 0 0 250V875A125 125 0 0 0 125 1000H875zM312.5 125H187.5V62.5H312.5V125zM812.5 125H687.5V62.5H812.5V125zM875 937.5H125A62.5 62.5 0 0 1 62.5 875V250A62.5 62.5 0 0 1 125 187.5H875A62.5 62.5 0 0 1 937.5 250V437.5H812.5A62.5 62.5 0 0 0 750 500V562.5A62.5 62.5 0 0 0 812.5 625H937.5V875A62.5 62.5 0 0 1 875 937.5zM375 750A187.49999999999997 187.49999999999997 0 1 0 375 375A187.49999999999997 187.49999999999997 0 0 0 375 750zM375 687.5A125 125 0 1 1 375 437.5A125 125 0 0 1 375 687.5zM937.5 562.5H812.5V500H937.5V562.5zM375 625A62.5 62.5 0 1 0 375 500A62.5 62.5 0 0 0 375 625z" />
    <glyph glyph-name="percent-badge"
      unicode="&#xF143;"
      horiz-adv-x="960" d=" M419.36 975.32A86.83999999999999 86.83999999999999 0 0 0 540.64 975.32L601.72 916.24A29.320000000000004 29.320000000000004 0 0 1 626.3599999999999 908.24L710.48 920.16A86.83999999999999 86.83999999999999 0 0 0 808.6 848.88L823.28 765.16C824.88 756.16 830.4000000000001 748.52 838.48 744.2L913.56 704.4A86.83999999999999 86.83999999999999 0 0 0 951.04 589.04L913.72 512.72C909.72 504.48 909.72 495.04 913.72 486.8L951.04 410.48A86.83999999999999 86.83999999999999 0 0 0 913.56 295.12L838.48 255.32A29.320000000000004 29.320000000000004 0 0 1 823.28 234.3200000000001L808.6 150.6400000000001A86.83999999999999 86.83999999999999 0 0 0 710.48 79.3600000000001L626.36 91.28A29.360000000000003 29.360000000000003 0 0 1 601.72 83.28L540.6400000000001 24.2A86.96000000000001 86.96000000000001 0 0 0 419.3600000000001 24.2L358.2800000000001 83.1999999999999A29.320000000000004 29.320000000000004 0 0 1 333.6400000000001 91.1999999999999L249.5200000000001 79.3199999999999A86.8 86.8 0 0 0 151.4000000000001 150.5999999999999L136.7200000000001 234.2799999999999A29.320000000000004 29.320000000000004 0 0 1 121.5200000000001 255.2799999999998L46.4400000000001 295.0799999999998A86.83999999999999 86.83999999999999 0 0 0 8.9600000000001 410.3999999999998L46.2800000000001 486.7599999999998C50.2800000000001 494.9999999999998 50.2800000000001 504.4399999999998 46.2800000000001 512.6799999999998L8.9600000000001 588.9999999999998A86.83999999999999 86.83999999999999 0 0 0 46.4400000000001 704.3199999999997L121.5200000000001 744.1599999999997A29.320000000000004 29.320000000000004 0 0 1 136.7200000000001 765.1199999999998L151.4000000000001 848.7999999999997A86.83999999999999 86.83999999999999 0 0 0 249.5200000000001 920.0799999999996L333.6400000000001 908.1999999999998A29.320000000000004 29.320000000000004 0 0 1 358.2800000000001 916.1999999999998zM500.52 933.84A29.4 29.4 0 0 1 459.48 933.84L398.4000000000001 874.8C378.9600000000001 856 352.4000000000001 847.36 325.6 851.16L241.4400000000001 863.04A29.4 29.4 0 0 1 208.24 838.92L193.6 755.2A86.64 86.64 0 0 0 148.6 693.2L73.52 653.4000000000001A29.4 29.4 0 0 1 60.84 614.4000000000001L98.16 538.04A86.64 86.64 0 0 0 98.16 461.4400000000001L60.84 385.1200000000001A29.4 29.4 0 0 1 73.52 346.1200000000001L148.6 306.2800000000002A86.64 86.64 0 0 0 193.6 244.2800000000001L208.28 160.6400000000001C211.08 144.8400000000002 225.64 134.24 241.48 136.52L325.6 148.4000000000001A86.56 86.56 0 0 0 398.44 124.72L459.52 65.6800000000001A29.4 29.4 0 0 1 500.5599999999999 65.6800000000001L561.64 124.72A86.64 86.64 0 0 0 634.4399999999999 148.4000000000001L718.6 136.52A29.4 29.4 0 0 1 751.8 160.6400000000001L766.48 244.3200000000001A86.64 86.64 0 0 0 811.48 306.28L886.56 346.1199999999999A29.4 29.4 0 0 1 899.2399999999999 385.1199999999999L861.92 461.48A86.64 86.64 0 0 0 861.92 538.04L899.2399999999999 614.4A29.4 29.4 0 0 1 886.56 653.4L811.48 693.24A86.64 86.64 0 0 0 766.48 755.1999999999999L751.8 838.88A29.4 29.4 0 0 1 718.6 863L634.48 851.12A86.64 86.64 0 0 0 561.5999999999999 874.76zM595.4 451.6799999999999A105.92 105.92 0 0 0 701.2 345.8799999999999A105.92 105.92 0 0 0 595.4000000000001 240.08A105.92 105.92 0 0 0 489.6000000000001 345.8799999999999A105.92 105.92 0 0 0 595.4000000000001 451.6799999999999zM650 710.56A28.839999999999996 28.839999999999996 0 1 0 690.8 669.76L310 288.9600000000001A28.76 28.76 0 0 0 269.2000000000001 288.9600000000001A28.839999999999996 28.839999999999996 0 0 0 269.2000000000001 329.76zM595.4 393.9600000000001C568.88 393.9600000000001 547.3199999999999 372.36 547.3199999999999 345.8799999999999C547.3199999999999 319.3599999999999 568.92 297.8 595.4 297.8A48.12 48.12 0 0 1 595.4 393.9600000000001zM364.6 759.44A105.92 105.92 0 0 0 470.4 653.6A105.92 105.92 0 0 0 364.6 547.8A105.92 105.92 0 0 0 258.8 653.64A105.92 105.92 0 0 0 364.6 759.4399999999999zM364.6 701.72A48.12 48.12 0 1 1 412.68 653.6400000000001C412.68 680.1600000000001 391.0800000000001 701.72 364.6 701.72z" />
    <glyph glyph-name="pie-chart"
      unicode="&#xF14B;"
      horiz-adv-x="1000.0816326530612" d=" M453.8775510204081 844.1632653061224V437.8775510204082H852.938775510204V421.0612244897959H853.7551020408163L853.2653061224489 404.6938775510204L852.9795918367345 399.0612244897959L852.9387755102039 393.5510204081633C837.6326530612242 172.5714285714287 651.7142857142856 0 426.8163265306121 0C191.1020408163265 0 0 188.9795918367347 0 422.0408163265306C0 641.1836734693877 169.1020408163265 822.204081632653 386.4897959183673 842.3265306122449L399.0204081632653 843.3061224489796L398.9795918367347 844.204081632653H453.9183673469388zM426.7755102040817 373.0204081632654L189.3469387755102 138.2857142857143L191.1836734693877 136.7346938775511A373.4285714285714 373.4285714285714 0 0 1 413.1020408163265 54.0408163265307L426.8163265306122 53.795918367347A373.7142857142857 373.7142857142857 0 0 1 662.408163265306 136.7346938775511L664.204081632653 138.2857142857143L426.7755102040817 373.0204081632654zM399.7142857142857 789.3877551020408C205.8775510204081 775.5510204081633 54.204081632653 615.795918367347 54.204081632653 422.0408163265306C54.204081632653 330.4489795918368 88.1632653061224 244.0816326530612 148.4489795918367 177.265306122449L150.1632653061224 175.3877551020409L399.7142857142857 422.1632653061224V789.3877551020408zM492.3265306122449 384.1224489795918L703.4285714285713 175.4285714285713L706.1224489795917 178.2857142857142A364.6938775510204 364.6938775510204 0 0 1 797.142857142857 380.734693877551L797.3877551020407 384.0816326530612L492.3265306122448 384.1224489795918zM561.9183673469388 1000C797.0204081632653 1000 989.3877551020408 816.6938775510205 999.591836734694 585.9591836734694L999.9183673469388 574.4081632653061L1000.0816326530614 556.5714285714287H551.7142857142857V1000H561.9183673469388zM605.8775510204081 943.7551020408164V610.4081632653061H943.2244897959184L943.0204081632654 612.8571428571429C922.326530612245 781.8367346938776 789.2653061224491 916.530612244898 619.9591836734695 941.8775510204082L605.8775510204083 943.7551020408164z" />
    <glyph glyph-name="plus"
      unicode="&#xF114;"
      horiz-adv-x="1000" d=" M500 1000A60 60 0 0 0 560 940V560H940A60 60 0 0 0 940 440H560V60A60 60 0 0 0 440 60V440H60A60 60 0 0 0 60 560H440V940A60 60 0 0 0 500 1000z" />
    </font>
</defs>
</svg>
