<?xml version="1.0" encoding="UTF-8"?>
<svg width="120px" height="20px" viewBox="0 0 120 20" version="1.1" xmlns="http://www.w3.org/2000/svg" xmlns:xlink="http://www.w3.org/1999/xlink">
    <!-- Generator: Sketch 51.3 (57544) - http://www.bohemiancoding.com/sketch -->
    <title>etr_co</title>
    <desc>Created with Sketch.</desc>
    <defs></defs>
    <g id="Page-1" stroke="none" stroke-width="1" fill="none" fill-rule="evenodd">
        <g id="etr_co" transform="translate(0.000000, -0.345727)">
            <g id="interac-einterac" transform="translate(0.212262, 0.580834)" fill-rule="nonzero">
                <g id="etransfer">
                    <path d="M18.9307625,18.942369 C19.3371848,18.6460267 19.5999133,18.1766008 19.5999133,17.6478151 L19.5999133,1.41137363 C19.5999133,0.882611236 19.3371863,0.413195412 18.9307625,0.116856559 L46.7074508,0.116856559 C47.6072253,0.116856559 48.337975,0.818621604 48.337975,1.68545335 L48.337975,17.3737367 C48.337975,18.240604 47.6072253,18.942369 46.7074508,18.942369 L18.9307625,18.942369 Z" id="Combined-Shape" fill="#636567"></path>
                    <path d="M23.9703013,9.66688124 C23.9666362,9.55326276 23.9593061,9.4533899 23.9483108,9.36725973 C23.9373154,9.28112958 23.9180739,9.20782843 23.8905855,9.14735407 C23.8630971,9.0868797 23.8246141,9.04106648 23.775135,9.00991302 C23.725656,8.97875955 23.6624338,8.96318306 23.5854664,8.96318306 C23.508499,8.96318306 23.4452768,8.98059209 23.3957977,9.01541066 C23.3463188,9.05022923 23.3069193,9.09604246 23.2775985,9.1528517 C23.2482775,9.20966095 23.2272034,9.2728832 23.2143756,9.34252035 C23.2015477,9.4121575 23.1951338,9.4817936 23.1951338,9.55143076 L23.1951338,9.66688124 L23.9703013,9.66688124 Z M23.1951338,10.1176878 L23.1951338,10.3540865 C23.1951338,10.4420491 23.2015477,10.5272618 23.2143756,10.6097268 C23.2272034,10.6921918 23.2482775,10.765493 23.2775985,10.8296325 C23.3069193,10.893772 23.3454025,10.9450828 23.393049,10.9835665 C23.4406954,11.0220501 23.4993363,11.0412917 23.5689734,11.0412917 C23.6972524,11.0412917 23.7907114,10.9954785 23.8493532,10.9038507 C23.907995,10.8122229 23.9483107,10.6729507 23.9703013,10.4860299 L24.652009,10.4860299 C24.6373485,10.8305505 24.545722,11.0926021 24.3771269,11.2721927 C24.2085316,11.4517831 23.942815,11.5415771 23.5799688,11.5415771 C23.3050853,11.5415771 23.0906794,11.4957639 22.9367447,11.4041361 C22.7828099,11.3125082 22.6691931,11.1915613 22.5958909,11.0412917 C22.5225886,10.8910221 22.4776916,10.7224294 22.4611987,10.5355087 C22.4447056,10.3485879 22.4364592,10.1616699 22.4364592,9.97474914 C22.4364592,9.77683305 22.4502032,9.5862501 22.4776915,9.40299441 C22.5051799,9.21973876 22.5601558,9.05664369 22.6426209,8.91370429 C22.7250859,8.77076488 22.843284,8.65714809 22.9972188,8.57285049 C23.1511534,8.48855289 23.3563967,8.44640472 23.6129546,8.44640472 C23.8328614,8.44640472 24.0133655,8.48213904 24.1544724,8.55360873 C24.2955791,8.62507844 24.4064471,8.72586753 24.4870797,8.85597904 C24.5677122,8.98609055 24.622688,9.14368804 24.652009,9.32877625 C24.6813298,9.51386445 24.6959901,9.720024 24.6959901,9.94726095 L24.6959901,10.1176878 L23.1951338,10.1176878 Z M26.63116,9.56792362 L26.63116,10.2166454 L25.080825,10.2166454 L25.080825,9.56792362 L26.63116,9.56792362 Z M29.4459527,7.55578673 L29.4459527,8.20450848 L28.5883205,8.20450848 L28.5883205,11.481103 L27.7966601,11.481103 L27.7966601,8.20450848 L26.939028,8.20450848 L26.939028,7.55578673 L29.4459527,7.55578673 Z M29.3579904,8.5233717 L30.0836791,8.5233717 L30.0836791,8.91920192 L30.0946744,8.91920192 C30.1716418,8.77626252 30.2651008,8.66172946 30.3750541,8.5755993 C30.4850075,8.48946915 30.6187821,8.44640472 30.776382,8.44640472 C30.7983727,8.44640472 30.8212792,8.44732098 30.8451025,8.44915354 C30.8689257,8.4509861 30.8918324,8.4537349 30.913823,8.45740001 L30.913823,9.18308873 C30.8735068,9.17942362 30.8341074,9.17667483 30.7956237,9.17484227 C30.7571401,9.17300971 30.7177407,9.17209345 30.6774245,9.17209345 C30.6114524,9.17209345 30.5454813,9.1812561 30.4795093,9.19958166 C30.4135373,9.21790723 30.3530638,9.24814395 30.2980871,9.29029275 C30.2431105,9.33244155 30.1991297,9.38741742 30.1661437,9.45522201 C30.1331577,9.5230266 30.116665,9.60640667 30.116665,9.70536467 L30.116665,11.481103 L29.3579904,11.481103 L29.3579904,8.5233717 Z M32.5686132,10.0022373 C32.5173016,10.0425536 32.4623258,10.0746229 32.403684,10.0984461 C32.3450422,10.1222693 32.2918989,10.1396784 32.2442524,10.1506737 C32.0903176,10.1836597 31.9803659,10.2386356 31.9143939,10.315603 C31.8484218,10.3925704 31.8154363,10.4970245 31.8154363,10.6289686 C31.8154363,10.742587 31.8374267,10.839711 31.881408,10.9203435 C31.9253893,11.0009761 31.9986906,11.0412917 32.1013137,11.0412917 C32.1526252,11.0412917 32.2057686,11.0330453 32.2607453,11.0165523 C32.315722,11.0000593 32.3661166,10.9734876 32.4119305,10.9368365 C32.4577444,10.9001853 32.4953112,10.8525396 32.5246321,10.7938978 C32.553953,10.735256 32.5686132,10.6656199 32.5686132,10.5849874 L32.5686132,10.0022373 Z M31.1832075,9.43048262 L31.1832075,9.35901328 C31.1832075,9.18675297 31.2106954,9.04289945 31.2656721,8.92744839 C31.3206489,8.81199733 31.3948662,8.71853835 31.4883266,8.64706865 C31.581787,8.57559895 31.6917388,8.52428813 31.8181851,8.49313468 C31.9446315,8.46198122 32.0793224,8.44640472 32.2222618,8.44640472 C32.4494988,8.44640472 32.6327517,8.46839507 32.772026,8.51237642 C32.9113003,8.55635778 33.0194195,8.61866376 33.0963869,8.69929625 C33.1733543,8.77992873 33.2255813,8.8761365 33.2530696,8.98792245 C33.280558,9.09970839 33.294302,9.22157157 33.294302,9.35351563 L33.294302,10.9093483 C33.294302,11.0486226 33.3007158,11.1567418 33.3135437,11.2337091 C33.3263716,11.3106766 33.3511108,11.3931404 33.3877619,11.481103 L32.6620731,11.481103 C32.6364173,11.4334566 32.6171758,11.383062 32.6043479,11.3299179 C32.59152,11.2767737 32.5796086,11.2245467 32.5686132,11.1732351 L32.557618,11.1732351 C32.4696552,11.3271698 32.3679499,11.4270427 32.2524989,11.4728566 C32.1370478,11.5186705 31.9876967,11.5415771 31.804441,11.5415771 C31.672497,11.5415771 31.5607127,11.5186705 31.4690849,11.4728566 C31.377457,11.4270427 31.3041559,11.3638204 31.2491792,11.2831879 C31.1942025,11.2025554 31.1538869,11.1118452 31.128231,11.0110547 C31.1025752,10.9102641 31.0897476,10.8103912 31.0897476,10.7114331 C31.0897476,10.5721589 31.1044078,10.4521283 31.1337287,10.3513376 C31.1630496,10.250547 31.2079466,10.1644182 31.268421,10.0929485 C31.3288953,10.0214788 31.4058615,9.96192162 31.4993219,9.91427514 C31.5927823,9.86662867 31.7054829,9.82448048 31.8374269,9.78782933 L32.266243,9.67237886 C32.3798614,9.643058 32.4586602,9.60274229 32.5026415,9.55143076 C32.5466229,9.50011916 32.5686132,9.42498548 32.5686132,9.32602742 C32.5686132,9.21240892 32.5420416,9.12353127 32.4888974,9.05939179 C32.4357533,8.99525231 32.3450431,8.96318306 32.2167642,8.96318306 C32.0994806,8.96318306 32.0115191,8.9980011 31.9528773,9.06763826 C31.8942355,9.1372754 31.864915,9.23073438 31.864915,9.34801799 L31.864915,9.43048262 L31.1832075,9.43048262 Z M33.8330709,8.5233717 L34.5587596,8.5233717 L34.5587596,8.86972314 L34.5697549,8.86972314 C34.6503873,8.72311863 34.7548415,8.61591569 34.8831205,8.5481111 C35.0113994,8.4803065 35.1580017,8.44640472 35.3229318,8.44640472 C35.5648292,8.44640472 35.750831,8.51237576 35.8809425,8.64431983 C36.011054,8.7762639 36.0761088,8.99066978 36.0761088,9.28754393 L36.0761088,11.481103 L35.3174342,11.481103 L35.3174342,9.4414779 C35.3174342,9.28754316 35.2917788,9.18034022 35.2404672,9.11986586 C35.1891556,9.05939149 35.1066918,9.02915476 34.9930733,9.02915476 C34.7255201,9.02915476 34.5917454,9.19224984 34.5917454,9.51844489 L34.5917454,11.481103 L33.8330709,11.481103 L33.8330709,8.5233717 Z M37.1371536,10.5135181 L37.1371536,10.6124756 C37.1371536,10.7407546 37.1710554,10.8442925 37.23886,10.9230924 C37.3066647,11.0018923 37.404705,11.0412917 37.5329839,11.0412917 C37.6502675,11.0412917 37.7437265,11.0119712 37.8133636,10.9533294 C37.8830008,10.8946876 37.9178188,10.8067262 37.9178188,10.6894426 C37.9178188,10.5941497 37.8903309,10.5217648 37.8353542,10.4722857 C37.7803775,10.4228068 37.716239,10.3834073 37.6429367,10.3540865 L37.1096654,10.161669 C36.900754,10.0883668 36.7431565,9.98482886 36.6368683,9.85105219 C36.53058,9.71727562 36.4774367,9.54593419 36.4774367,9.3370227 C36.4774367,9.21607398 36.4975945,9.10154092 36.5379107,8.99342009 C36.578227,8.88529926 36.6423654,8.79092402 36.7303282,8.71029153 C36.8182909,8.62965905 36.9309914,8.56552053 37.0684331,8.51787407 C37.2058749,8.4702276 37.3717188,8.44640472 37.5659697,8.44640472 C37.9104904,8.44640472 38.1652119,8.51970588 38.3301419,8.6663104 C38.495072,8.81291491 38.5775358,9.01999069 38.5775358,9.28754393 L38.5775358,9.40849205 L37.8958282,9.40849205 C37.8958282,9.2545573 37.8710891,9.14185678 37.8216101,9.07038708 C37.772131,8.99891737 37.6850859,8.96318306 37.5604721,8.96318306 C37.4651791,8.96318306 37.381799,8.98975473 37.3103293,9.04289887 C37.2388597,9.096043 37.2031253,9.17575801 37.2031253,9.28204629 C37.2031253,9.35534854 37.226032,9.42131959 37.2718459,9.4799614 C37.3176598,9.53860324 37.404705,9.58808152 37.5329839,9.62839771 L37.9892882,9.78233171 C38.2275205,9.86296419 38.3961131,9.96833457 38.4950712,10.0984461 C38.5940292,10.2285576 38.6435075,10.4053967 38.6435075,10.6289686 C38.6435075,10.7865684 38.6160196,10.9230918 38.561043,11.0385429 C38.5060662,11.1539939 38.4300163,11.2502017 38.3328908,11.327169 C38.2357652,11.4041365 38.1203159,11.4591123 37.9865393,11.4920983 C37.8527627,11.5250844 37.7052441,11.5415771 37.5439791,11.5415771 C37.3314026,11.5415771 37.1545635,11.5214192 37.0134567,11.481103 C36.8723499,11.4407868 36.7605656,11.3803133 36.6781006,11.2996809 C36.5956355,11.2190484 36.5379109,11.1210081 36.5049249,11.005557 C36.4719389,10.890106 36.4554461,10.7609127 36.4554461,10.6179732 L36.4554461,10.5135181 L37.1371536,10.5135181 Z M39.1877741,9.04015005 L38.8029391,9.04015005 L38.8029391,8.5233717 L39.1877741,8.5233717 L39.1877741,8.18801555 C39.1877741,8.05607149 39.2060993,7.94428722 39.2427505,7.8526594 C39.2794016,7.76103157 39.3316287,7.68773042 39.3994333,7.63275372 C39.4672379,7.57777703 39.5506179,7.53837766 39.649576,7.51455442 C39.7485341,7.49073119 39.8584858,7.47881975 39.9794345,7.47881975 C40.1150437,7.47881975 40.2506509,7.48431733 40.38626,7.49531268 L40.38626,8.03408158 C40.3679345,8.03041647 40.342279,8.02858393 40.309293,8.02858393 L40.2378237,8.02858393 C40.1315354,8.02858393 40.0564017,8.04690923 40.0124204,8.08356035 C39.968439,8.12021149 39.9464487,8.18068494 39.9464487,8.26498254 L39.9464487,8.5233717 L40.38626,8.5233717 L40.38626,9.04015005 L39.9464487,9.04015005 L39.9464487,11.481103 L39.1877741,11.481103 L39.1877741,9.04015005 Z M42.0740361,9.66688124 C42.070371,9.55326276 42.0630409,9.4533899 42.0520455,9.36725973 C42.0410502,9.28112958 42.0218086,9.20782843 41.9943203,9.14735407 C41.9668319,9.0868797 41.9283488,9.04106648 41.8788698,9.00991302 C41.8293908,8.97875955 41.7661685,8.96318306 41.6892011,8.96318306 C41.6122338,8.96318306 41.5490115,8.98059209 41.4995325,9.01541066 C41.4500534,9.05022923 41.4106541,9.09604246 41.3813332,9.1528517 C41.3520123,9.20966095 41.3309382,9.2728832 41.3181103,9.34252035 C41.3052824,9.4121575 41.2988686,9.4817936 41.2988686,9.55143076 L41.2988686,9.66688124 L42.0740361,9.66688124 Z M41.2988686,10.1176878 L41.2988686,10.3540865 C41.2988686,10.4420491 41.3052824,10.5272618 41.3181103,10.6097268 C41.3309382,10.6921918 41.3520123,10.765493 41.3813332,10.8296325 C41.4106541,10.893772 41.4491372,10.9450828 41.4967837,10.9835665 C41.5444301,11.0220501 41.603071,11.0412917 41.6727082,11.0412917 C41.8009871,11.0412917 41.8944462,10.9954785 41.9530879,10.9038507 C42.0117297,10.8122229 42.0520454,10.6729507 42.0740361,10.4860299 L42.7557436,10.4860299 C42.7410832,10.8305505 42.6494568,11.0926021 42.4808616,11.2721927 C42.3122664,11.4517831 42.0465497,11.5415771 41.6837035,11.5415771 C41.40882,11.5415771 41.1944141,11.4957639 41.0404794,11.4041361 C40.8865447,11.3125082 40.7729279,11.1915613 40.6996256,11.0412917 C40.6263233,10.8910221 40.5814264,10.7224294 40.5649333,10.5355087 C40.5484404,10.3485879 40.540194,10.1616699 40.540194,9.97474914 C40.540194,9.77683305 40.5539379,9.5862501 40.5814263,9.40299441 C40.6089147,9.21973876 40.6638905,9.05664369 40.7463555,8.91370429 C40.8288206,8.77076488 40.9470188,8.65714809 41.1009534,8.57285049 C41.2548882,8.48855289 41.4601314,8.44640472 41.7166893,8.44640472 C41.9365961,8.44640472 42.1171002,8.48213904 42.258207,8.55360873 C42.3993139,8.62507844 42.5101819,8.72586753 42.5908144,8.85597904 C42.6714469,8.98609055 42.7264228,9.14368804 42.7557436,9.32877625 C42.7850646,9.51386445 42.7997248,9.720024 42.7997248,9.94726095 L42.7997248,10.1176878 L41.2988686,10.1176878 Z M43.195555,8.5233717 L43.9212437,8.5233717 L43.9212437,8.91920192 L43.932239,8.91920192 C44.0092064,8.77626252 44.1026653,8.66172946 44.2126188,8.5755993 C44.3225722,8.48946915 44.4563468,8.44640472 44.6139467,8.44640472 C44.6359373,8.44640472 44.6588439,8.44732098 44.6826671,8.44915354 C44.7064904,8.4509861 44.729397,8.4537349 44.7513877,8.45740001 L44.7513877,9.18308873 C44.7110714,9.17942362 44.6716721,9.17667483 44.6331884,9.17484227 C44.5947047,9.17300971 44.5553053,9.17209345 44.514989,9.17209345 C44.449017,9.17209345 44.383046,9.1812561 44.317074,9.19958166 C44.2511019,9.21790723 44.1906285,9.24814395 44.1356518,9.29029275 C44.080675,9.33244155 44.0366944,9.38741742 44.0037084,9.45522201 C43.9707224,9.5230266 43.9542296,9.60640667 43.9542296,9.70536467 L43.9542296,11.481103 L43.195555,11.481103 L43.195555,8.5233717 Z" id="e-Transfer" fill="#FFFFFF"></path>
                    <g id="interac-seeklogo.com">
                        <path d="M18.8874386,17.3136461 C18.8874386,18.183365 18.1821262,18.8874386 17.313673,18.8874386 L1.57437312,18.8874386 C0.70466903,18.8874386 0,18.183365 0,17.3136461 L0,1.57375666 C0,0.704073481 0.70466903,0 1.57437312,0 L17.313673,0 C18.1821262,0 18.8874386,0.704073481 18.8874386,1.57375666 L18.8874386,17.3136461" id="Fill-1" fill="#E2A42E"></path>
                        <path d="M10.5289374,9.66046038 L10.5274248,6.26877516 L11.3966171,6.05911102 L11.3966171,6.50331231 C11.3966171,6.50331231 11.6213027,5.91883315 12.1433881,5.78289192 C12.3042949,5.7418551 12.3852056,5.76640551 12.3852056,5.76640551 L12.3852056,6.63176299 C12.3852056,6.63176299 12.1879945,6.62337641 11.9299948,6.72849523 C11.609131,6.85787771 11.4473094,7.13940111 11.4473094,7.56958897 L11.4482241,9.44208709 L10.5289374,9.66046038" id="Fill-3" fill="#1A1919"></path>
                        <path d="M5.85720296,10.7751289 C5.85720296,10.7751289 5.71515009,10.5596631 5.71515009,9.7980741 L5.71515009,8.11251867 L5.26371238,8.22055562 L5.26371238,7.52632874 L5.71575367,7.41857801 L5.71575367,6.66196153 L6.64848822,6.44030691 L6.64848822,7.19692333 L7.3072713,7.03951851 L7.3072713,7.73277953 L6.64848822,7.8905421 C6.64848822,7.8905421 6.64756515,9.27119719 6.64848822,9.60682724 C6.64848822,10.3870544 6.85398739,10.5366963 6.85398739,10.5366963 L5.85720296,10.7751289" id="Fill-4" fill="#1A1919"></path>
                        <path d="M7.43112336,8.76182843 C7.43112336,8.16259342 7.5157389,7.72591534 7.69758289,7.39029677 C7.91341441,6.9922193 8.26819915,6.73294728 8.78483104,6.61458162 C9.80286752,6.3812332 10.1698765,6.98855153 10.1554618,7.80254682 C10.150551,8.09368926 10.1517875,8.23584193 10.1517875,8.23584193 L8.35832623,8.66048407 L8.35832623,8.68982623 C8.35832623,9.25907809 8.47699997,9.52889048 8.83450512,9.45225906 C9.14360809,9.38673779 9.22946023,9.19142018 9.25369665,8.95066504 C9.25797159,8.91110304 9.25952612,8.81250058 9.25952612,8.81250058 L10.0999583,8.60949139 C10.0999583,8.60949139 10.1018308,8.67900094 10.1008769,8.75627335 C10.0932102,9.07985598 10.0000094,9.88245619 8.83238533,10.1602808 C7.72637694,10.4251078 7.43112336,9.74397124 7.43112336,8.76182843 M8.82196293,7.24194801 C8.5248369,7.30992638 8.36910186,7.60352586 8.36231848,8.09059122 L9.26471961,7.87394363 C9.26623884,7.85200826 9.26623884,7.80315214 9.26623884,7.72716167 C9.26471961,7.35999314 9.15187533,7.16624246 8.82196293,7.24194801" id="Fill-5" fill="#1A1919"></path>
                        <path d="M15.6083062,6.77030378 C15.5732771,5.7325072 15.8397616,4.90882996 16.9876481,4.6470045 C17.7202572,4.47918707 17.9979182,4.67105558 18.1386054,4.85633526 C18.2737223,5.03351389 18.326105,5.27226039 18.326105,5.60659911 L18.3270334,5.66849102 L17.4280277,5.88376252 C17.4280277,5.88376252 17.4277064,5.76127488 17.4277064,5.75749439 C17.4280277,5.3606877 17.319263,5.21004445 17.0335322,5.28223367 C16.6938474,5.36817666 16.5565524,5.69315417 16.5565524,6.33965278 C16.5565524,6.56932613 16.5578379,6.61026332 16.5578379,6.6411913 C16.5578379,7.29805925 16.6470707,7.59894965 17.0381741,7.51613907 C17.3777873,7.44553404 17.4242785,7.1446076 17.4298488,6.88123398 C17.4304915,6.83964867 17.4323483,6.7071157 17.4323483,6.7071157 L18.3292116,6.49371644 C18.3292116,6.49371644 18.3301043,6.56090104 18.3301043,6.63467445 C18.3276405,7.49583252 17.8776912,8.0389259 17.0335322,8.23673516 C15.8717198,8.5117383 15.6439421,7.8339157 15.6083062,6.77030378" id="Fill-6" fill="#1A1919"></path>
                        <path d="M12.4471316,8.2292317 C12.4471316,7.44323231 12.9081576,7.19452741 13.6009511,6.90780297 C14.2237413,6.65009532 14.2367885,6.5221561 14.2395844,6.29769758 C14.2430254,6.10939347 14.1559244,5.94781059 13.845766,6.02689832 C13.5608058,6.0990995 13.4852108,6.30609061 13.469977,6.47108087 C13.4615896,6.5597811 13.4643854,6.64539669 13.4643854,6.64539669 L12.5908662,6.851778 C12.5908662,6.851778 12.5768511,6.58219827 12.6511917,6.3350715 C12.7908759,5.86499264 13.2055556,5.5487493 13.920429,5.38314927 C14.8493272,5.1689847 15.1594857,5.57676178 15.161027,6.21175918 L15.161027,7.71496415 C15.161027,8.44217673 15.295729,8.54830853 15.295729,8.54830853 L14.4380528,8.7516053 C14.4380528,8.7516053 14.3578338,8.58568244 14.322635,8.44307343 C14.322635,8.44307343 14.1350631,8.91627274 13.487684,9.0687812 C12.8076869,9.22907282 12.4471316,8.80791718 12.4471316,8.2292317 M14.2339927,7.15589814 C14.2339927,7.15589814 14.0554177,7.28756755 13.7773038,7.42300306 C13.4917702,7.5630655 13.3620149,7.73555209 13.3620149,8.000756 C13.3620149,8.23077397 13.5048174,8.38209877 13.7633247,8.31764498 C14.0411159,8.24791863 14.2339927,7.98859694 14.2339927,7.62877465 L14.2339927,7.15589814" id="Fill-7" fill="#1A1919"></path>
                        <path d="M0.968328362,13.1283179 C0.673496266,13.1283179 0.433482196,12.8794568 0.433482196,12.5727608 C0.433482196,12.4651391 0.463184113,12.361322 0.519836464,12.2701619 L0.52565691,12.262553 L0.535745685,12.260029 L1.79585481,11.9517234 L1.79585481,12.943876 L1.77595947,12.9486316 C1.49029898,13.0200745 1.14897387,13.1010285 1.07824662,13.1159535 C1.04304173,13.1245501 1.00536756,13.1283179 0.968328362,13.1283179" id="Fill-8" fill="#1A1919"></path>
                        <path d="M0.968328362,14.4287645 C0.673496266,14.4287645 0.433482196,14.1807484 0.433482196,13.8746252 C0.433482196,13.7656563 0.463184113,13.66181 0.519836464,13.5729296 L0.52565691,13.5630866 L0.535745685,13.5608545 L1.79585481,13.25217 L1.79585481,14.244893 L1.77595947,14.250272 C1.49029898,14.3214421 1.14897387,14.4036994 1.07824662,14.4180067 C1.04304173,14.4252884 1.00536756,14.4287645 0.968328362,14.4287645" id="Fill-9" fill="#1A1919"></path>
                        <path d="M0.968328362,15.667285 C0.673496266,15.667285 0.433482196,15.4187495 0.433482196,15.1124685 C0.433482196,15.0038895 0.463184113,14.8995163 0.519836464,14.8109416 L0.52565691,14.8008115 L1.79585481,14.4906906 L1.79585481,15.4828582 L1.77595947,15.487905 C1.47438976,15.5634604 1.13913202,15.6419049 1.07824662,15.6561675 C1.04304173,15.6631526 1.00536756,15.667285 0.968328362,15.667285" id="Fill-10" fill="#1A1919"></path>
                        <polyline id="Fill-11" fill="#1A1919" points="0.805360559 11.9517234 0.805038364 6.54935957 1.79585481 6.31645486 1.79585481 11.718534 0.805360559 11.9517234"></polyline>
                        <path d="M3.2732316,11.506932 C3.2732316,11.171884 2.99759855,10.898981 2.65888135,10.898981 C2.31825579,10.898981 2.04355892,11.171884 2.04355892,11.506932 L2.04417105,16.5597524 C2.04417105,17.466604 2.79102679,18.2062522 3.70823132,18.2062522 C4.17351288,18.2062522 5.44819422,18.2040798 5.44819422,18.2040798 L5.44884234,16.0961769 C5.4491664,14.9445208 5.44949047,13.7721735 5.44949047,13.7456063 C5.44949047,13.4788286 5.31633683,13.2316025 5.09197765,13.0829179 L3.54072709,12.0409858 C3.54072709,12.0409858 3.54040303,14.3034852 3.54040303,14.4070125 C3.54040303,14.4796632 3.48131565,14.5389946 3.40789751,14.5389946 C3.3350915,14.5389946 3.2763642,14.4796632 3.2763642,14.4070125 C3.2763642,14.3816916 3.2732316,11.8194011 3.2732316,11.506932" id="Fill-12" fill="#1A1919"></path>
                        <path d="M4.1391438,7.71569593 C3.4950207,7.86352791 3.25099646,8.39858484 3.25099646,8.39858484 L3.25099646,8.01605804 L2.35318907,8.22740538 L2.35412624,10.6710795 C2.45862051,10.6296923 2.57309925,10.6069903 2.69294868,10.6069903 C2.92536646,10.6069903 3.13713049,10.692849 3.29951295,10.8354449 L3.29951295,9.25767416 C3.29951295,8.87980971 3.4890733,8.57786961 3.7587255,8.5187297 C3.96205501,8.47422228 4.13161041,8.54673958 4.13161041,8.90656435 L4.13222317,11.208611 L5.0779343,10.9876522 L5.0779343,8.55269302 C5.0779343,7.96222599 4.85016631,7.55011131 4.1391438,7.71569593" id="Fill-13" fill="#1A1919"></path>
                        <path d="M17.741807,4.27289593 C17.417721,4.27289593 17.1535097,4.00886014 17.1535097,3.68503377 C17.1535097,3.36062726 17.417721,3.0963014 17.741807,3.0963014 C18.065893,3.0963014 18.3301043,3.36062726 18.3301043,3.68503377 C18.3301043,4.00886014 18.065893,4.27289593 17.741807,4.27289593 M17.741807,3.17023288 C17.4583996,3.17023288 17.2269199,3.40120073 17.2269199,3.68503377 C17.2269199,3.96890307 17.4583996,4.19925452 17.741807,4.19925452 C18.025541,4.19925452 18.2564401,3.96890307 18.2564401,3.68503377 C18.2564401,3.40120073 18.025541,3.17023288 17.741807,3.17023288" id="Fill-14" fill="#1A1919"></path>
                        <path d="M17.5250659,3.28207949 L17.7838322,3.28207949 C17.8867623,3.28207949 17.9698158,3.32981928 17.9698158,3.45701074 C17.9698158,3.54537063 17.9274763,3.61340328 17.8476739,3.62506307 L17.8476739,3.62623249 C17.9200871,3.63314582 17.9582888,3.67042963 17.9620942,3.76625316 C17.9633872,3.80955604 17.9640523,3.86297095 17.966306,3.90476047 C17.9688551,3.93819208 17.9858501,3.95432318 18.0012564,3.96326579 L17.8694349,3.96326579 C17.8572429,3.95043658 17.8521444,3.93041889 17.8495582,3.90293755 C17.8450509,3.8620767 17.8460484,3.82386422 17.8444597,3.7743015 C17.8425016,3.69997465 17.8181546,3.66747169 17.7376503,3.66747169 L17.6424418,3.66747169 L17.6424418,3.96326579 L17.5250659,3.96326579 L17.5250659,3.28207949 Z M17.7354335,3.58564678 C17.8108024,3.58564678 17.8521444,3.54354771 17.8521444,3.47458641 C17.8521444,3.40208247 17.8191151,3.3644547 17.7418251,3.3644547 L17.6424418,3.3644547 L17.6424418,3.58564678 L17.7354335,3.58564678 Z" id="Fill-15" fill="#1A1919"></path>
                    </g>
                </g>
            </g>
            <path d="M53.1842757,7.52527858 C53.2817421,7.52527858 53.3705048,7.49395057 53.4505664,7.43129362 C53.5306281,7.36863666 53.5706584,7.28509531 53.5706584,7.18066705 C53.5706584,7.06927691 53.5254067,6.98921645 53.4349023,6.94048326 C53.3443978,6.89175007 53.2608564,6.86738384 53.1842757,6.86738384 L52.6934654,6.86738384 L52.6934654,7.52527858 L53.1842757,7.52527858 Z M53.6437578,9.0185952 L53.0694052,7.98476062 L52.6934654,7.98476062 L52.6934654,9.0185952 L52.0564562,9.0185952 L52.0564562,6.34524516 L53.2051613,6.34524516 C53.3304752,6.34524516 53.4523064,6.35916873 53.5706584,6.38701626 C53.6890104,6.41486379 53.796918,6.46011536 53.8943844,6.52277232 C53.9918507,6.58542927 54.0701707,6.67071107 54.1293467,6.77862027 C54.1885227,6.88652947 54.2181104,7.02054373 54.2181104,7.18066705 C54.2181104,7.36167603 54.1676374,7.51135429 54.0666901,7.62970632 C53.9657427,7.74805835 53.8386903,7.83508058 53.6855288,7.89077566 L54.3956375,9.0185952 L53.6437578,9.0185952 Z M50.6884528,7.71324851 C50.6884528,7.38603996 50.7511088,7.07798122 50.8764227,6.78906304 C51.0017366,6.50014486 51.1723003,6.2495208 51.3881186,6.03718335 C51.603937,5.82484589 51.8563016,5.65602274 52.1452198,5.53070882 C52.434138,5.40539492 52.7421966,5.3427389 53.0694052,5.3427389 C53.3966138,5.3427389 53.7046724,5.40539492 53.9935906,5.53070882 C54.2825088,5.65602274 54.5348734,5.82484589 54.7506918,6.03718335 C54.9665102,6.2495208 55.1370738,6.50014486 55.2623877,6.78906304 C55.3877016,7.07798122 55.4503576,7.38603996 55.4503576,7.71324851 C55.4503576,8.04045705 55.3877016,8.34677535 55.2623877,8.63221258 C55.1370738,8.91764982 54.9665102,9.16653344 54.7506918,9.3788709 C54.5348734,9.59120835 54.2825088,9.75829106 53.9935906,9.88012403 C53.7046724,10.001957 53.3966138,10.0628726 53.0694052,10.0628726 C52.7421966,10.0628726 52.434138,10.001957 52.1452198,9.88012403 C51.8563016,9.75829106 51.603937,9.59120835 51.3881186,9.3788709 C51.1723003,9.16653344 51.0017366,8.91764982 50.8764227,8.63221258 C50.7511088,8.34677535 50.6884528,8.04045705 50.6884528,7.71324851 Z M51.0643926,7.71324851 C51.0643926,7.98476197 51.1166061,8.24234781 51.2210343,8.48601375 C51.3254625,8.72967969 51.468179,8.9437544 51.649188,9.12824433 C51.830197,9.31273425 52.0425312,9.45719117 52.2861972,9.56161943 C52.5298631,9.66604769 52.7909299,9.71826104 53.0694052,9.71826104 C53.3478805,9.71826104 53.6089473,9.66604769 53.8526132,9.56161943 C54.0962792,9.45719117 54.3086134,9.31273425 54.4896224,9.12824433 C54.6706314,8.9437544 54.8133479,8.72967969 54.9177762,8.48601375 C55.0222044,8.24234781 55.0744178,7.98476197 55.0744178,7.71324851 C55.0744178,7.43477315 55.0222044,7.17370642 54.9177762,6.93004049 C54.8133479,6.68637455 54.6706314,6.47404028 54.4896224,6.2930313 C54.3086134,6.11202232 54.0962792,5.96930584 53.8526132,5.86487757 C53.6089473,5.76044932 53.3478805,5.70823597 53.0694052,5.70823597 C52.7909299,5.70823597 52.5298631,5.76044932 52.2861972,5.86487757 C52.0425312,5.96930584 51.830197,6.11202232 51.649188,6.2930313 C51.468179,6.47404028 51.3254625,6.68637455 51.2210343,6.93004049 C51.1166061,7.17370642 51.0643926,7.43477315 51.0643926,7.71324851 Z" id="®" fill="#616161" fill-rule="nonzero"></path>
            <path d="M58.4688658,8.95763816 L58.4688658,6.12560691 L57.457426,6.12560691 L57.457426,5.54897 L60.1662244,5.54897 L60.1662244,6.12560691 L59.1571098,6.12560691 L59.1571098,8.95763816 L58.4688658,8.95763816 Z M61.2311426,8.95763816 L60.5777757,8.95763816 L60.5777757,6.48833012 L61.1846396,6.48833012 L61.1846396,6.83942759 C61.2884968,6.67356615 61.3818893,6.56428525 61.46482,6.51158161 C61.5477507,6.45887798 61.6419183,6.43252655 61.7473256,6.43252655 C61.8961359,6.43252655 62.0395186,6.47360377 62.1774781,6.55575944 L61.9751902,7.1254209 C61.8651326,7.05411598 61.7628271,7.01846405 61.6682705,7.01846405 C61.5768142,7.01846405 61.49931,7.04365291 61.4357557,7.09403139 C61.3722013,7.14440986 61.3222111,7.23547728 61.2857836,7.36723637 C61.249356,7.49899546 61.2311426,7.77491036 61.2311426,8.19498935 L61.2311426,8.95763816 Z M62.9471024,7.24167834 L62.3541894,7.13472149 C62.420844,6.89600502 62.5355502,6.71929548 62.6983115,6.60458756 C62.8610727,6.48987965 63.1028858,6.43252655 63.4237579,6.43252655 C63.715178,6.43252655 63.9321897,6.46701591 64.0747996,6.53599567 C64.2174094,6.60497543 64.3177773,6.69255516 64.3759063,6.79873749 C64.4340353,6.90491982 64.4630994,7.09984284 64.4630994,7.38351242 L64.456124,8.14616122 C64.456124,8.3631762 64.466587,8.52322234 64.4875135,8.62630445 C64.5084399,8.72938657 64.5475795,8.83983003 64.6049335,8.95763816 L63.9585421,8.95763816 C63.9414909,8.91423516 63.9205648,8.84990669 63.8957631,8.76465081 C63.8849123,8.72589813 63.8771619,8.70032175 63.8725116,8.6879209 C63.7609039,8.79642838 63.6415475,8.87780778 63.5144387,8.93206152 C63.3873299,8.98631527 63.2516976,9.01344173 63.1075377,9.01344173 C62.8533201,9.01344173 62.6529718,8.94446301 62.5064867,8.80650349 C62.3600016,8.66854397 62.2867601,8.49415955 62.2867601,8.283345 C62.2867601,8.14383538 62.3200869,8.01944116 62.3867415,7.91015862 C62.4533961,7.80087608 62.5467887,7.71717156 62.666922,7.65904255 C62.7870552,7.60091354 62.9602771,7.5501483 63.1865927,7.5067453 C63.4919638,7.44939134 63.7035502,7.39591346 63.8213583,7.34631003 L63.8213583,7.28120587 C63.8213583,7.1556472 63.7903567,7.06612987 63.7283524,7.01265118 C63.6663481,6.95917249 63.5493168,6.93243355 63.3772549,6.93243355 C63.2609969,6.93243355 63.170317,6.95529728 63.1052125,7.00102544 C63.040108,7.04675359 62.9874052,7.12697042 62.9471024,7.24167834 Z M63.8213583,7.77181227 C63.7376526,7.79971419 63.6051204,7.83304099 63.4237579,7.87179367 C63.2423954,7.91054634 63.123814,7.94852339 63.0680101,7.98572596 C62.9827542,8.04618013 62.9401269,8.12290927 62.9401269,8.21591569 C62.9401269,8.307372 62.9742288,8.38642627 63.0424335,8.45308087 C63.1106382,8.51973547 63.1974429,8.55306227 63.3028502,8.55306227 C63.4206583,8.55306227 63.5330393,8.51431017 63.6399967,8.43680483 C63.7190522,8.37790076 63.77098,8.30582187 63.7957817,8.22056599 C63.8128329,8.16476214 63.8213583,8.0585814 63.8213583,7.9020206 L63.8213583,7.77181227 Z M67.3718606,8.95763816 L66.7649967,8.95763816 L66.7649967,8.59491495 C66.6642398,8.73597468 66.5452709,8.84099285 66.4080864,8.90997261 C66.2709019,8.97895237 66.132557,9.01344173 65.9930473,9.01344173 C65.7093778,9.01344173 65.4664021,8.89912306 65.2641132,8.67048228 C65.0618242,8.44184151 64.9606813,8.12291178 64.9606813,7.71368355 C64.9606813,7.29515467 65.0591116,6.97699999 65.2559752,6.75920996 C65.4528387,6.54141993 65.7016272,6.43252655 66.0023479,6.43252655 C66.278267,6.43252655 66.5169798,6.54723275 66.7184938,6.77664858 L66.7184938,5.54897 L67.3718606,5.54897 L67.3718606,8.95763816 Z M65.627999,7.66950572 C65.627999,7.9330239 65.6644259,8.1236842 65.737281,8.24149233 C65.8426882,8.41200409 65.9899462,8.4972587 66.1790592,8.4972587 C66.3294196,8.4972587 66.4573015,8.43331774 66.5627088,8.30543392 C66.6681161,8.17755009 66.7208189,7.98650228 66.7208189,7.73228474 C66.7208189,7.44861516 66.6696661,7.24439164 66.5673591,7.11960803 C66.465052,6.99482442 66.3340699,6.93243355 66.1744089,6.93243355 C66.0193982,6.93243355 65.8895787,6.99404937 65.7849465,7.11728288 C65.6803143,7.24051638 65.627999,7.42458882 65.627999,7.66950572 Z M69.4458933,8.17173786 L70.096935,8.28101986 C70.0132292,8.51973633 69.8810846,8.70148364 69.7004971,8.82626725 C69.5199096,8.95105086 69.2939849,9.01344173 69.0227162,9.01344173 C68.5933366,9.01344173 68.2755694,8.87315916 68.0694052,8.5925898 C67.906644,8.36782429 67.8252646,8.08415897 67.8252646,7.74158533 C67.8252646,7.3323571 67.9322204,7.01187729 68.1461351,6.7801363 C68.3600499,6.54839531 68.6305395,6.43252655 68.9576121,6.43252655 C69.3249874,6.43252655 69.6148531,6.5538206 69.8272177,6.79641234 C70.0395824,7.03900408 70.1411128,7.41063665 70.1318122,7.9113212 L68.4949074,7.9113212 C68.4995578,8.10508456 68.5522606,8.2558302 68.6530176,8.36356264 C68.7537745,8.47129507 68.8793313,8.52516048 69.0296917,8.52516048 C69.1319987,8.52516048 69.2180284,8.49725897 69.2877832,8.44145512 C69.357538,8.38565127 69.4102408,8.29574642 69.4458933,8.17173786 Z M69.4830957,7.5113956 C69.4784454,7.32228255 69.4296177,7.17851229 69.3366113,7.0800805 C69.2436049,6.9816487 69.1304488,6.93243355 68.9971396,6.93243355 C68.8545297,6.93243355 68.7367234,6.98436135 68.643717,7.08821852 C68.5507106,7.19207568 68.5049831,7.3331333 68.5065332,7.5113956 L69.4830957,7.5113956 Z M70.5898665,8.04850497 L70.5898665,7.39513816 L71.8733487,7.39513816 L71.8733487,8.04850497 L70.5898665,8.04850497 Z M72.2011946,6.48833012 L72.8034082,6.48833012 L72.8034082,6.8254767 C73.0188731,6.56350863 73.2754119,6.43252655 73.5730324,6.43252655 C73.7311434,6.43252655 73.8683258,6.46507831 73.9845838,6.5301828 C74.1008418,6.59528729 74.196172,6.69371761 74.2705771,6.8254767 C74.3790846,6.69371761 74.4961159,6.59528729 74.6216746,6.5301828 C74.7472332,6.46507831 74.8813155,6.43252655 75.0239253,6.43252655 C75.2052878,6.43252655 75.3587461,6.46934104 75.4843048,6.54297112 C75.6098634,6.6166012 75.7036435,6.72471954 75.7656478,6.86732938 C75.8106009,6.97273665 75.8330771,7.14324586 75.8330771,7.37886212 L75.8330771,8.95763816 L75.1797103,8.95763816 L75.1797103,7.54627283 C75.1797103,7.30135593 75.1572341,7.14324739 75.112281,7.07194247 C75.0518268,6.97893606 74.9588218,6.93243355 74.8332631,6.93243355 C74.7418068,6.93243355 74.6557771,6.96033505 74.5751716,7.0161389 C74.494566,7.07194275 74.4364379,7.15370967 74.4007854,7.2614421 C74.365133,7.36917454 74.347307,7.53929622 74.347307,7.77181227 L74.347307,8.95763816 L73.6939402,8.95763816 L73.6939402,7.60440155 C73.6939402,7.36413497 73.6823146,7.2091266 73.6590629,7.13937179 C73.6358113,7.06961698 73.5997719,7.01768917 73.5509435,6.98358682 C73.5021152,6.94948447 73.4358491,6.93243355 73.3521433,6.93243355 C73.2513864,6.93243355 73.1607065,6.95956001 73.0801009,7.01381375 C72.9994953,7.0680675 72.9417547,7.14634673 72.9068773,7.24865378 C72.8719999,7.35096084 72.8545615,7.52069501 72.8545615,7.75786137 L72.8545615,8.95763816 L72.2011946,8.95763816 L72.2011946,6.48833012 Z M76.9724,7.24167834 L76.3794871,7.13472149 C76.4461417,6.89600502 76.5608479,6.71929548 76.7236091,6.60458756 C76.8863703,6.48987965 77.1281834,6.43252655 77.4490555,6.43252655 C77.7404756,6.43252655 77.9574873,6.46701591 78.1000972,6.53599567 C78.242707,6.60497543 78.3430749,6.69255516 78.4012039,6.79873749 C78.459333,6.90491982 78.488397,7.09984284 78.488397,7.38351242 L78.4814216,8.14616122 C78.4814216,8.3631762 78.4918846,8.52322234 78.5128111,8.62630445 C78.5337375,8.72938657 78.5728771,8.83983003 78.6302311,8.95763816 L77.9838397,8.95763816 C77.9667886,8.91423516 77.9458624,8.84990669 77.9210607,8.76465081 C77.91021,8.72589813 77.9024596,8.70032175 77.8978092,8.6879209 C77.7862015,8.79642838 77.6668451,8.87780778 77.5397363,8.93206152 C77.4126275,8.98631527 77.2769952,9.01344173 77.1328353,9.01344173 C76.8786177,9.01344173 76.6782694,8.94446301 76.5317843,8.80650349 C76.3852992,8.66854397 76.3120577,8.49415955 76.3120577,8.283345 C76.3120577,8.14383538 76.3453845,8.01944116 76.4120391,7.91015862 C76.4786937,7.80087608 76.5720863,7.71717156 76.6922196,7.65904255 C76.8123529,7.60091354 76.9855747,7.5501483 77.2118903,7.5067453 C77.5172614,7.44939134 77.7288478,7.39591346 77.846656,7.34631003 L77.846656,7.28120587 C77.846656,7.1556472 77.8156543,7.06612987 77.75365,7.01265118 C77.6916457,6.95917249 77.5746144,6.93243355 77.4025525,6.93243355 C77.2862945,6.93243355 77.1956146,6.95529728 77.1305101,7.00102544 C77.0654056,7.04675359 77.0127028,7.12697042 76.9724,7.24167834 Z M77.846656,7.77181227 C77.7629502,7.79971419 77.630418,7.83304099 77.4490555,7.87179367 C77.267693,7.91054634 77.1491116,7.94852339 77.0933077,7.98572596 C77.0080519,8.04618013 76.9654246,8.12290927 76.9654246,8.21591569 C76.9654246,8.307372 76.9995264,8.38642627 77.0677311,8.45308087 C77.1359358,8.51973547 77.2227405,8.55306227 77.3281478,8.55306227 C77.4459559,8.55306227 77.558337,8.51431017 77.6652943,8.43680483 C77.7443498,8.37790076 77.7962776,8.30582187 77.8210793,8.22056599 C77.8381305,8.16476214 77.846656,8.0585814 77.846656,7.9020206 L77.846656,7.77181227 Z M79.7579283,8.95763816 L79.1045615,8.95763816 L79.1045615,6.48833012 L79.7114253,6.48833012 L79.7114253,6.83942759 C79.8152825,6.67356615 79.908675,6.56428525 79.9916057,6.51158161 C80.0745365,6.45887798 80.168704,6.43252655 80.2741113,6.43252655 C80.4229216,6.43252655 80.5663043,6.47360377 80.7042638,6.55575944 L80.5019759,7.1254209 C80.3919183,7.05411598 80.2896128,7.01846405 80.1950563,7.01846405 C80.1035999,7.01846405 80.0260958,7.04365291 79.9625414,7.09403139 C79.898987,7.14440986 79.8489968,7.23547728 79.8125693,7.36723637 C79.7761418,7.49899546 79.7579283,7.77491036 79.7579283,8.19498935 L79.7579283,8.95763816 Z M80.9623554,8.95763816 L80.9623554,5.54897 L81.6157222,5.54897 L81.6157222,7.35793578 L82.3806961,6.48833012 L83.1851976,6.48833012 L82.3411686,7.39048786 L83.2456515,8.95763816 L82.5411314,8.95763816 L81.9203167,7.84854218 L81.6157222,8.16708756 L81.6157222,8.95763816 L80.9623554,8.95763816 Z M84.8058263,7.68810691 C84.8058263,7.47109194 84.8593042,7.26105559 84.9662616,7.05799158 C85.073219,6.85492757 85.2247397,6.6999192 85.4208282,6.59296182 C85.6169167,6.48600444 85.8358661,6.43252655 86.0776827,6.43252655 C86.4512585,6.43252655 86.7574,6.5538206 86.9961165,6.79641234 C87.234833,7.03900408 87.3541894,7.34553313 87.3541894,7.7160087 C87.3541894,8.08958447 87.2336704,8.39921369 86.9926288,8.64490564 C86.7515872,8.8905976 86.4481583,9.01344173 86.082333,9.01344173 C85.8560174,9.01344173 85.6401683,8.96228897 85.4347791,8.85998191 C85.2293899,8.75767485 85.073219,8.60770425 84.9662616,8.41006561 C84.8593042,8.21242698 84.8058263,7.97177648 84.8058263,7.68810691 Z M85.4754692,7.72298414 C85.4754692,7.96790104 85.5335973,8.15546117 85.6498554,8.28567015 C85.7661134,8.41587914 85.9094961,8.48098265 86.0800079,8.48098265 C86.2505197,8.48098265 86.3935149,8.41587914 86.5089978,8.28567015 C86.6244808,8.15546117 86.6822214,7.96635096 86.6822214,7.71833384 C86.6822214,7.47651716 86.6244808,7.29050711 86.5089978,7.16029813 C86.3935149,7.03008915 86.2505197,6.96498563 86.0800079,6.96498563 C85.9094961,6.96498563 85.7661134,7.03008915 85.6498554,7.16029813 C85.5335973,7.29050711 85.4754692,7.47806724 85.4754692,7.72298414 Z M87.5797289,6.48833012 L87.9424521,6.48833012 L87.9424521,6.30231822 C87.9424521,6.09460389 87.9645408,5.93959552 88.0087188,5.83728846 C88.0528969,5.7349814 88.1342763,5.6516644 88.2528595,5.58733496 C88.3714426,5.52300552 88.5214132,5.49084128 88.7027757,5.49084128 C88.8887886,5.49084128 89.0709234,5.51874279 89.2491857,5.57454664 L89.1608301,6.03027581 C89.0569729,6.0054741 88.9569925,5.99307343 88.8608859,5.99307343 C88.7663293,5.99307343 88.6985132,6.01516212 88.6574353,6.05934017 C88.6163575,6.10351822 88.5958189,6.1883853 88.5958189,6.31394396 L88.5958189,6.48833012 L89.0841002,6.48833012 L89.0841002,7.00218801 L88.5958189,7.00218801 L88.5958189,8.95763816 L87.9424521,8.95763816 L87.9424521,7.00218801 L87.5797289,7.00218801 L87.5797289,6.48833012 Z M90.7582073,8.95763816 L90.7582073,5.54897 L91.4464513,5.54897 L91.4464513,8.95763816 L90.7582073,8.95763816 Z M94.3435868,8.95763816 L93.6902199,8.95763816 L93.6902199,7.6974075 C93.6902199,7.43078911 93.6762692,7.2583423 93.6483673,7.18006189 C93.6204653,7.10178149 93.5751254,7.04094071 93.5123461,6.99753771 C93.4495667,6.95413472 93.3740001,6.93243355 93.2856441,6.93243355 C93.1724862,6.93243355 93.0709558,6.96343522 92.9810496,7.0254395 C92.8911434,7.08744378 92.8295275,7.16959821 92.7962002,7.27190527 C92.7628729,7.37421233 92.7462095,7.56332254 92.7462095,7.83924158 L92.7462095,8.95763816 L92.0928427,8.95763816 L92.0928427,6.48833012 L92.6997066,6.48833012 L92.6997066,6.85105334 C92.9151714,6.57203409 93.1864361,6.43252655 93.5135086,6.43252655 C93.6576686,6.43252655 93.7894257,6.45849045 93.9087839,6.51041904 C94.0281422,6.56234762 94.1184345,6.6286137 94.1796638,6.70921926 C94.240893,6.78982482 94.2835203,6.88127976 94.307547,6.98358682 C94.3315736,7.08589388 94.3435868,7.23237679 94.3435868,7.42303995 L94.3435868,8.95763816 Z M96.1386016,6.48833012 L96.1386016,7.00916346 L95.6921731,7.00916346 L95.6921731,8.00432715 C95.6921731,8.20584105 95.6964358,8.32325989 95.7049614,8.35658719 C95.713487,8.38991449 95.732863,8.41742848 95.7630901,8.43912997 C95.7933172,8.46083147 95.8301317,8.47168206 95.8735347,8.47168206 C95.9339888,8.47168206 96.0215686,8.45075593 96.1362765,8.40890304 L96.1920801,8.91578548 C96.0401696,8.98088997 95.8681103,9.01344173 95.675897,9.01344173 C95.5580889,9.01344173 95.4519082,8.99367816 95.3573516,8.95415044 C95.2627951,8.91462271 95.1934289,8.86346995 95.1492508,8.80069061 C95.1050728,8.73791128 95.0744586,8.6530442 95.0574074,8.54608682 C95.0434565,8.47013158 95.0364811,8.31667329 95.0364811,8.08570736 L95.0364811,7.00916346 L94.7365369,7.00916346 L94.7365369,6.48833012 L95.0364811,6.48833012 L95.0364811,5.99772372 L95.6921731,5.61639932 L95.6921731,6.48833012 L96.1386016,6.48833012 Z M98.0219722,8.17173786 L98.6730138,8.28101986 C98.5893081,8.51973633 98.4571634,8.70148364 98.276576,8.82626725 C98.0959885,8.95105086 97.8700638,9.01344173 97.5987951,9.01344173 C97.1694155,9.01344173 96.8516483,8.87315916 96.6454841,8.5925898 C96.4827229,8.36782429 96.4013435,8.08415897 96.4013435,7.74158533 C96.4013435,7.3323571 96.5082992,7.01187729 96.722214,6.7801363 C96.9361288,6.54839531 97.2066184,6.43252655 97.5336909,6.43252655 C97.9010663,6.43252655 98.1909319,6.5538206 98.4032966,6.79641234 C98.6156612,7.03900408 98.7171917,7.41063665 98.7078911,7.9113212 L97.0709863,7.9113212 C97.0756366,8.10508456 97.1283395,8.2558302 97.2290964,8.36356264 C97.3298534,8.47129507 97.4554102,8.52516048 97.6057705,8.52516048 C97.7080776,8.52516048 97.7941072,8.49725897 97.8638621,8.44145512 C97.9336169,8.38565127 97.9863197,8.29574642 98.0219722,8.17173786 Z M98.0591746,7.5113956 C98.0545242,7.32228255 98.0056966,7.17851229 97.9126902,7.0800805 C97.8196838,6.9816487 97.7065277,6.93243355 97.5732185,6.93243355 C97.4306086,6.93243355 97.3128023,6.98436135 97.2197958,7.08821852 C97.1267894,7.19207568 97.0810619,7.3331333 97.0826121,7.5113956 L98.0591746,7.5113956 Z M99.8658152,8.95763816 L99.2124484,8.95763816 L99.2124484,6.48833012 L99.8193122,6.48833012 L99.8193122,6.83942759 C99.9231694,6.67356615 100.016562,6.56428525 100.099493,6.51158161 C100.182423,6.45887798 100.276591,6.43252655 100.381998,6.43252655 C100.530808,6.43252655 100.674191,6.47360377 100.812151,6.55575944 L100.609863,7.1254209 C100.499805,7.05411598 100.3975,7.01846405 100.302943,7.01846405 C100.211487,7.01846405 100.133983,7.04365291 100.070428,7.09403139 C100.006874,7.14440986 99.9568837,7.23547728 99.9204562,7.36723637 C99.8840287,7.49899546 99.8658152,7.77491036 99.8658152,8.19498935 L99.8658152,8.95763816 Z M101.581775,7.24167834 L100.988862,7.13472149 C101.055517,6.89600502 101.170223,6.71929548 101.332984,6.60458756 C101.495745,6.48987965 101.737558,6.43252655 102.058431,6.43252655 C102.349851,6.43252655 102.566862,6.46701591 102.709472,6.53599567 C102.852082,6.60497543 102.95245,6.69255516 103.010579,6.79873749 C103.068708,6.90491982 103.097772,7.09984284 103.097772,7.38351242 L103.090797,8.14616122 C103.090797,8.3631762 103.10126,8.52322234 103.122186,8.62630445 C103.143113,8.72938657 103.182252,8.83983003 103.239606,8.95763816 L102.593215,8.95763816 C102.576164,8.91423516 102.555237,8.84990669 102.530436,8.76465081 C102.519585,8.72589813 102.511835,8.70032175 102.507184,8.6879209 C102.395577,8.79642838 102.27622,8.87780778 102.149111,8.93206152 C102.022003,8.98631527 101.88637,9.01344173 101.74221,9.01344173 C101.487993,9.01344173 101.287644,8.94446301 101.141159,8.80650349 C100.994674,8.66854397 100.921433,8.49415955 100.921433,8.283345 C100.921433,8.14383538 100.95476,8.01944116 101.021414,7.91015862 C101.088069,7.80087608 101.181461,7.71717156 101.301595,7.65904255 C101.421728,7.60091354 101.59495,7.5501483 101.821265,7.5067453 C102.126636,7.44939134 102.338223,7.39591346 102.456031,7.34631003 L102.456031,7.28120587 C102.456031,7.1556472 102.425029,7.06612987 102.363025,7.01265118 C102.301021,6.95917249 102.183989,6.93243355 102.011928,6.93243355 C101.89567,6.93243355 101.80499,6.95529728 101.739885,7.00102544 C101.674781,7.04675359 101.622078,7.12697042 101.581775,7.24167834 Z M102.456031,7.77181227 C102.372325,7.79971419 102.239793,7.83304099 102.058431,7.87179367 C101.877068,7.91054634 101.758487,7.94852339 101.702683,7.98572596 C101.617427,8.04618013 101.5748,8.12290927 101.5748,8.21591569 C101.5748,8.307372 101.608901,8.38642627 101.677106,8.45308087 C101.745311,8.51973547 101.832115,8.55306227 101.937523,8.55306227 C102.055331,8.55306227 102.167712,8.51431017 102.274669,8.43680483 C102.353725,8.37790076 102.405653,8.30582187 102.430454,8.22056599 C102.447505,8.16476214 102.456031,8.0585814 102.456031,7.9020206 L102.456031,7.77181227 Z M105.894926,7.21842685 L105.25086,7.33468429 C105.229158,7.20602541 105.179943,7.10914518 105.103213,7.04404069 C105.026483,6.9789362 104.92689,6.94638444 104.804431,6.94638444 C104.64167,6.94638444 104.511851,7.00257497 104.414969,7.11495773 C104.318087,7.22734048 104.269647,7.41528813 104.269647,7.67880631 C104.269647,7.97177653 104.318862,8.1787127 104.417294,8.29962105 C104.515726,8.42052939 104.64787,8.48098265 104.813732,8.48098265 C104.93774,8.48098265 105.039271,8.44571825 105.118326,8.37518838 C105.197382,8.30465852 105.253185,8.18336447 105.285737,8.01130259 L105.927478,8.12058459 C105.860824,8.41510491 105.732942,8.63754192 105.543829,8.7879023 C105.354716,8.93826267 105.101277,9.01344173 104.783505,9.01344173 C104.42233,9.01344173 104.134402,8.89951058 103.919712,8.67164486 C103.705022,8.44377913 103.597679,8.1283371 103.597679,7.72530929 C103.597679,7.31763116 103.70541,7.00025152 103.920875,6.77316085 C104.13634,6.54607018 104.427755,6.43252655 104.795131,6.43252655 C105.095851,6.43252655 105.334952,6.49724255 105.512439,6.62667648 C105.689926,6.75611041 105.817421,6.95335856 105.894926,7.21842685 Z M109.898832,7.70438295 L110.56615,7.91597149 C110.463843,8.28799716 110.293721,8.56429958 110.05578,8.74488704 C109.817838,8.9254745 109.51596,9.01576688 109.150134,9.01576688 C108.697503,9.01576688 108.325483,8.86114603 108.034063,8.55189969 C107.742643,8.24265335 107.596935,7.81986802 107.596935,7.28353102 C107.596935,6.71619187 107.743418,6.27558058 108.036388,5.96168392 C108.329358,5.64778726 108.714554,5.49084128 109.191987,5.49084128 C109.608966,5.49084128 109.947659,5.61407294 110.208077,5.86053995 C110.363088,6.00625 110.479344,6.2155113 110.556849,6.48833012 L109.875581,6.65109054 C109.835278,6.47437835 109.751186,6.33487081 109.623302,6.23256375 C109.495418,6.1302567 109.340022,6.07910393 109.15711,6.07910393 C108.904442,6.07910393 108.699444,6.16978383 108.542108,6.35114634 C108.384772,6.53250886 108.306105,6.82624972 108.306105,7.23237774 C108.306105,7.66330748 108.38361,7.97022405 108.53862,8.15313667 C108.693631,8.33604929 108.895142,8.42750423 109.143159,8.42750423 C109.326072,8.42750423 109.483405,8.36937609 109.615164,8.25311807 C109.746923,8.13686005 109.841478,7.95395017 109.898832,7.70438295 Z M111.000953,7.68810691 C111.000953,7.47109194 111.054431,7.26105559 111.161388,7.05799158 C111.268345,6.85492757 111.419866,6.6999192 111.615955,6.59296182 C111.812043,6.48600444 112.030993,6.43252655 112.272809,6.43252655 C112.646385,6.43252655 112.952527,6.5538206 113.191243,6.79641234 C113.429959,7.03900408 113.549316,7.34553313 113.549316,7.7160087 C113.549316,8.08958447 113.428797,8.39921369 113.187755,8.64490564 C112.946714,8.8905976 112.643285,9.01344173 112.27746,9.01344173 C112.051144,9.01344173 111.835295,8.96228897 111.629906,8.85998191 C111.424516,8.75767485 111.268345,8.60770425 111.161388,8.41006561 C111.054431,8.21242698 111.000953,7.97177648 111.000953,7.68810691 Z M111.670596,7.72298414 C111.670596,7.96790104 111.728724,8.15546117 111.844982,8.28567015 C111.96124,8.41587914 112.104623,8.48098265 112.275134,8.48098265 C112.445646,8.48098265 112.588641,8.41587914 112.704124,8.28567015 C112.819607,8.15546117 112.877348,7.96635096 112.877348,7.71833384 C112.877348,7.47651716 112.819607,7.29050711 112.704124,7.16029813 C112.588641,7.03008915 112.445646,6.96498563 112.275134,6.96498563 C112.104623,6.96498563 111.96124,7.03008915 111.844982,7.16029813 C111.728724,7.29050711 111.670596,7.47806724 111.670596,7.72298414 Z M114.686314,8.95763816 L114.032947,8.95763816 L114.032947,6.48833012 L114.639811,6.48833012 L114.639811,6.83942759 C114.743668,6.67356615 114.83706,6.56428525 114.919991,6.51158161 C115.002922,6.45887798 115.097089,6.43252655 115.202497,6.43252655 C115.351307,6.43252655 115.49469,6.47360377 115.632649,6.55575944 L115.430361,7.1254209 C115.320304,7.05411598 115.217998,7.01846405 115.123442,7.01846405 C115.031985,7.01846405 114.954481,7.04365291 114.890927,7.09403139 C114.827372,7.14440986 114.777382,7.23547728 114.740955,7.36723637 C114.704527,7.49899546 114.686314,7.77491036 114.686314,8.19498935 L114.686314,8.95763816 Z M115.895391,6.48833012 L116.50458,6.48833012 L116.50458,6.85105334 C116.583636,6.72704478 116.690591,6.62628934 116.825451,6.54878399 C116.96031,6.47127864 117.109893,6.43252655 117.274204,6.43252655 C117.560974,6.43252655 117.804337,6.54490762 118.004301,6.76967313 C118.204265,6.99443864 118.304245,7.30755555 118.304245,7.70903325 C118.304245,8.1213617 118.20349,8.44184151 118.001976,8.67048228 C117.800462,8.89912306 117.556324,9.01344173 117.269554,9.01344173 C117.133145,9.01344173 117.009525,8.98631527 116.898693,8.93206152 C116.78786,8.87780778 116.671216,8.78480276 116.548758,8.65304367 L116.548758,9.89699828 L115.895391,9.89699828 L115.895391,6.48833012 Z M116.541782,7.68113146 C116.541782,7.95860061 116.59681,8.16359918 116.706868,8.29613332 C116.816926,8.42866747 116.951008,8.49493355 117.109119,8.49493355 C117.261029,8.49493355 117.387361,8.43409276 117.488118,8.31240936 C117.588875,8.19072597 117.639253,7.99115269 117.639253,7.71368355 C117.639253,7.45481568 117.587325,7.2626053 117.483468,7.13704664 C117.379611,7.01148798 117.250954,6.94870959 117.097493,6.94870959 C116.937832,6.94870959 116.8053,7.01032542 116.699893,7.13355892 C116.594485,7.25679242 116.541782,7.43931478 116.541782,7.68113146 Z M118.822753,8.95763816 L118.822753,8.30427134 L119.47612,8.30427134 L119.47612,8.95763816 L118.822753,8.95763816 Z M57.6969164,11.2632557 L58.3851604,11.2632557 L58.3851604,13.1094239 C58.3851604,13.4023941 58.3936859,13.5922793 58.4107371,13.6790853 C58.4401891,13.818595 58.5103304,13.9305885 58.621163,14.0150693 C58.7319957,14.0995502 58.8835164,14.1417899 59.0757296,14.1417899 C59.2710431,14.1417899 59.418301,14.1018753 59.5175079,14.0220448 C59.6167147,13.9422143 59.676393,13.8441715 59.6965443,13.7279135 C59.7166957,13.6116554 59.7267713,13.41867 59.7267713,13.1489514 L59.7267713,11.2632557 L60.4150153,11.2632557 L60.4150153,13.0536203 C60.4150153,13.4628485 60.3964143,13.7519391 60.3592118,13.9209008 C60.3220092,14.0898625 60.253418,14.2324702 60.1534361,14.3487282 C60.0534542,14.4649862 59.9197595,14.5576037 59.7523479,14.6265835 C59.5849364,14.6955632 59.3663746,14.7300526 59.096656,14.7300526 C58.7711335,14.7300526 58.5242827,14.6924631 58.3560961,14.6172829 C58.1879095,14.5421027 58.0549898,14.4444474 57.957333,14.3243141 C57.8596763,14.2041808 57.7953478,14.0782365 57.7643457,13.9464774 C57.7193926,13.751164 57.6969164,13.4628484 57.6969164,13.0815221 L57.6969164,11.2632557 Z M60.9056217,13.9674038 L61.5613137,13.8674224 C61.5892156,13.9945312 61.6457937,14.0910239 61.7310496,14.1569034 C61.8163054,14.222783 61.9356619,14.2557222 62.0891225,14.2557222 C62.2580841,14.2557222 62.385191,14.2247206 62.4704469,14.1627163 C62.5278008,14.1193133 62.5564774,14.0611852 62.5564774,13.9883301 C62.5564774,13.9387267 62.5409765,13.8976495 62.5099744,13.8650972 C62.4774222,13.8340951 62.4045682,13.8054185 62.2914104,13.7790667 C61.7643741,13.6628087 61.430331,13.556628 61.2892713,13.4605213 C61.0939578,13.3272121 60.9963025,13.1419771 60.9963025,12.9048108 C60.9963025,12.690896 61.0807821,12.5110863 61.2497438,12.3653763 C61.4187054,12.2196662 61.6806696,12.1468123 62.0356441,12.1468123 C62.3735674,12.1468123 62.6246809,12.2018402 62.7889923,12.3118978 C62.9533036,12.4219554 63.0664597,12.5847142 63.128464,12.8001791 L62.5122996,12.9141114 C62.4859477,12.8180047 62.4359575,12.7443758 62.3623275,12.6932222 C62.2886974,12.6420687 62.1836792,12.6164923 62.0472698,12.6164923 C61.8752079,12.6164923 61.7519763,12.6405186 61.6775711,12.6885719 C61.6279677,12.7226743 61.6031664,12.7668517 61.6031664,12.8211054 C61.6031664,12.8676086 61.6248675,12.9071358 61.6682705,12.939688 C61.7271746,12.983091 61.9306231,13.0443193 62.2786221,13.1233748 C62.6266211,13.2024302 62.8695967,13.2993105 63.0075563,13.4140184 C63.1439657,13.5302764 63.2121693,13.6922601 63.2121693,13.8999745 C63.2121693,14.1262901 63.1176142,14.3208256 62.9285012,14.4835868 C62.7393881,14.6463481 62.459598,14.7277274 62.0891225,14.7277274 C61.7527493,14.7277274 61.4865224,14.6595238 61.2904339,14.5231143 C61.0943453,14.3867049 60.9660759,14.2014699 60.9056217,13.9674038 Z M65.2141225,13.8860236 L65.8651641,13.9953056 C65.7814584,14.234022 65.6493137,14.4157694 65.4687263,14.540553 C65.2881388,14.6653366 65.0622141,14.7277274 64.7909454,14.7277274 C64.3615658,14.7277274 64.0437986,14.5874449 63.8376344,14.3068755 C63.6748731,14.08211 63.5934938,13.7984447 63.5934938,13.455871 C63.5934938,13.0466428 63.7004495,12.726163 63.9143643,12.494422 C64.128279,12.262681 64.3987687,12.1468123 64.7258412,12.1468123 C65.0932166,12.1468123 65.3830822,12.2681063 65.5954469,12.5106981 C65.8078115,12.7532898 65.909342,13.1249224 65.9000414,13.6256069 L64.2631366,13.6256069 C64.2677869,13.8193703 64.3204898,13.9701159 64.4212467,14.0778484 C64.5220037,14.1855808 64.6475605,14.2394462 64.7979208,14.2394462 C64.9002279,14.2394462 64.9862575,14.2115447 65.0560124,14.1557408 C65.1257672,14.099937 65.17847,14.0100321 65.2141225,13.8860236 Z M65.2513249,13.2256813 C65.2466745,13.0365683 65.1978469,12.892798 65.1048405,12.7943662 C65.0118341,12.6959344 64.898678,12.6467193 64.7653688,12.6467193 C64.6227589,12.6467193 64.5049526,12.6986471 64.4119461,12.8025042 C64.3189397,12.9063614 64.2732122,13.047419 64.2747624,13.2256813 L65.2513249,13.2256813 Z M68.6971954,14.6719239 L68.0903316,14.6719239 L68.0903316,14.3092007 C67.9895746,14.4502604 67.8706057,14.5552786 67.7334212,14.6242583 C67.5962367,14.6932381 67.4578918,14.7277274 67.3183821,14.7277274 C67.0347126,14.7277274 66.791737,14.6134088 66.589448,14.384768 C66.387159,14.1561272 66.2860161,13.8371975 66.2860161,13.4279693 C66.2860161,13.0094404 66.3844464,12.6912857 66.58131,12.4734957 C66.7781736,12.2557056 67.026962,12.1468123 67.3276827,12.1468123 C67.6036018,12.1468123 67.8423147,12.2615185 68.0438286,12.4909343 L68.0438286,11.2632557 L68.6971954,11.2632557 L68.6971954,14.6719239 Z M66.9533338,13.3837914 C66.9533338,13.6473096 66.9897608,13.8379699 67.0626158,13.955778 C67.1680231,14.1262898 67.315281,14.2115444 67.5043941,14.2115444 C67.6547544,14.2115444 67.7826363,14.1476035 67.8880436,14.0197196 C67.9934509,13.8918358 68.0461537,13.700788 68.0461537,13.4465705 C68.0461537,13.1629009 67.995001,12.9586773 67.8926939,12.8338937 C67.7903868,12.7091101 67.6594048,12.6467193 67.4997438,12.6467193 C67.3447331,12.6467193 67.2149135,12.7083351 67.1102813,12.8315686 C67.0056491,12.9548021 66.9533338,13.1388745 66.9533338,13.3837914 Z M72.2895503,14.6719239 L72.2895503,14.3022252 C72.1996441,14.4339843 72.0814502,14.5378399 71.9349651,14.6137952 C71.78848,14.6897504 71.6338592,14.7277274 71.4710979,14.7277274 C71.3052365,14.7277274 71.1564284,14.6913005 71.0246693,14.6184455 C70.8929103,14.5455904 70.7975801,14.4432849 70.738676,14.3115258 C70.679772,14.1797667 70.6503204,13.9976319 70.6503204,13.7651158 L70.6503204,12.2026158 L71.3036872,12.2026158 L71.3036872,13.3372885 C71.3036872,13.6845124 71.3157004,13.8972614 71.339727,13.9755418 C71.3637537,14.0538222 71.4075435,14.1158256 71.4710979,14.1615537 C71.5346523,14.2072819 71.6152567,14.2301456 71.7129134,14.2301456 C71.8245211,14.2301456 71.9245015,14.1995314 72.0128576,14.1383022 C72.1012137,14.077073 72.161667,14.0011189 72.1942192,13.9104376 C72.2267714,13.8197564 72.2430473,13.5977069 72.2430473,13.2442825 L72.2430473,12.2026158 L72.8964141,12.2026158 L72.8964141,14.6719239 L72.2895503,14.6719239 Z M75.8191262,14.6719239 L75.1657594,14.6719239 L75.1657594,13.4116932 C75.1657594,13.1450748 75.1518086,12.972628 75.1239067,12.8943476 C75.0960048,12.8160672 75.0506648,12.7552264 74.9878855,12.7118234 C74.9251062,12.6684204 74.8495396,12.6467193 74.7611835,12.6467193 C74.6480257,12.6467193 74.5464952,12.6777209 74.456589,12.7397252 C74.3666828,12.8017295 74.305067,12.8838839 74.2717397,12.986191 C74.2384124,13.088498 74.221749,13.2776083 74.221749,13.5535273 L74.221749,14.6719239 L73.5683821,14.6719239 L73.5683821,12.2026158 L74.175246,12.2026158 L74.175246,12.5653391 C74.3907109,12.2863198 74.6619755,12.1468123 74.9890481,12.1468123 C75.133208,12.1468123 75.2649651,12.1727762 75.3843234,12.2247048 C75.5036816,12.2766333 75.593974,12.3428994 75.6552032,12.423505 C75.7164324,12.5041105 75.7590597,12.5955655 75.7830864,12.6978725 C75.807113,12.8001796 75.8191262,12.9466625 75.8191262,13.1373257 L75.8191262,14.6719239 Z M78.7464885,14.6719239 L78.1396247,14.6719239 L78.1396247,14.3092007 C78.0388678,14.4502604 77.9198988,14.5552786 77.7827144,14.6242583 C77.6455299,14.6932381 77.5071849,14.7277274 77.3676753,14.7277274 C77.0840057,14.7277274 76.8410301,14.6134088 76.6387411,14.384768 C76.4364522,14.1561272 76.3353092,13.8371975 76.3353092,13.4279693 C76.3353092,13.0094404 76.4337395,12.6912857 76.6306031,12.4734957 C76.8274667,12.2557056 77.0762551,12.1468123 77.3769759,12.1468123 C77.6528949,12.1468123 77.8916078,12.2615185 78.0931217,12.4909343 L78.0931217,11.2632557 L78.7464885,11.2632557 L78.7464885,14.6719239 Z M77.0026269,13.3837914 C77.0026269,13.6473096 77.0390539,13.8379699 77.1119089,13.955778 C77.2173162,14.1262898 77.3645742,14.2115444 77.5536872,14.2115444 C77.7040476,14.2115444 77.8319295,14.1476035 77.9373368,14.0197196 C78.042744,13.8918358 78.0954469,13.700788 78.0954469,13.4465705 C78.0954469,13.1629009 78.0442941,12.9586773 77.9419871,12.8338937 C77.83968,12.7091101 77.7086979,12.6467193 77.5490369,12.6467193 C77.3940262,12.6467193 77.2642067,12.7083351 77.1595745,12.8315686 C77.0549423,12.9548021 77.0026269,13.1388745 77.0026269,13.3837914 Z M80.8205213,13.8860236 L81.4715629,13.9953056 C81.3878572,14.234022 81.2557125,14.4157694 81.0751251,14.540553 C80.8945376,14.6653366 80.6686129,14.7277274 80.3973442,14.7277274 C79.9679646,14.7277274 79.6501974,14.5874449 79.4440332,14.3068755 C79.281272,14.08211 79.1998926,13.7984447 79.1998926,13.455871 C79.1998926,13.0466428 79.3068483,12.726163 79.5207631,12.494422 C79.7346779,12.262681 80.0051675,12.1468123 80.33224,12.1468123 C80.6996154,12.1468123 80.989481,12.2681063 81.2018457,12.5106981 C81.4142103,12.7532898 81.5157408,13.1249224 81.5064402,13.6256069 L79.8695354,13.6256069 C79.8741857,13.8193703 79.9268886,13.9701159 80.0276455,14.0778484 C80.1284025,14.1855808 80.2539593,14.2394462 80.4043196,14.2394462 C80.5066267,14.2394462 80.5926564,14.2115447 80.6624112,14.1557408 C80.732166,14.099937 80.7848688,14.0100321 80.8205213,13.8860236 Z M80.8577237,13.2256813 C80.8530733,13.0365683 80.8042457,12.892798 80.7112393,12.7943662 C80.6182329,12.6959344 80.5050768,12.6467193 80.3717676,12.6467193 C80.2291577,12.6467193 80.1113514,12.6986471 80.0183449,12.8025042 C79.9253385,12.9063614 79.8796111,13.047419 79.8811612,13.2256813 L80.8577237,13.2256813 Z M82.6643643,14.6719239 L82.0109975,14.6719239 L82.0109975,12.2026158 L82.6178613,12.2026158 L82.6178613,12.5537133 C82.7217185,12.3878519 82.815111,12.278571 82.8980417,12.2258673 C82.9809725,12.1731637 83.0751401,12.1468123 83.1805473,12.1468123 C83.3293576,12.1468123 83.4727403,12.1878895 83.6106999,12.2700452 L83.4084119,12.8397066 C83.2983543,12.7684017 83.1960488,12.7327498 83.1014923,12.7327498 C83.010036,12.7327498 82.9325318,12.7579386 82.8689774,12.8083171 C82.805423,12.8586956 82.7554328,12.949763 82.7190053,13.0815221 C82.6825778,13.2132812 82.6643643,13.4891961 82.6643643,13.9092751 L82.6643643,14.6719239 Z M85.2150525,14.6719239 L85.2150525,11.2632557 L85.8684193,11.2632557 L85.8684193,14.6719239 L85.2150525,14.6719239 Z M86.5380622,11.8677944 L86.5380622,11.2632557 L87.191429,11.2632557 L87.191429,11.8677944 L86.5380622,11.8677944 Z M86.5380622,14.6719239 L86.5380622,12.2026158 L87.191429,12.2026158 L87.191429,14.6719239 L86.5380622,14.6719239 Z M90.0141597,12.9327126 L89.3700935,13.04897 C89.348392,12.9203111 89.2991768,12.8234309 89.2224465,12.7583264 C89.1457162,12.6932219 89.0461233,12.6606702 88.9236649,12.6606702 C88.7609037,12.6606702 88.6310841,12.7168607 88.5342025,12.8292434 C88.4373208,12.9416262 88.3888807,13.1295738 88.3888807,13.393092 C88.3888807,13.6860622 88.4380958,13.8929984 88.5365276,14.0139068 C88.6349594,14.1348151 88.767104,14.1952684 88.9329655,14.1952684 C89.056974,14.1952684 89.1585045,14.160004 89.23756,14.0894741 C89.3166154,14.0189442 89.3724184,13.8976502 89.4049707,13.7255883 L90.0467118,13.8348703 C89.9800572,14.1293906 89.8521753,14.3518276 89.6630622,14.502188 C89.4739492,14.6525484 89.2205105,14.7277274 88.9027385,14.7277274 C88.5415636,14.7277274 88.2536356,14.6137963 88.0389458,14.3859306 C87.8242559,14.1580648 87.7169127,13.8426228 87.7169127,13.439595 C87.7169127,13.0319169 87.8246435,12.7145372 88.0401083,12.4874466 C88.2555732,12.2603559 88.5469889,12.1468123 88.9143643,12.1468123 C89.215085,12.1468123 89.4541855,12.2115283 89.6316727,12.3409622 C89.8091599,12.4703961 89.9366543,12.6676443 90.0141597,12.9327126 Z M91.9393829,13.8860236 L92.5904246,13.9953056 C92.5067188,14.234022 92.3745741,14.4157694 92.1939867,14.540553 C92.0133992,14.6653366 91.7874745,14.7277274 91.5162058,14.7277274 C91.0868262,14.7277274 90.769059,14.5874449 90.5628948,14.3068755 C90.4001336,14.08211 90.3187542,13.7984447 90.3187542,13.455871 C90.3187542,13.0466428 90.4257099,12.726163 90.6396247,12.494422 C90.8535395,12.262681 91.1240291,12.1468123 91.4511016,12.1468123 C91.818477,12.1468123 92.1083426,12.2681063 92.3207073,12.5106981 C92.5330719,12.7532898 92.6346024,13.1249224 92.6253018,13.6256069 L90.988397,13.6256069 C90.9930473,13.8193703 91.0457502,13.9701159 91.1465071,14.0778484 C91.2472641,14.1855808 91.3728209,14.2394462 91.5231813,14.2394462 C91.6254883,14.2394462 91.711518,14.2115447 91.7812728,14.1557408 C91.8510276,14.099937 91.9037304,14.0100321 91.9393829,13.8860236 Z M91.9765853,13.2256813 C91.971935,13.0365683 91.9231073,12.892798 91.8301009,12.7943662 C91.7370945,12.6959344 91.6239384,12.6467193 91.4906292,12.6467193 C91.3480193,12.6467193 91.230213,12.6986471 91.1372066,12.8025042 C91.0442001,12.9063614 90.9984727,13.047419 91.0000228,13.2256813 L91.9765853,13.2256813 Z M95.4038546,14.6719239 L94.7504878,14.6719239 L94.7504878,13.4116932 C94.7504878,13.1450748 94.736537,12.972628 94.7086351,12.8943476 C94.6807332,12.8160672 94.6353932,12.7552264 94.5726139,12.7118234 C94.5098346,12.6684204 94.434268,12.6467193 94.3459119,12.6467193 C94.2327541,12.6467193 94.1312236,12.6777209 94.0413174,12.7397252 C93.9514112,12.8017295 93.8897954,12.8838839 93.8564681,12.986191 C93.8231408,13.088498 93.8064774,13.2776083 93.8064774,13.5535273 L93.8064774,14.6719239 L93.1531106,14.6719239 L93.1531106,12.2026158 L93.7599744,12.2026158 L93.7599744,12.5653391 C93.9754393,12.2863198 94.2467039,12.1468123 94.5737765,12.1468123 C94.7179364,12.1468123 94.8496936,12.1727762 94.9690518,12.2247048 C95.08841,12.2766333 95.1787024,12.3428994 95.2399316,12.423505 C95.3011609,12.5041105 95.3437882,12.5955655 95.3678148,12.6978725 C95.3918415,12.8001796 95.4038546,12.9466625 95.4038546,13.1373257 L95.4038546,14.6719239 Z M95.8363323,13.9674038 L96.4920243,13.8674224 C96.5199262,13.9945312 96.5765042,14.0910239 96.6617601,14.1569034 C96.747016,14.222783 96.8663725,14.2557222 97.019833,14.2557222 C97.1887947,14.2557222 97.3159016,14.2247206 97.4011574,14.1627163 C97.4585114,14.1193133 97.4871879,14.0611852 97.4871879,13.9883301 C97.4871879,13.9387267 97.4716871,13.8976495 97.440685,13.8650972 C97.4081327,13.8340951 97.3352788,13.8054185 97.222121,13.7790667 C96.6950846,13.6628087 96.3610416,13.556628 96.2199818,13.4605213 C96.0246684,13.3272121 95.9270131,13.1419771 95.9270131,12.9048108 C95.9270131,12.690896 96.0114927,12.5110863 96.1804543,12.3653763 C96.349416,12.2196662 96.6113801,12.1468123 96.9663546,12.1468123 C97.3042779,12.1468123 97.5553915,12.2018402 97.7197028,12.3118978 C97.8840142,12.4219554 97.9971703,12.5847142 98.0591746,12.8001791 L97.4430101,12.9141114 C97.4166583,12.8180047 97.3666681,12.7443758 97.293038,12.6932222 C97.2194079,12.6420687 97.1143898,12.6164923 96.9779804,12.6164923 C96.8059185,12.6164923 96.6826868,12.6405186 96.6082817,12.6885719 C96.5586783,12.7226743 96.5338769,12.7668517 96.5338769,12.8211054 C96.5338769,12.8676086 96.5555781,12.9071358 96.5989811,12.939688 C96.6578852,12.983091 96.8613337,13.0443193 97.2093327,13.1233748 C97.5573317,13.2024302 97.8003073,13.2993105 97.9382668,13.4140184 C98.0746762,13.5302764 98.1428799,13.6922601 98.1428799,13.8999745 C98.1428799,14.1262901 98.0483248,14.3208256 97.8592118,14.4835868 C97.6700987,14.6463481 97.3903086,14.7277274 97.019833,14.7277274 C96.6834598,14.7277274 96.417233,14.6595238 96.2211444,14.5231143 C96.0250559,14.3867049 95.8967865,14.2014699 95.8363323,13.9674038 Z M100.144833,13.8860236 L100.795875,13.9953056 C100.712169,14.234022 100.580024,14.4157694 100.399437,14.540553 C100.218849,14.6653366 99.9929247,14.7277274 99.721656,14.7277274 C99.2922763,14.7277274 98.9745092,14.5874449 98.7683449,14.3068755 C98.6055837,14.08211 98.5242043,13.7984447 98.5242043,13.455871 C98.5242043,13.0466428 98.6311601,12.726163 98.8450749,12.494422 C99.0589896,12.262681 99.3294792,12.1468123 99.6565518,12.1468123 C100.023927,12.1468123 100.313793,12.2681063 100.526157,12.5106981 C100.738522,12.7532898 100.840053,13.1249224 100.830752,13.6256069 L99.1938472,13.6256069 C99.1984975,13.8193703 99.2512003,13.9701159 99.3519573,14.0778484 C99.4527142,14.1855808 99.578271,14.2394462 99.7286314,14.2394462 C99.8309385,14.2394462 99.9169681,14.2115447 99.9867229,14.1557408 C100.056478,14.099937 100.109181,14.0100321 100.144833,13.8860236 Z M100.182035,13.2256813 C100.177385,13.0365683 100.128557,12.892798 100.035551,12.7943662 C99.9425446,12.6959344 99.8293885,12.6467193 99.6960793,12.6467193 C99.5534695,12.6467193 99.4356631,12.6986471 99.3426567,12.8025042 C99.2496503,12.9063614 99.2039228,13.047419 99.2054729,13.2256813 L100.182035,13.2256813 Z" id="Trade-mark-of-Intera" fill="#636567"></path>
        </g>
    </g>
</svg>