<?xml version="1.0" encoding="UTF-8"?>
<svg width="272px" height="90px" viewBox="0 0 272 90" version="1.1" xmlns="http://www.w3.org/2000/svg" xmlns:xlink="http://www.w3.org/1999/xlink">
    <!-- Generator: Sketch 48.2 (47327) - http://www.bohemiancoding.com/sketch -->
    <title>evolution</title>
    <desc>Created with Sketch.</desc>
    <defs>
        <linearGradient x1="49.3384401%" y1="64.8304505%" x2="40.9470752%" y2="181.393968%" id="linearGradient-1">
            <stop stop-color="#79DDFF" offset="0%"></stop>
            <stop stop-color="#A8A8A8" offset="100%"></stop>
        </linearGradient>
    </defs>
    <g id="Page-1" stroke="none" stroke-width="1" fill="none" fill-rule="evenodd">
        <g id="evolution" fill-rule="nonzero">
            <g id="Group" transform="translate(69.000000, 0.000000)" fill="#FFFFFF">
                <path d="M0.1,1 L29.68,1 L30.41,11 L28.66,11 C27.97,6.89 27.88,6 26.38,4.41 C24.88,2.82 21.9,2.92 19.49,2.92 L11.93,2.92 C11.4200311,2.8843043 10.9187488,3.0659283 10.55,3.42 C10.2053605,3.84436772 10.0370835,4.38500228 10.08,4.93 L10.08,17.67 L13.39,17.67 C15.0408738,17.7251797 16.6271026,17.0259141 17.7,15.77 C18.8,14.5033333 19.3933333,12.5533333 19.48,9.92 L21.28,9.92 L21.28,27.79 L19.48,27.79 C19.3933333,24.83 18.79,22.7133333 17.67,21.44 C16.5149029,20.1425314 14.8351526,19.4368157 13.1,19.52 L10.1,19.52 L10.1,33.86 C10.0695882,34.3519623 10.2780499,34.8284461 10.66,35.14 C11.2154473,35.4855309 11.8686106,35.6400426 12.52,35.58 L18.52,35.58 C25,35.58 28.74,33.46 29.73,25.18 L31.61,25.18 L30.9,37.53 L0.1,37.53 L0.1,35.53 L1.73,35.53 C2.48923089,35.6028557 3.25072187,35.4160084 3.89,35 C4.32098664,34.6040611 4.54903247,34.0339465 4.51,33.45 L4.51,4.93 C4.56546996,4.37669902 4.37959353,3.826359 4,3.42 C3.50810203,3.04661313 2.89541014,2.86850502 2.28,2.92 L0.1,2.92 L0.1,1 Z" id="Shape"></path>
                <path d="M29.06,13.08 L42.41,13.08 L42.41,14.86 C41.3716391,14.8005058 40.3317498,14.946634 39.35,15.29 C38.9353103,15.4887015 38.6738222,15.9102048 38.68,16.37 C38.6825066,16.7676223 38.7712117,17.1599718 38.94,17.52 L45.42,32 L51.32,18 C51.4045114,17.7658247 51.4484747,17.5189537 51.45,17.27 C51.45,16.0033333 50.2,15.2133333 47.7,14.9 L47.7,13.08 L57.82,13.08 L57.82,14.86 C56.9433483,14.9102569 56.0966897,15.197084 55.37,15.69 C54.7586999,16.1672942 54.2857772,16.7990084 54,17.52 L45,38.27 L43.6,38.27 L34,16.95 C33.7441309,16.3028544 33.3021838,15.7460707 32.73,15.35 C31.5436321,15.0110203 30.3136719,14.8492722 29.08,14.87 L29.06,13.08 Z" id="Shape"></path>
                <path d="M67.25,12.35 C70.393825,12.2892083 73.4112765,13.5865667 75.53,15.91 C77.8352814,18.4753305 79.0386282,21.8447018 78.88,25.29 C78.9496055,27.6618206 78.4344586,30.0143248 77.38,32.14 C76.4023617,34.003046 74.9188525,35.5524119 73.1,36.61 C71.2888171,37.6990291 69.2133557,38.2697811 67.1,38.26 C64.0360595,38.2835091 61.1144152,36.9687692 59.1,34.66 C56.8374703,32.0882656 55.6552652,28.7422668 55.8,25.32 C55.6577297,21.905903 56.8359573,18.5681882 59.09,16 C61.1438638,13.6465621 64.1266027,12.3123712 67.25,12.35 Z M67.25,14.2 C65.3008706,14.1995882 63.4881606,15.2003551 62.45,16.85 C61.1966667,18.6166667 60.57,21.4033333 60.57,25.21 C60.57,29.0166667 61.1933333,31.8533333 62.44,33.72 C63.4662719,35.3922966 65.2879071,36.4110489 67.25,36.41 C69.2508565,36.4271619 71.1187639,35.410022 72.19,33.72 C73.45,31.9266667 74.08,28.9966667 74.08,24.93 C74.08,21.1566667 73.4566667,18.4266667 72.21,16.74 C71.0860357,15.1177015 69.2231549,14.1674821 67.25,14.21 L67.25,14.2 Z" id="Shape"></path>
                <path d="M87,0.52 L87,33.93 C86.9719989,34.3503162 87.1333928,34.761137 87.44,35.05 C87.8929811,35.4037521 88.455528,35.5877297 89.03,35.57 L90.6,35.57 L90.6,37.57 L78.8,37.57 L78.8,35.57 L80.25,35.57 C80.8851124,35.6135926 81.512394,35.409278 82,35 C82.4129953,34.565298 82.6267115,33.9784841 82.59,33.38 L82.59,5.66 C82.6525755,4.95384913 82.3957554,4.2567658 81.89,3.76 C81.2313241,3.19609512 80.3867772,2.89676203 79.52,2.92 L77.33,2.92 L77.33,1 L87,0.52 Z" id="Shape"></path>
                <path d="M99.42,12.64 L99.42,28.85 C99.3130779,30.515721 99.8500566,32.1588756 100.92,33.44 C101.910105,34.5212636 103.32488,35.113495 104.79,35.06 C106.730291,35.0812677 108.573147,34.2114396 109.79,32.7 C111.163587,31.0445577 111.875999,28.9393804 111.79,26.79 L111.79,17.63 C111.827033,16.8719141 111.490911,16.1436501 110.89,15.68 C109.832164,15.1026952 108.632826,14.8357905 107.43,14.91 L107.43,13.08 L116.01,12.64 L116.01,32.71 C115.960535,33.4997318 116.247528,34.2735221 116.8,34.84 C117.404624,35.3644672 118.191181,35.6302444 118.99,35.58 L120.53,35.58 L120.53,37.33 L112.31,37.51 L111.79,32.71 C110.545969,34.2423255 109.055613,35.5569481 107.38,36.6 C106.032228,37.4316726 104.483606,37.8810495 102.9,37.9 C100.824006,37.9514862 98.8177979,37.1490028 97.35,35.68 C95.8366667,34.22 95.08,31.74 95.08,28.24 L95.08,17.63 C95.131169,16.7716041 94.7191756,15.9514321 94,15.48 C92.9924074,15.0313513 91.8904566,14.8356778 90.79,14.91 L90.79,13.08 L99.42,12.64 Z" id="Shape"></path>
                <path d="M125.48,3.12 L127.23,3.12 L127.23,13.12 L142.11,13.12 L142.11,15.52 L127.23,15.52 L127.23,31.17 C127.162395,32.2983395 127.519077,33.4111888 128.23,34.29 C128.844564,34.9975941 129.743081,35.393675 130.68,35.37 C131.887311,35.344155 133.006501,34.7323308 133.68,33.73 C134.513333,32.6366667 135,30.8266667 135.14,28.3 L136.89,28.3 C136.783333,31.5533333 136.043333,33.9666667 134.67,35.54 C133.335858,37.0959678 131.368635,37.9637521 129.32,37.9 C127.581726,38.0018061 125.874949,37.4040743 124.58,36.24 C123.425625,35.0977912 122.805006,33.5226515 122.87,31.9 L122.87,15.48 L118.62,15.48 L118.62,13.66 C120.334732,13.4329436 121.899767,12.5646708 123,11.23 C124.533333,9.29666667 125.36,6.59333333 125.48,3.12 Z" id="Shape"></path>
                <path d="M136.86,13.08 L146.59,12.79 L146.59,33.79 C146.544404,34.2415762 146.697736,34.6906202 147.01,35.02 C147.431401,35.3746448 147.969588,35.5599808 148.52,35.54 L150.28,35.54 L150.28,37.54 L138.39,37.54 L138.39,35.54 L140,35.54 C140.61329,35.593218 141.221299,35.3905484 141.68,34.98 C142.065538,34.5277987 142.259294,33.9429433 142.22,33.35 L142.22,18.46 C142.280955,17.6402003 141.977267,16.8352434 141.39,16.26 C140.682329,15.7170116 139.799508,15.4535892 138.91,15.52 L136.91,15.52 L136.86,13.08 Z M143.64,1.52 C144.419973,1.52011372 145.165319,1.84213211 145.7,2.41 C146.272479,2.95392268 146.59459,3.71033973 146.59,4.5 C146.585996,5.25561885 146.275674,5.97729919 145.73,6.5 C145.191543,7.05881901 144.44596,7.37008191 143.67,7.36 C142.886324,7.36942367 142.133589,7.05457803 141.59,6.49 C141.041601,5.96832421 140.727761,5.24685329 140.72,4.49 C140.721299,3.7102727 141.043123,2.9653758 141.61,2.43 C142.133702,1.86303609 142.868211,1.53739159 143.64,1.53 L143.64,1.52 Z" id="Shape"></path>
                <path d="M162.56,12.35 C165.703825,12.2892083 168.721277,13.5865667 170.84,15.91 C173.148904,18.4737672 174.355906,21.8433158 174.2,25.29 C174.269605,27.6618206 173.754459,30.0143248 172.7,32.14 C171.721918,34.0027267 170.238514,35.5519822 168.42,36.61 C166.608614,37.6985539 164.533288,38.2692685 162.42,38.26 C159.355777,38.2848518 156.433598,36.9698712 154.42,34.66 C152.15656,32.0887996 150.974222,28.742423 151.12,25.32 C150.972237,21.9086112 152.143184,18.5712307 154.39,16 C156.446138,13.6438825 159.433125,12.309427 162.56,12.35 Z M162.56,14.2 C160.610871,14.1995882 158.798161,15.2003551 157.76,16.85 C156.506667,18.6166667 155.88,21.4033333 155.88,25.21 C155.88,29.0166667 156.503333,31.8533333 157.75,33.72 C158.776272,35.3922966 160.597907,36.4110489 162.56,36.41 C164.5644,36.430634 166.436882,35.4130631 167.51,33.72 C168.77,31.9266667 169.4,28.9966667 169.4,24.93 C169.4,21.1566667 168.776667,18.4266667 167.53,16.74 C166.404067,15.1147019 164.536667,14.1640936 162.56,14.21 L162.56,14.2 Z" id="Shape"></path>
                <path d="M173.69,13.08 L181.81,12.58 C182.174301,14.3514645 182.418192,16.1455709 182.54,17.95 C183.49006,16.3219328 184.821617,14.9491942 186.42,13.95 C187.93473,13.0602801 189.663405,12.6004527 191.42,12.62 C192.841426,12.5857303 194.246304,12.9309091 195.49,13.62 C196.654266,14.3286633 197.575114,15.3750814 198.13,16.62 C198.809484,18.0642021 199.151449,19.6440809 199.13,21.24 L199.13,33.14 C199.060914,33.8257736 199.278017,34.5096452 199.73,35.03 C200.304669,35.4571785 201.01706,35.6566481 201.73,35.59 L202.44,35.59 L202.44,37.59 L191.61,37.59 L191.61,35.59 L191.82,35.59 C192.658261,35.6684762 193.499566,35.4756771 194.22,35.04 C194.693091,34.6272238 194.944888,34.0162461 194.9,33.39 L194.9,22.92 C195.032454,21.1738124 194.686746,19.4245274 193.9,17.86 C192.968542,16.3220024 191.265417,15.422383 189.47,15.52 C187.549252,15.4954959 185.728082,16.3727669 184.55,17.89 C183.166304,19.6487066 182.456951,21.8441547 182.55,24.08 L182.55,33.13 C182.479947,33.8175979 182.701192,34.5030928 183.16,35.02 C183.738726,35.4388424 184.447922,35.6374173 185.16,35.58 L185.85,35.58 L185.85,37.58 L174.94,37.58 L174.94,35.58 L175.62,35.58 C176.306529,35.627531 176.98928,35.4445257 177.56,35.06 C177.981199,34.7611877 178.231037,34.2764264 178.23,33.76 L178.23,18 C178.29091,17.1258461 177.982594,16.2661883 177.38,15.63 C176.704031,15.0510506 175.828,14.760237 174.94,14.82 L173.69,14.82 L173.69,13.08 Z" id="Shape"></path>
                <path d="M42,45.58 L44.14,41.72 L45.89,41.72 L46.89,57.12 L45.19,57.12 C43.8566667,52.6933333 42.32,49.49 40.58,47.51 C38.6779718,45.1610223 35.8321251,43.7765563 32.81,43.73 C30.6572506,43.7089322 28.5544129,44.3783355 26.81,45.64 C24.9060258,47.0890438 23.4839643,49.0792329 22.73,51.35 C21.79,53.89 21.31,56.45 21.31,61.06 C21.1620762,64.2790209 21.6444437,67.495936 22.73,70.53 C23.4504178,72.736816 24.8158556,74.6769917 26.65,76.1 C28.3667202,77.304255 30.4235607,77.9279647 32.52,77.88 C35.1237551,78.0442343 37.6782768,77.1166349 39.57,75.32 C41.2565569,73.5461077 42.1545599,71.165859 42.06,68.72 L42.06,65.09 C42.0842689,64.5624744 41.8347841,64.0597248 41.4,63.76 C40.7351926,63.3928206 39.9770424,63.2293662 39.22,63.29 L35.96,63.29 L35.96,61.46 L51,61.46 L51,63.29 L49.82,63.29 C49.0861524,63.2248421 48.3513522,63.4041474 47.73,63.8 C47.3056092,64.1666529 47.0763712,64.7101687 47.11,65.27 L47.11,80 L45.4,80 C44.7733333,77.7066667 44.1066667,75.5066667 43.4,73.4 C42.2658425,75.362145 40.6652407,77.0142683 38.74,78.21 C36.8858223,79.2967267 34.7689111,79.8536265 32.62,79.82 C29.4470347,79.8312594 26.3325785,78.9661327 23.62,77.32 C20.8013392,75.6305061 18.509003,73.1892719 17,70.27 C15.3763577,67.4551929 14.5565712,64.2486861 14.63,61 C14.5656177,57.7300628 15.4028875,54.5055362 17.05,51.68 C18.5912685,48.7242712 20.880764,46.2244455 23.69,44.43 C26.2095419,42.7271079 29.1694135,41.7925945 32.21,41.74 C33.8096575,41.7322558 35.3978693,42.0099389 36.9,42.56 C38.7420991,43.3046674 40.4614165,44.3227731 42,45.58 Z" id="Shape"></path>
                <path d="M77,77.16 L77.41,77.88 C77.41,79.26 75.75,79.11 74.2,79.11 C73.02,79.11 70.65,79.05 69.83,78.43 C69.01,77.81 68.68,77.1 68.07,75.48 C66.8249473,76.9103511 65.330759,78.1029912 63.66,79 C62.237842,79.6145867 60.6987184,79.9114908 59.15,79.87 C57.1129623,80.0115752 55.0902767,79.4387167 53.43,78.25 C52.1472954,77.2585701 51.406307,75.7210191 51.43,74.1 C51.43,71.56 52.9233333,69.45 55.91,67.77 C59.6211534,65.8811934 63.6683685,64.742808 67.82,64.42 L67.82,60.68 C67.8269039,59.3683596 67.2429407,58.1233062 66.23,57.29 C65.1189925,56.3379064 63.6924636,55.835055 62.23,55.88 C60.866611,55.8433662 59.5177497,56.1676448 58.32,56.82 C57.54,57.2933333 57.15,57.7533333 57.15,58.2 C57.2430267,58.6571411 57.4611231,59.0794865 57.78,59.42 C58.2199396,59.9462746 58.4855123,60.5962289 58.54,61.28 C58.5674686,61.9983182 58.2916637,62.6950884 57.78,63.2 C57.2431118,63.710643 56.5199631,63.978208 55.78,63.94 C54.9625728,63.9626073 54.1726616,63.643744 53.6,63.06 C53.0130335,62.4533436 52.6988428,61.6335585 52.73,60.79 C52.73,59.0633333 53.7,57.49 55.64,56.07 C57.8863822,54.5533248 60.5625397,53.802738 63.27,53.93 C66.17,53.93 68.3866667,54.5566667 69.92,55.81 C71.3685552,56.9042652 72.2200136,58.6145859 72.22,60.43 L72.22,73.78 C72.1763411,74.5876746 72.378568,75.3896092 72.8,76.08 C73.0985316,76.5886241 73.5945847,76.9507066 74.17,77.08 C75.1101329,77.1754488 76.0559764,77.2021864 77,77.16 Z M67.91,66.11 C63.49,66.7233333 60.36,67.7233333 58.52,69.11 C57.1418299,70.158664 56.3707872,71.8205232 56.46,73.55 C56.3911815,74.696473 56.7754384,75.8241056 57.53,76.69 C58.2541512,77.4504689 59.2707497,77.8622095 60.32,77.82 C62.3492882,77.8328714 64.2892545,76.9864067 65.66,75.49 C67.1717722,73.920737 67.9865888,71.8079824 67.92,69.63 L67.91,66.11 Z" id="Shape"></path>
                <path d="M76.1,54.65 L83.1,54.21 C83.4636502,55.921662 83.7141922,57.6554128 83.85,59.4 C84.8854115,57.79876 86.24876,56.4354115 87.85,55.4 C89.173057,54.6195996 90.6840047,54.2150667 92.22,54.23 C93.7243675,54.171063 95.2023128,54.6377826 96.4,55.55 C97.6583789,56.7029692 98.5400525,58.2084356 98.93,59.87 C99.8972748,58.1896181 101.221811,56.7421868 102.81,55.63 C104.189382,54.7099529 105.811951,54.2224858 107.47,54.23 C109.355004,54.0957759 111.197565,54.8328003 112.47,56.23 C113.954903,58.1506484 114.712906,60.5344612 114.61,62.96 L114.61,75.06 C114.539316,75.6166472 114.7446,76.1727797 115.16,76.55 C115.792809,76.9936005 116.55919,77.2055031 117.33,77.15 L118.55,77.15 L118.55,79.15 L106.25,79.15 L106.25,77.15 L107.48,77.15 C108.247343,77.2225339 109.01717,77.0397439 109.67,76.63 C110.110387,76.2314821 110.342761,75.6523927 110.3,75.06 L110.3,62.91 C110.40633,61.3937119 109.942727,59.8923512 109,58.7 C108.117353,57.7073467 106.837409,57.1608947 105.51,57.21 C104.445226,57.1914223 103.399634,57.494644 102.51,58.08 C101.593941,58.6995804 100.872637,59.5665329 100.43,60.58 C99.7729084,61.7991663 99.3906298,63.1473812 99.31,64.53 L99.31,75.06 C99.258919,75.6447958 99.4673333,76.2225056 99.88,76.64 C100.391482,77.0209839 101.02437,77.2023168 101.66,77.15 L103.33,77.15 L103.33,79.15 L90.85,79.15 L90.85,77.15 L92.26,77.15 C92.966104,77.2057102 93.6704514,77.0225799 94.26,76.63 C94.6795774,76.3173428 94.9247727,75.823237 94.92,75.3 L94.92,64 C94.92,61.6133333 94.4966667,59.8833333 93.65,58.81 C92.843256,57.7490186 91.5721051,57.1451287 90.24,57.19 C88.6034973,57.105373 87.0260106,57.8122657 86,59.09 C84.5969561,60.8522166 83.8509534,63.0477978 83.89,65.3 L83.89,75.06 C83.8228743,75.6218075 84.0056555,76.1847737 84.39,76.6 C85.0406852,77.0167961 85.8095962,77.2099016 86.58,77.15 L87.83,77.15 L87.83,79.15 L75.48,79.15 L75.48,77.15 L77.33,77.15 C77.9136239,77.1906112 78.4903929,77.0043256 78.94,76.63 C79.310375,76.2886205 79.51464,75.8034911 79.5,75.3 L79.5,59.3 C79.5627952,58.5675982 79.3162077,57.8423408 78.82,57.3 C78.0228504,56.7437448 77.0719924,56.4500975 76.1,56.46 L76.1,54.65 Z" id="Shape"></path>
                <path d="M119.07,54.65 L127.79,54.36 L127.79,75.36 C127.744404,75.8115762 127.897736,76.2606202 128.21,76.59 C128.634946,76.9453066 129.176467,77.130564 129.73,77.11 L132.5,77.11 L132.5,79.11 L117.57,79.11 L117.57,77.11 L121.16,77.11 C121.773433,77.1644356 122.381915,76.9616084 122.84,76.55 C123.22384,76.0973351 123.414213,75.5118478 123.37,74.92 L123.37,59.56 C123.432582,58.7370078 123.12887,57.9283295 122.54,57.35 C121.832764,56.80616 120.94961,56.5426384 120.06,56.61 L119.06,56.61 L119.07,54.65 Z M124.84,43.09 C125.62022,43.0889185 126.36602,43.4111332 126.9,43.98 C127.472479,44.5239227 127.79459,45.2803397 127.79,46.07 C127.785996,46.8256189 127.475674,47.5472992 126.93,48.07 C125.994005,48.991963 124.55753,49.1752958 123.419976,48.5179736 C122.282421,47.8606514 121.723932,46.5245528 122.055308,45.2532177 C122.386684,43.9818826 123.526317,43.0884027 124.84,43.07 L124.84,43.09 Z" id="Shape"></path>
                <path d="M131.78,54.65 L139.9,54.15 C140.26355,55.9215925 140.507435,57.7156479 140.63,59.52 C141.58006,57.8919328 142.911617,56.5191942 144.51,55.52 C146.039503,54.6219196 147.786548,54.1618068 149.56,54.19 C150.981426,54.1557303 152.386304,54.5009091 153.63,55.19 C154.795508,55.8971825 155.716741,56.9440386 156.27,58.19 C156.948486,59.6345396 157.290401,61.214186 157.27,62.81 L157.27,74.71 C157.200914,75.3957736 157.418017,76.0796452 157.87,76.6 C158.444669,77.0271785 159.15706,77.2266481 159.87,77.16 L160.58,77.16 L160.58,79.16 L149.7,79.16 L149.7,77.16 L149.91,77.16 C150.748261,77.2384762 151.589566,77.0456771 152.31,76.61 C152.775276,76.2079447 153.029737,75.6142039 153,75 L153,64.49 C153.132265,62.7406063 152.786613,60.9881554 152,59.42 C151.067806,57.8765542 149.360495,56.9729101 147.56,57.07 C145.639598,57.0470563 143.819086,57.9240102 142.64,59.44 C141.257094,61.1991273 140.547838,63.3942756 140.64,65.63 L140.64,74.68 C140.569947,75.3675979 140.791192,76.0530928 141.25,76.57 C141.828726,76.9888424 142.537922,77.1874173 143.25,77.13 L143.94,77.13 L143.94,79.13 L132,79.13 L132,77.13 L133.7,77.13 C134.386455,77.1767614 135.068959,76.993822 135.64,76.61 C136.0641,76.309155 136.314303,75.8199515 136.31,75.3 L136.31,59.53 C136.37216,58.6556738 136.063668,57.7955271 135.46,57.16 C134.784569,56.5800991 133.908138,56.2891526 133.02,56.35 L131.77,56.35 L131.78,54.65 Z" id="Shape"></path>
                <g transform="translate(161.000000, 51.000000)" id="Shape">
                    <path d="M18.09,5 C19.83,3.24 24.69,0.67 26.24,0.61 C27.1295283,0.488425472 28.0299153,0.737930293 28.73,1.3 C29.3,1.86 28.27,3.11 28.27,3.91 C28.2914748,4.49836821 28.0835102,5.07206386 27.69,5.51 C27.3494279,5.91410489 26.8484757,6.14812637 26.32,6.15 C25.3266667,6.15 24.66,5.54 24.32,4.32 C24.18,3.8 23.9433333,3.54 23.61,3.54 C22.0345266,4.09401332 20.5786972,4.94239873 19.32,6.04 C19.9503161,6.85719999 20.4682603,7.75519419 20.86,8.71 C21.142839,9.49218959 21.2850313,10.318259 21.28,11.15 C21.3044612,12.5612254 20.9226243,13.9497231 20.18,15.15 C19.2547564,16.4704145 17.9997716,17.5254293 16.54,18.21 C15.0488322,19.0424132 13.3772801,19.4989151 11.67,19.54 L8.83,19.54 C7.46545579,19.4266801 6.09365273,19.6427391 4.83,20.17 C4.1784733,20.5814599 3.7969691,21.310133 3.83,22.08 C3.80292251,22.7098476 4.11102463,23.3070332 4.64,23.65 C5.59095743,24.0972712 6.64271091,24.2869317 7.69,24.2 L14.13,24.07 C17.3833333,24.07 19.7166667,24.6133333 21.13,25.7 C22.5427005,26.7420049 23.3478135,28.415891 23.28,30.17 C23.3044435,32.2072369 22.403326,34.1455592 20.83,35.44 C18.55,37.44 15.1466667,38.44 10.62,38.44 C6.88,38.44 4.10666667,37.7533333 2.3,36.38 C1.03684277,35.5919117 0.237960942,34.2367991 0.16,32.75 C0.216712403,31.6765812 0.725387947,30.6773971 1.56,30 C2.89660432,28.9614868 4.48980479,28.3048532 6.17,28.1 C4.73917428,27.8237288 3.4012014,27.1908574 2.28,26.26 C1.43909706,25.4908451 0.966193437,24.399529 0.98,23.26 C0.948320781,22.1911631 1.31143383,21.148103 2,20.33 C3.01669386,19.312157 4.28187674,18.5778683 5.67,18.2 C4.32359175,17.4946357 3.17531435,16.4632488 2.33,15.2 C1.57071054,14.0061407 1.18106827,12.6145612 1.21,11.2 C1.19816688,8.91504631 2.22450806,6.74832603 4,5.31 C6.04056018,3.64795602 8.62078403,2.79381296 11.25,2.91 C12.442774,2.90579239 13.6293914,3.08108814 14.77,3.43 C15.9483526,3.78592105 17.0672484,4.31503743 18.09,5 Z M12.77,28.09 C9.57,28.09 7.28666667,28.5333333 5.92,29.42 C4.71393177,30.0487454 3.93314174,31.2713483 3.87,32.63 C3.8466784,33.7686728 4.43408779,34.8328756 5.41,35.42 C7.16624314,36.4278477 9.17870975,36.9005514 11.2,36.78 C14.1933333,36.78 16.4466667,36.2833333 17.96,35.29 C19.4733333,34.2966667 20.2333333,33.2 20.24,32 C20.2345791,31.2725296 19.9844892,30.5680512 19.53,30 C18.9444012,29.308004 18.1580926,28.8152506 17.28,28.59 C15.8066021,28.2200241 14.2880226,28.0617686 12.77,28.12 L12.77,28.09 Z M11.23,4.55 C9.75809828,4.51413552 8.3480856,5.14203179 7.39,6.26 C6.31148616,7.61491543 5.77349615,9.32151949 5.88,11.05 C5.76681996,12.8748011 6.30158611,14.6809649 7.39,16.15 C8.34214763,17.2901647 9.74798671,17.9532978 11.2334051,17.9629308 C12.7188235,17.9725639 14.133145,17.3277198 15.1,16.2 C16.1770149,14.7638995 16.7086452,12.9917986 16.6,11.2 C16.695715,9.45733629 16.1516246,7.7397176 15.07,6.37 C14.1301915,5.21864833 12.7160784,4.55946544 11.23,4.58 L11.23,4.55 Z"></path>
                    <path d="M27.17,0.79 C28.8072954,0.817292032 30.1202274,2.15247717 30.12,3.79 C30.1171474,4.5458586 29.8066396,5.26796983 29.26,5.79 C28.3231521,6.71291485 26.8849542,6.89569672 25.7470301,6.2364665 C24.609106,5.57723629 24.052264,4.23867379 24.3868772,2.96686808 C24.7214903,1.69506237 25.8649853,0.803859969 27.18,0.79 L27.17,0.79 Z"></path>
                </g>
            </g>
            <path d="M53.3,75.16 L52.66,75.16 L52.33,75.16 L52.33,73.57 L52.77,73.57 C53.1073651,73.5343673 53.448447,73.5718863 53.77,73.68 C54.0321894,73.8074928 54.1933792,74.0787635 54.18,74.37 C54.1822116,74.6026833 54.0830033,74.8247989 53.9082407,74.9784363 C53.7334781,75.1320737 53.5004822,75.2020059 53.27,75.17 M55.16,74.39 C55.1806698,73.8954828 54.9654422,73.4204977 54.58,73.11 C54.1107523,72.7930972 53.5407353,72.6612808 52.98,72.74 L51.37,72.74 L51.37,77.9 L52.37,77.9 L52.37,76 L53.23,76 L54.23,77.92 L55.33,77.92 L54.18,75.82 C54.7976828,75.6294477 55.2087244,75.0457687 55.18,74.4 M53.18,79.4 C50.970861,79.4 49.18,77.609139 49.18,75.4 C49.18,73.190861 50.970861,71.4 53.18,71.4 C55.389139,71.4 57.18,73.190861 57.18,75.4 C57.18,77.609139 55.389139,79.4 53.18,79.4 M53.18,70.4 C50.4185763,70.4 48.18,72.6385763 48.18,75.4 C48.18,78.1614237 50.4185763,80.4 53.18,80.4 C55.9414237,80.4 58.18,78.1614237 58.18,75.4 C58.18,72.6385763 55.9414237,70.4 53.18,70.4" id="Shape" fill="#A3A3A3"></path>
            <g id="Group" fill="url(#linearGradient-1)">
                <path d="M0.09,4.8 C24.09,-8.04 55.19,5.5 57.53,38.19 C12.93,41.69 7.56,21.61 0.09,4.8 Z" id="Shape"></path>
                <path d="M0.09,74.89 C24.09,87.73 55.19,74.19 57.53,41.5 C12.93,38 7.56,58.07 0.09,74.89 Z" id="Shape"></path>
            </g>
            <path d="M49.2,15 C37.89,-0.05 17.16,-4.33 0,4.83 C6.69,19.89 11.7,37.56 44.71,38.57 C47.8737246,32.8637235 49.5292683,26.4446195 49.52,19.92 C49.517557,18.2748807 49.4106754,16.6315757 49.2,15 Z M8.09,58.33 C9.09,58.4 10.01,58.45 10.99,58.45 C23.895439,58.4558853 35.9449593,51.9936777 43.08,41.24 C23.24,42.21 13.91,49.42 8.09,58.33 Z" id="Shape" fill="#6CBADA"></path>
        </g>
    </g>
</svg>