<?xml version="1.0" encoding="UTF-8"?>
<svg width="271px" height="105px" viewBox="0 0 271 105" version="1.1" xmlns="http://www.w3.org/2000/svg" xmlns:xlink="http://www.w3.org/1999/xlink">
    <!-- Generator: Sketch 52.4 (67378) - http://www.bohemiancoding.com/sketch -->
    <title>Barcrest Color</title>
    <desc>Created with Sketch.</desc>
    <defs>
        <linearGradient x1="49.9955384%" y1="-0.0579948011%" x2="49.9955384%" y2="99.9383815%" id="linearGradient-1">
            <stop stop-color="#9ED2F1" offset="12.73%"></stop>
            <stop stop-color="#FFFFFF" stop-opacity="0" offset="55.76%"></stop>
        </linearGradient>
        <linearGradient x1="0.00124597653%" y1="49.9975917%" x2="99.9968851%" y2="49.9975917%" id="linearGradient-2">
            <stop stop-color="#0093D4" offset="0%"></stop>
            <stop stop-color="#0093D4" offset="18.18%"></stop>
            <stop stop-color="#9ED2F1" offset="45%"></stop>
            <stop stop-color="#9ED2F1" offset="55%"></stop>
            <stop stop-color="#0093D4" offset="82%"></stop>
            <stop stop-color="#132C64" offset="100%"></stop>
        </linearGradient>
        <linearGradient x1="0%" y1="49.9998669%" x2="99.9985715%" y2="49.9998669%" id="linearGradient-3">
            <stop stop-color="#132C64" offset="0%"></stop>
            <stop stop-color="#0098CB" offset="18.18%"></stop>
            <stop stop-color="#99CAE5" offset="50%"></stop>
            <stop stop-color="#0098CB" offset="82%"></stop>
            <stop stop-color="#132C64" offset="100%"></stop>
        </linearGradient>
        <linearGradient x1="0.00139257151%" y1="50.001271%" x2="99.9991892%" y2="50.001271%" id="linearGradient-4">
            <stop stop-color="#0056A2" offset="0%"></stop>
            <stop stop-color="#51B1E0" offset="63.64%"></stop>
            <stop stop-color="#51B1E0" offset="100%"></stop>
        </linearGradient>
    </defs>
    <g id="Barcrest-Color" stroke="none" stroke-width="1" fill="none" fill-rule="evenodd">
        <g id="Barcrest">
            <path d="M48.4918326,87.2350226 L48.4182579,76.7751584 C48.5715385,76.7628959 48.7922624,76.7445023 49.0926923,76.7322398 C49.8774887,76.7015837 51.2079638,76.7015837 53.3354977,76.8609955 C55.0890271,76.9958824 56.413371,79.6200452 56.3152715,82.1828959 C56.2171719,84.7518778 55.389457,87.1430543 53.0473303,87.2104977 C51.1773077,87.2656787 49.9388009,87.2656787 49.1723982,87.2534163 L48.4918326,87.2350226 Z M48.724819,55.7389367 C61.9805204,53.176086 61.5452036,71.7352941 48.724819,69.8162217 L48.724819,55.7389367 Z M77.8297285,58.6328733 C78.6145249,55.9657919 84.4085294,54.2245249 86.0700905,58.8106787 C86.4379638,59.8284615 86.5299321,60.6561765 86.5299321,61.5635973 C86.5299321,62.4280995 86.4502262,63.3477828 86.4379638,64.5311086 C79.8652941,64.9970814 76.5176471,63.0902715 77.8297285,58.6328733 Z M178.976493,73.6911538 C180.638054,75.2914027 181.287964,76.5789593 180.552217,77.3330995 C178.81095,79.1234163 176.947059,78.0627149 176.321674,77.2779186 C174.813394,75.3895023 174.647851,73.4888235 174.500701,70.1902262 C175.831176,71.1037783 177.621493,72.3913348 178.976493,73.6911538 Z M86.2478959,71.1466968 L86.2478959,71.3980769 C86.2601584,71.6985068 86.2908145,72.0786425 86.3153394,72.5016968 C86.3705204,73.3171493 86.4318326,74.2797511 86.3521267,75.0093665 C86.0087783,78.3202262 82.2564706,78.03819 77.2533937,75.9229186 C74.4452941,74.7334615 69.4483484,78.7861991 74.4330317,83.0657919 C75.6347511,84.0958371 77.3944118,84.5985973 78.8842986,84.8499774 C80.386448,85.1074887 81.6678733,85.1136199 81.9376471,85.1136199 C90.453914,85.1136199 94.6721946,81.3674434 94.6170136,76.848733 L94.4698643,65.3894796 L101.821199,65.3894796 C101.692443,70.8953167 102.035792,79.2950905 101.833462,81.0608824 C101.618869,82.9125113 103.188462,84.5802036 104.941991,85.0768326 C106.652602,85.5611991 108.541018,84.9419457 109.387127,82.5262443 C112.66733,85.7451357 115.561267,85.971991 118.301923,84.2000679 C120.441719,82.820543 120.558213,76.8426018 116.885611,76.8426018 C116.119208,76.8426018 115.463167,76.8548643 114.886833,76.8426018 C114.316629,76.8303394 113.844525,76.7874208 113.415339,76.68319 C112.575362,76.4808597 111.833484,76.0210181 110.864751,74.911267 C110.171923,74.1203394 109.994118,72.9370136 109.987986,71.2509276 C109.981855,69.6445475 110.129005,67.6825566 110.043167,65.3894796 L120.932217,65.3894796 C121.110023,69.6690724 121.030317,72.5997964 121.379796,75.0461538 C121.741538,77.6028733 122.575385,79.6629638 124.592557,82.158371 C128.111878,86.5054072 136.290928,85.7022172 138.718891,83.7831448 C139.21552,83.3907466 139.693756,83.0719231 140.147466,82.7285747 C140.607308,82.379095 141.048756,82.0050905 141.435023,81.5145928 C142.219819,80.5335973 142.747104,79.14181 142.900385,76.7077149 C143.096584,73.6788914 141.392104,72.4097285 139.503688,72.4649095 C137.725633,72.5139593 135.80043,73.776991 135.628756,75.6408824 C135.457081,77.4986425 132.379208,78.534819 130.956765,76.6586652 C130.086131,75.5121267 129.742783,74.6598869 129.644683,73.2129186 C129.52819,71.5268326 129.381041,70.2760633 129.307466,69.049819 C129.233891,67.8419683 129.233891,66.6586425 129.411697,65.095181 C129.57724,63.6359502 129.57724,62.3483937 129.767308,61.1528054 C129.951244,59.9940045 130.306855,58.9639593 131.177489,57.9584389 C132.648982,56.2600905 135.536787,56.2171719 136.7569,58.0074887 C137.768552,59.4912443 137.927964,61.0914932 137.927964,63.1699774 C137.927964,64.7027828 138.786335,65.3833484 140.263959,65.3833484 L147.357783,65.3833484 C147.357783,71.1957466 147.320995,73.5685294 147.290339,75.2362217 C147.259683,76.9345701 147.24129,77.9033032 147.284208,81.0179638 C147.363914,87.1307919 153.76491,86.2417647 155.303846,83.2926471 C156.744683,85.1074887 159.546652,86.5605882 162.379276,85.5611991 C166.536244,84.1019683 165.518462,78.0565837 162.980136,77.8542534 C162.127896,77.78681 161.208213,77.7990724 160.306923,77.7745475 C159.417896,77.7500226 158.58405,77.6948416 157.866697,77.4986425 C156.511697,77.1307692 155.536833,76.2846606 155.628801,73.9486652 C155.702376,72.035724 155.487783,69.3747738 155.549095,65.3833484 L166.008959,65.3833484 C166.327783,68.9088009 166.309389,71.2264027 166.46267,73.2987557 C166.61595,75.4569457 166.947036,77.3576244 167.995475,80.0247059 C169.522149,83.9119005 172.495792,85.5550679 176.45043,86.2846833 C180.392805,87.0081674 183.292873,86.3214706 186.401403,83.5317647 C190.239548,80.0860181 189.283077,73.4336425 186.953213,71.0485973 C184.696923,68.7371267 183.354186,67.6580317 181.729412,66.560543 C180.147557,65.4875792 178.289796,64.3962217 175.003462,62.0663575 C174.868575,59.6445249 176.0519,57.8174208 179.080724,57.4556787 C181.625181,57.1552489 183.746584,59.9449548 183.452285,62.9185973 C183.256086,64.874457 185.107715,65.3894796 187.253643,65.3220362 C189.632557,65.2423303 190.907851,65.5121041 193.237715,65.4017421 C194.06543,65.3649548 194.696946,65.3342986 195.181312,65.2913801 C195.665679,65.2484615 196.051946,65.1871493 196.352376,65.0522624 C197.020679,64.764095 197.155566,64.181629 197.308846,63.409095 C197.443733,62.7285294 197.492783,62.1399321 197.541833,61.6187783 C197.590882,61.1037557 197.633801,60.6868326 197.750294,60.3066968 C197.971018,59.5893439 198.47991,58.9394344 200.043371,58.1362443 C202.367104,56.9467873 205.524683,57.7990271 206.217511,60.2883032 C206.634434,61.7720588 206.070362,62.9002036 205.028054,63.8995928 C204.500769,64.4084842 203.85086,64.874457 203.1519,65.3342986 C202.44681,65.7941403 201.698801,66.2417195 200.99371,66.6892986 C196.235882,69.7242534 191.422873,72.9370136 193.887624,80.0308371 C195.377511,84.3104299 200.374457,85.8432353 201.94405,86.2172398 C204.286176,86.775181 209.31991,87.1123982 212.967986,84.2675113 C216.352421,81.6249548 213.869276,76.2969231 209.957557,77.5783484 C208.847805,77.9400905 207.928122,78.4428507 207.026833,78.8045928 C206.16233,79.1479412 205.353009,79.338009 204.396538,79.14181 C201.416765,78.5286878 202.219955,75.9719683 203.096719,75.2239593 C204.083846,74.3778507 205.028054,73.7953846 205.96,73.280362 C206.910339,72.7530769 207.836154,72.3054977 208.7681,71.7352941 C210.644253,70.5887557 212.514276,68.9701131 214.568235,65.4323982 L219.614231,65.4140045 L219.614231,78.203733 C218.553529,78.2527828 216.315633,78.645181 216.242059,81.9744344 C216.19914,83.9793439 217.106561,85.0523077 218.063032,85.6041176 C218.529005,85.8738914 219.001109,86.0087783 219.344457,86.0823529 L219.589706,86.1252715 C219.197308,90.9382805 220.26414,85.9658597 223.384932,86.1743213 C226.652873,86.388914 228.216335,89.761086 227.762624,84.3104299 C228.296041,84.2184615 228.737489,85.8432353 229.191199,85.5918552 C230.117014,85.0768326 231.024434,84.0467873 231.10414,82.0786652 C231.183846,80.1044118 230.270294,79.0988914 229.289299,78.6206561 C228.817195,78.3876697 228.338959,78.2834389 227.983348,78.2405204 L227.731968,78.2159955 L227.713575,65.1442308 L227.731968,56.689276 C227.885249,49.9510633 226.977828,48.6205882 223.734412,48.4243891 C219.552919,48.1668778 219.467081,51.1527828 219.6081,56.2907466 L214.1881,56.3827149 C211.760136,52.0785973 208.326652,49.914276 203.421674,49.6812896 C198.093643,49.4237783 194.034774,51.6739367 191.398348,56.35819 L189.522195,56.35819 C187.19233,51.5206561 183.016968,49.0313801 177.70733,49.3624661 C172.894321,49.6628959 169.491493,51.9743665 167.394615,56.35819 L155.542964,56.35819 L155.542964,51.8149548 C155.542964,49.8897511 153.605498,48.5715385 151.735475,48.3569457 C149.80414,48.1300905 147.756312,49.0497738 147.504932,51.7045928 C147.327127,53.6052715 147.278077,53.6788462 147.339389,56.35819 L143.820068,56.3643213 C142.330181,50.4783484 137.952489,48.8842308 132.900362,48.890362 C127.82371,48.8964932 123.629955,51.0976018 121.992919,56.35819 L110.110611,56.3643213 C110.135136,55.1196833 110.086086,54.255181 110.043167,53.6114027 C110.018643,53.2680543 110.000249,52.9921493 109.994118,52.7530317 C109.987986,52.5323077 109.994118,52.348371 110.024774,52.1766968 C110.76052,47.9400226 102.054186,46.401086 101.839593,52.0295475 C101.766018,53.8995701 101.900905,54.3410181 101.784412,56.3520588 L94.6231448,56.3520588 C94.6108824,55.5488688 94.6967195,54.8866968 94.7580317,54.2245249 C94.8316063,53.4581222 94.8745249,52.6671946 94.7089819,51.6800679 C94.3165837,49.3379412 89.485181,46.676991 87.0081674,50.3802489 C84.5127602,47.3391629 72.3300226,45.9412443 69.8775339,56.2846154 L66.3827376,56.3765837 C63.2067647,50.0491629 60.3373529,47.4311312 53.5991403,47.4311312 C50.9075339,47.4311312 49.7793891,47.4004751 48.6573756,47.4311312 C47.535362,47.4617873 46.4194796,47.5537557 43.7646606,47.7867421 C41.8885068,47.9522851 40.318914,48.7125566 40.2759955,50.466086 L40.2514706,81.1405882 L40.2392081,84.1632805 C40.153371,87.1123982 42.4954977,87.6396833 43.6481674,87.6396833 L55.7573303,87.6396833 C60.3434842,87.6396833 63.4458824,91.060905 64.5311086,86.333733 C65.6102036,81.6065611 64.6721267,76.2233484 61.1711991,73.5746606 C61.4409729,73.4397738 61.8027149,73.2558371 62.2012443,73.0228507 C63.0657466,72.5200905 64.1387104,71.7904751 64.9112443,70.8953167 C65.8861086,69.7733032 66.3582127,68.3202036 66.5911991,67.1675339 C66.7383484,66.4317873 66.7935294,65.8002715 66.8119231,65.4385294 L70.7604299,65.4140045 L70.9627602,65.7696154 C71.0976471,66.0148643 71.2509276,66.3091629 71.4655204,66.6402489 C71.8947059,67.3146833 72.5384842,68.1178733 73.611448,68.8658824 C75.7021946,70.3128507 79.4054525,71.5145701 86.2478959,71.1466968 Z" id="Shape" fill="url(#linearGradient-1)"></path>
            <path d="M136.192828,81.575905 L134.200181,81.575905 C65.0216063,81.1528507 17.0999774,60.7174887 17.0999774,41.3428281 C17.0999774,24.9540724 51.4041629,7.80504525 103.856765,2.654819 C53.7646833,8.05642534 21.0484842,25.3648643 21.0484842,38.2465611 C21.0484842,53.6114027 67.5721946,69.8162217 134.623235,70.0001584 L135.775905,70.0001584 C202.826946,69.8162217 249.350656,53.6114027 249.350656,38.2465611 C249.350656,25.3648643 216.634457,8.05642534 166.542376,2.654819 C218.994977,7.79891403 253.299163,24.9479412 253.299163,41.3428281 C253.293032,60.7174887 205.371403,81.1528507 136.192828,81.575905 Z" id="Path" fill="url(#linearGradient-2)"></path>
            <path d="M134.200181,104.102014 C50.4906109,104.102014 0,71.6371946 0,50.576448 C0,34.481991 16.315181,22.3605656 42.5935973,11.9497511 C23.4948416,19.7977149 11.9252262,30.0675113 11.9252262,41.3060407 C11.9252262,65.8370588 67.0142534,85.7451357 135.19957,85.9352036 C203.378756,85.7451357 258.473914,65.8309276 258.473914,41.3060407 C258.473914,30.0675113 246.904299,19.7977149 227.805543,11.9497511 C254.083959,22.3605656 270.39914,34.481991 270.39914,50.576448 C270.39914,71.6065385 219.534525,104.071357 136.198959,104.071357 L134.200181,104.102014 Z" id="Path" fill="url(#linearGradient-3)"></path>
            <polygon id="Path" fill="#00377B" points="242.673756 31.3182805 239.890181 26.0638235 233.906109 27.1735747 239.362896 24.6781674 238.032421 18.97 240.815995 24.2183258 246.800068 23.1147059 241.337149 25.6101131"></polygon>
            <path d="M48.4918326,7.86635747 L48.4182579,18.3262217 C48.5715385,18.3384842 48.7922624,18.3568778 49.0926923,18.3691403 C49.8774887,18.3997964 51.2079638,18.3997964 53.3354977,18.2403846 C55.0890271,18.1054977 56.413371,15.4813348 56.3152715,12.9184842 C56.2171719,10.3495023 55.389457,7.95832579 53.0473303,7.89088235 C51.1773077,7.83570136 49.9388009,7.83570136 49.1723982,7.8479638 L48.4918326,7.86635747 Z M48.724819,39.3563122 C61.9805204,41.9191629 61.5452036,23.3599548 48.724819,25.2790271 L48.724819,39.3563122 Z M77.8297285,36.4685068 C78.6145249,39.1355882 84.4085294,40.8768552 86.0700905,36.2907014 C86.4379638,35.2729186 86.5299321,34.4452036 86.5299321,33.5377828 C86.5299321,32.6732805 86.4502262,31.7535973 86.4379638,30.5702715 C79.8652941,30.0981674 76.5176471,32.0049774 77.8297285,36.4685068 Z M178.976493,21.404095 C180.638054,19.8038462 181.287964,18.5162896 180.552217,17.7621493 C178.81095,15.9718326 176.947059,17.0325339 176.321674,17.8173303 C174.813394,19.7057466 174.647851,21.6064253 174.500701,24.9050226 C175.831176,23.9914706 177.621493,22.703914 178.976493,21.404095 Z M86.2478959,23.948552 L86.2478959,23.6971719 C86.2601584,23.3967421 86.2908145,23.0166063 86.3153394,22.593552 C86.3705204,21.7780995 86.4318326,20.8154977 86.3521267,20.0858824 C86.0087783,16.7750226 82.2564706,17.0570588 77.2533937,19.1723303 C74.4452941,20.3617873 69.4483484,16.3090498 74.4330317,12.029457 C75.6347511,10.9994118 77.3944118,10.4966516 78.8842986,10.2452715 C80.386448,9.98776018 81.6678733,9.98162896 81.9376471,9.98162896 C90.453914,9.98162896 94.6721946,13.7278054 94.6170136,18.2465158 L94.4698643,29.7057692 L101.821199,29.7057692 C101.692443,24.1999321 102.035792,15.8001584 101.833462,14.0343665 C101.618869,12.1827376 103.188462,10.5150452 104.941991,10.0184163 C106.652602,9.53404977 108.541018,10.1594344 109.387127,12.5690045 C112.66733,9.35011312 115.561267,9.12325792 118.301923,10.895181 C120.441719,12.2747059 120.558213,18.2526471 116.885611,18.2526471 C116.119208,18.2526471 115.463167,18.2403846 114.886833,18.2526471 C114.316629,18.2649095 113.844525,18.3078281 113.415339,18.4120588 C112.575362,18.6143891 111.833484,19.0742308 110.864751,20.1839819 C110.171923,20.9749095 109.994118,22.1582353 109.987986,23.8443213 C109.981855,25.4507014 110.129005,27.4126923 110.043167,29.7057692 L120.932217,29.7057692 C121.110023,25.4261765 121.030317,22.4954525 121.379796,20.049095 C121.741538,17.4923756 122.575385,15.4322851 124.592557,12.9368778 C128.111878,8.58984163 136.290928,9.39303167 138.718891,11.3121041 C139.21552,11.7045023 139.693756,12.0233258 140.147466,12.3666742 C140.607308,12.7161538 141.048756,13.0901584 141.435023,13.5806561 C142.219819,14.5616516 142.747104,15.9534389 142.900385,18.3875339 C143.096584,21.4163575 141.392104,22.6855204 139.503688,22.6303394 C137.725633,22.5812896 135.80043,21.3182579 135.628756,19.4543665 C135.457081,17.5966063 132.379208,16.5604299 130.956765,18.4365837 C130.086131,19.5831222 129.742783,20.435362 129.644683,21.8823303 C129.52819,23.5684163 129.381041,24.8191855 129.307466,26.0454299 C129.233891,27.2532805 129.233891,28.4366063 129.411697,30.0000679 C129.57724,31.4592986 129.57724,32.7468552 129.767308,33.9424434 C129.951244,35.1012443 130.306855,36.1312896 131.177489,37.13681 C132.648982,38.8351584 135.536787,38.8780769 136.7569,37.0877602 C137.768552,35.6040045 137.927964,34.0037557 137.927964,31.9252715 C137.927964,30.3924661 138.786335,29.7119005 140.263959,29.7119005 L147.357783,29.7119005 C147.357783,23.8995023 147.320995,21.5267195 147.290339,19.8590271 C147.259683,18.1606787 147.24129,17.1919457 147.284208,14.0772851 C147.363914,7.96445701 153.76491,8.85348416 155.303846,11.8026018 C156.744683,9.98776018 159.546652,8.53466063 162.379276,9.53404977 C166.536244,10.9932805 165.518462,17.0386652 162.980136,17.2409955 C162.127896,17.3084389 161.208213,17.2961765 160.306923,17.3207014 C159.417896,17.3452262 158.58405,17.4004072 157.866697,17.5966063 C156.511697,17.9644796 155.536833,18.8105882 155.628801,21.1465837 C155.702376,23.0595249 155.487783,25.7204751 155.549095,29.7119005 L166.008959,29.7119005 C166.327783,26.186448 166.309389,23.8688462 166.46267,21.7964932 C166.61595,19.6383032 166.947036,17.7376244 167.995475,15.070543 C169.522149,11.1833484 172.495792,9.540181 176.45043,8.81669683 C180.392805,8.09321267 183.292873,8.7799095 186.401403,11.5696154 C190.239548,15.015362 189.283077,21.6677376 186.953213,24.0527828 C184.696923,26.3642534 183.354186,27.4433484 181.729412,28.5408371 C180.147557,29.6138009 178.289796,30.7051584 175.003462,33.0350226 C174.868575,35.4568552 176.0519,37.2839593 179.080724,37.6457014 C181.625181,37.9461312 183.746584,35.1564253 183.452285,32.1827828 C183.256086,30.2269231 185.107715,29.7119005 187.253643,29.7793439 C189.632557,29.8590498 190.907851,29.589276 193.237715,29.699638 C194.06543,29.7364253 194.696946,29.7670814 195.181312,29.81 C195.665679,29.8529186 196.051946,29.9142308 196.352376,30.0491176 C197.020679,30.3372851 197.155566,30.9197511 197.308846,31.6922851 C197.443733,32.3728507 197.492783,32.961448 197.541833,33.4826018 C197.590882,33.9976244 197.633801,34.4145475 197.750294,34.7946833 C197.971018,35.5120362 198.47991,36.1619457 200.043371,36.9651357 C202.367104,38.1545928 205.524683,37.3023529 206.217511,34.8130769 C206.634434,33.3293213 206.070362,32.2011765 205.028054,31.2017873 C204.500769,30.6928959 203.85086,30.2269231 203.1519,29.7670814 C202.44681,29.3072398 201.698801,28.8596606 200.99371,28.4120814 C196.235882,25.3771267 191.422873,22.1643665 193.887624,15.070543 C195.377511,10.7909502 200.374457,9.2581448 201.94405,8.88414027 C204.286176,8.3261991 209.31991,7.9889819 212.967986,10.8338688 C216.352421,13.4764253 213.869276,18.804457 209.957557,17.5230317 C208.847805,17.1612896 207.928122,16.6585294 207.026833,16.2967873 C206.16233,15.9534389 205.353009,15.763371 204.396538,15.9595701 C201.416765,16.5726923 202.219955,19.1294118 203.096719,19.8774208 C204.083846,20.7235294 205.028054,21.3059955 205.96,21.8210181 C206.910339,22.3483032 207.836154,22.7958824 208.7681,23.366086 C210.644253,24.5126244 212.514276,26.131267 214.568235,29.6689819 L219.614231,29.6873756 L219.614231,16.9160407 C218.553529,16.866991 216.315633,16.4745928 216.242059,13.1453394 C216.19914,11.1404299 217.106561,10.0674661 218.063032,9.51565611 C218.529005,9.24588235 219.001109,9.11099548 219.344457,9.03742081 L219.589706,8.99450226 C219.197308,4.18149321 220.26414,2.4831448 223.384932,2.28081448 C226.652873,2.06622172 228.216335,3.61742081 227.762624,9.06807692 C228.296041,9.16004525 228.737489,9.28266968 229.191199,9.53404977 C230.117014,10.0490724 231.024434,11.0791176 231.10414,13.0472398 C231.183846,15.0214932 230.270294,16.0270136 229.289299,16.5052489 C228.817195,16.7382353 228.338959,16.8424661 227.983348,16.8853846 L227.731968,16.9099095 L227.713575,29.9816742 L227.731968,38.436629 C227.885249,45.1748416 226.977828,46.5053167 223.734412,46.7015158 C219.552919,46.9590271 219.467081,43.9731222 219.6081,38.8351584 L214.1881,38.74319 C211.760136,43.0473077 208.326652,45.211629 203.421674,45.4446154 C198.093643,45.7021267 194.034774,43.4519683 191.398348,38.7677149 L189.522195,38.7677149 C187.19233,43.6052489 183.016968,46.0945249 177.70733,45.7634389 C172.894321,45.463009 169.491493,43.1515385 167.394615,38.7677149 L155.542964,38.7677149 L155.542964,43.3109502 C155.542964,45.2361538 153.605498,46.5543665 151.735475,46.7689593 C149.80414,46.9896833 147.756312,46.0761312 147.504932,43.4213122 C147.327127,41.5206335 147.278077,41.4470588 147.339389,38.7677149 L143.820068,38.7615837 C142.330181,44.6475566 137.952489,46.2416742 132.900362,46.235543 C127.82371,46.2294118 123.629955,44.0283032 121.992919,38.7677149 L110.110611,38.7615837 C110.135136,40.0062217 110.086086,40.870724 110.043167,41.5145023 C110.018643,41.8578507 110.000249,42.1337557 109.994118,42.3728733 C109.987986,42.5935973 109.994118,42.7775339 110.024774,42.9492081 C110.76052,47.1858824 102.054186,48.724819 101.839593,43.0963575 C101.766018,41.2263348 101.900905,40.7848869 101.784412,38.7738462 L94.6231448,38.7738462 C94.6108824,39.5770362 94.6967195,40.2392081 94.7580317,40.9013801 C94.8316063,41.6677828 94.8745249,42.4587104 94.7089819,43.4458371 C94.3165837,45.7879638 89.485181,48.448914 87.0081674,44.7456561 C84.5127602,47.7867421 72.3300226,49.1846606 69.8775339,38.8412896 L66.3827376,38.74319 C63.2067647,45.0706109 60.3373529,47.6886425 53.5991403,47.6886425 C50.9075339,47.6886425 49.7793891,47.7192986 48.6573756,47.6886425 C47.535362,47.6579864 46.4194796,47.5660181 43.7646606,47.3330317 C41.8885068,47.1674887 40.318914,46.4072172 40.2759955,44.6536878 L40.2208145,3.47640271 C40.1411086,0.527285068 42.4832353,0 43.6297738,0 L55.7389367,0 C64.9112443,0 68.1546606,16.2477376 61.1528054,21.5451131 C61.4225792,21.68 61.7843213,21.8639367 62.1828507,22.0969231 C63.0473529,22.5996833 64.1203167,23.3292986 64.8928507,24.224457 C65.8677149,25.3464706 66.339819,26.7995701 66.5728054,27.9522398 C66.7199548,28.6879864 66.7751357,29.3195023 66.7935294,29.6812443 L70.7420362,29.7057692 L70.9443665,29.3501584 C71.0792534,29.1049095 71.2325339,28.8106109 71.4471267,28.4795249 C71.8763122,27.8050905 72.5200905,27.0019005 73.5930543,26.2538914 C75.7021946,24.7823982 79.4054525,23.5806787 86.2478959,23.948552 Z" id="Shape" fill="url(#linearGradient-4)"></path>
        </g>
    </g>
</svg>