<svg id="Layer_1" data-name="Layer 1" xmlns="http://www.w3.org/2000/svg" viewBox="0 0 90 30"><defs><style>.cls-1{fill:#f26922;}</style></defs><title>Quickspin</title><path id="quickspin" class="cls-1" d="M15.64,11a2.9,2.9,0,0,1,3.1-2.86h.05A2.9,2.9,0,0,1,21.9,11a.88.88,0,1,1-1.77,0c0-.75-.67-1.1-1.34-1.1h-.05c-.64,0-1.34.32-1.34,1.1a.89.89,0,0,1-.88.88A.87.87,0,0,1,15.64,11Zm6.26,6.37a.88.88,0,1,0-1.77,0c0,.75-.67,1.1-1.34,1.1h-.05c-.64,0-1.34-.32-1.34-1.1a.88.88,0,1,0-1.77,0,2.9,2.9,0,0,0,3.1,2.86h.05a6.09,6.09,0,0,0,.7-.05l.78,1.53a.78.78,0,0,0,1.07.13h0c.43-.21.67-.64.51-.94l-.78-1.53A2.76,2.76,0,0,0,21.9,17.39Zm-4.5-.86V11.9a1.21,1.21,0,0,1-.88.37,1.17,1.17,0,0,1-.88-.37v4.66a1.21,1.21,0,0,1,.88-.37A1.15,1.15,0,0,1,17.41,16.53Zm2.7-4.66v4.66a1.23,1.23,0,0,1,1.77,0V11.9a1.21,1.21,0,0,1-.88.37A1.24,1.24,0,0,1,20.11,11.88Zm15.52,0a.89.89,0,0,0,.88-.88c0-.75.67-1.1,1.34-1.1h.05c.64,0,1.34.32,1.34,1.1A.88.88,0,1,0,41,11a2.9,2.9,0,0,0-3.1-2.86h-.05A2.9,2.9,0,0,0,34.75,11,.87.87,0,0,0,35.63,11.9Zm4.47,4.6a.89.89,0,0,0-.88.88c0,.75-.67,1.1-1.34,1.1h-.05c-.64,0-1.34-.32-1.34-1.1a.88.88,0,0,0-1.77,0,2.9,2.9,0,0,0,3.1,2.86h.05A2.9,2.9,0,0,0,41,17.39.87.87,0,0,0,40.1,16.51Zm-3.59,0V11.9a1.21,1.21,0,0,1-.88.37,1.17,1.17,0,0,1-.88-.37v4.66a1.21,1.21,0,0,1,.88-.37A1.19,1.19,0,0,1,36.52,16.53ZM50.3,11.9a.89.89,0,0,0,.88-.88c0-.75.67-1.1,1.34-1.1h.05c.64,0,1.34.32,1.34,1.1a.88.88,0,0,0,1.77,0,2.9,2.9,0,0,0-3.1-2.86h-.08A2.9,2.9,0,0,0,49.39,11,.88.88,0,0,0,50.3,11.9Zm.67.35a1.16,1.16,0,0,1-1,.11l3.51,4.79a1.23,1.23,0,0,1,.54-.86,1.12,1.12,0,0,1,1-.11l-3.51-4.74A1.15,1.15,0,0,1,51,12.25Zm3.8,4.26a.89.89,0,0,0-.88.88c0,.75-.67,1.1-1.34,1.1h-.05c-.64,0-1.34-.32-1.34-1.1a.88.88,0,0,0-1.77,0,2.9,2.9,0,0,0,3.1,2.86h.05a2.9,2.9,0,0,0,3.1-2.86A.89.89,0,0,0,54.77,16.51Zm-26,0a.89.89,0,0,0-.88.88c0,.75-.67,1.1-1.34,1.1h-.05c-.64,0-1.34-.32-1.34-1.1a.88.88,0,1,0-1.77,0,2.9,2.9,0,0,0,3.1,2.86h.05a2.9,2.9,0,0,0,3.1-2.86A.89.89,0,0,0,28.81,16.51Zm0-8.35a.89.89,0,0,0-.88.88v7.44a1.23,1.23,0,0,1,1.77,0V9.07A.9.9,0,0,0,28.81,8.16Zm-3.59,8.32V9.07a.88.88,0,1,0-1.77,0v7.44a1.21,1.21,0,0,1,.88-.37A1.25,1.25,0,0,1,25.22,16.48Zm7.9-4.09V9.07a.88.88,0,1,0-1.77,0v7.09h0v3.21a.89.89,0,0,0,.88.88h0a.89.89,0,0,0,.88-.88V16.05h0Zm32.95,0V9.07a.88.88,0,0,0-1.77,0v7.09h0v3.21a.89.89,0,0,0,.88.88h0a.89.89,0,0,0,.88-.88V16.05h0Zm3.21,1.31L68.93,13l-.43-.88-1-2v6h0v3.21a.89.89,0,0,0,.88.88h0a.89.89,0,0,0,.88-.88V16.05h0V13.7Zm3.32,1.93h0L70.8,12l-.43-.86-1.2-2.41a.89.89,0,1,0-1.61.78l1.18,2.41.43.88L71,16.53h0l1.58,3.18a1,1,0,0,0,1.23.48h0a.94.94,0,0,0,.37-1.26Zm1.77.43v-7a.88.88,0,0,0-1.77,0v5.75l.32.67,1.45,2.92V16.05Zm-30.62-3-1.5,2.19a.8.8,0,0,0,.32,1.1.85.85,0,0,0,1.15-.08L45.27,14h0L47,11.53l.43-.59,1.15-1.66a.8.8,0,0,0-.32-1.1.85.85,0,0,0-1.15.08L45.94,9.92l-.43.62-1.77,2.52Zm4,4.2h0L46.55,15l-.27-.54-.4-.78-.32.48-.8,1.18.24.45,1.18,2.33h0l1,2a.78.78,0,0,0,1.07.13h0c.43-.21.67-.64.51-.94Zm-3.83-5V9a.88.88,0,1,0-1.77,0v5.78l1.34-1.93Zm-1.53,4.42-.24-.19v2.89a.89.89,0,0,0,.88.88h0a.89.89,0,0,0,.88-.88V16.59a1,1,0,0,1-.78.32A1.59,1.59,0,0,1,42.35,16.64ZM60.79,8.08h0l-1.2,0h-1.9a.82.82,0,0,0-.78.91.82.82,0,0,0,.78.91H60.6c.62.05.91.91.91,1.66v.05c0,.75-.27,1.71-.91,1.77H57.69a.82.82,0,0,0-.78.91.82.82,0,0,0,.78.91h3.13v0c1.31-.19,2.25-1.63,2.25-3.59V11.5C63,9.6,62.1,8.26,60.79,8.08Zm-2.11,7.49h-1a1,1,0,0,1-.78-.32v.88h0v3.21a.89.89,0,0,0,.88.88h0a.89.89,0,0,0,.88-.88V16.05h0v-.48Zm0-2.54V10.24h-1a1,1,0,0,1-.78-.32v3.43a1.09,1.09,0,0,1,.78-.32Z"/></svg>