<svg width="42" height="66" viewBox="0 0 42 66" fill="none" xmlns="http://www.w3.org/2000/svg">
<g clip-path="url(#clip0_370_208)">
<path fill-rule="evenodd" clip-rule="evenodd" d="M21.449 65.493C21.449 65.493 0.177002 38.2118 0.177002 21.4728C0.177002 15.9218 2.38219 10.5981 6.30733 6.67299C10.2325 2.74784 15.556 0.542725 21.107 0.542725C26.658 0.542725 31.9815 2.74784 35.9067 6.67299C39.8318 10.5981 42.037 15.9218 42.037 21.4728C42.037 38.3524 21.449 65.493 21.449 65.493Z" fill="url(#paint0_linear_370_208)"/>
<path fill-rule="evenodd" clip-rule="evenodd" d="M20.9805 8.61987L24.8057 17.6095L34.5213 18.4032C32.0706 20.5864 29.6179 22.7698 27.1631 24.9534C27.897 28.1268 28.6332 31.3002 29.3713 34.4736C26.5475 32.8071 23.7255 31.1408 20.9058 29.4747C18.1628 31.159 15.4157 32.8434 12.6644 34.5277C13.4045 31.3502 14.1407 28.172 14.8726 24.9932C12.422 22.8262 9.9692 20.6587 7.5144 18.4909L17.23 17.6338L20.9805 8.61987Z" fill="white"/>
</g>
<defs>
<linearGradient id="paint0_linear_370_208" x1="21.107" y1="65.493" x2="21.107" y2="0.534017" gradientUnits="userSpaceOnUse">
<stop stop-color="#FF3F00"/>
<stop offset="1" stop-color="#FF5E00"/>
</linearGradient>
<clipPath id="clip0_370_208">
<rect width="41.8725" height="64.9597" fill="white" transform="translate(0.050293 0.533936)"/>
</clipPath>
</defs>
</svg>
