<?xml version="1.0" encoding="UTF-8"?>
<svg width="109px" height="19px" viewBox="0 0 109 19" version="1.1" xmlns="http://www.w3.org/2000/svg" xmlns:xlink="http://www.w3.org/1999/xlink">
    <!-- Generator: Sketch 51.3 (57544) - http://www.bohemiancoding.com/sketch -->
    <title>on_co</title>
    <desc>Created with Sketch.</desc>
    <defs></defs>
    <g id="Page-1" stroke="none" stroke-width="1" fill="none" fill-rule="evenodd">
        <g id="on_co">
            <g id="intera-online" transform="translate(0.212262, 0.081913)" fill-rule="nonzero">
                <path d="M18.8551239,18.8110279 C19.259902,18.5158844 19.5215677,18.0483576 19.5215677,17.5217111 L19.5215677,1.35095549 C19.5215677,0.824332256 19.2599035,0.356815492 18.8551239,0.0616755012 L34.7029423,0.0616755012 C35.5990767,0.0616755012 36.3268702,0.760601499 36.3268702,1.62392641 L36.3268702,17.2487415 C36.3268702,18.1121018 35.5990767,18.8110279 34.7029423,18.8110279 L18.8551239,18.8110279 Z" id="Combined-Shape" fill="#636567"></path>
                <g id="interac-seeklogo.com">
                    <path d="M18.8110279,17.2436024 C18.8110279,18.1098028 18.1085689,18.8110279 17.2436291,18.8110279 L1.56800387,18.8110279 C0.701818233,18.8110279 0,18.1098028 0,17.2436024 L0,1.56738989 C0,0.701225094 0.701818233,0 1.56800387,0 L17.2436291,0 C18.1085689,0 18.8110279,0.701225094 18.8110279,1.56738989 L18.8110279,17.2436024" id="Fill-1" fill="#E2A42E"></path>
                    <path d="M10.4863417,9.62137818 L10.4848352,6.24341431 L11.3505112,6.03459839 L11.3505112,6.47700263 C11.3505112,6.47700263 11.5742878,5.89488802 12.094261,5.75949676 C12.2545168,5.71862595 12.3351002,5.74307705 12.3351002,5.74307705 L12.3351002,6.60493365 C12.3351002,6.60493365 12.138687,6.596581 11.881731,6.70127455 C11.5621652,6.8301336 11.4009984,7.11051808 11.4009984,7.53896557 L11.4019094,9.40388835 L10.4863417,9.62137818" id="Fill-3" fill="#1A1919"></path>
                    <path d="M5.83350717,10.7315372 C5.83350717,10.7315372 5.69202898,10.5169432 5.69202898,9.75843521 L5.69202898,8.07969881 L5.2424176,8.18729869 L5.2424176,7.49588036 L5.69263011,7.38856555 L5.69263011,6.63501002 L6.62159122,6.41425212 L6.62159122,7.16780759 L7.27770914,7.01103957 L7.27770914,7.70149594 L6.62159122,7.85862026 C6.62159122,7.85862026 6.62067188,9.23368981 6.62159122,9.56796202 C6.62159122,10.3450327 6.82625903,10.4940693 6.82625903,10.4940693 L5.83350717,10.7315372" id="Fill-4" fill="#1A1919"></path>
                    <path d="M7.40106014,8.72638173 C7.40106014,8.12957098 7.48533336,7.69465952 7.66644168,7.36039872 C7.88140005,6.9639317 8.23474948,6.70570858 8.74929128,6.58782178 C9.76320926,6.35541739 10.1287334,6.96027878 10.114377,7.77098098 C10.1094861,8.06094557 10.1107176,8.20252316 10.1107176,8.20252316 L8.32451194,8.62544737 L8.32451194,8.65467083 C8.32451194,9.22161973 8.44270557,9.49034056 8.79876441,9.41401917 C9.10661687,9.34876297 9.19212169,9.15423554 9.21626006,8.91445439 C9.22051771,8.87505244 9.22206595,8.77684888 9.22206595,8.77684888 L10.059098,8.57466099 C10.059098,8.57466099 10.060963,8.64388933 10.0600129,8.72084913 C10.0523773,9.04312268 9.95955359,9.84247591 8.7966532,10.1191765 C7.69511925,10.3829322 7.40106014,9.70455123 7.40106014,8.72638173 M8.78627296,7.21265012 C8.49034897,7.28035348 8.33524397,7.57276517 8.32848804,8.05786007 L9.22723843,7.84208894 C9.22875151,7.82024231 9.22875151,7.77158386 9.22875151,7.6959008 C9.22723843,7.33021769 9.11485068,7.13725083 8.78627296,7.21265012" id="Fill-5" fill="#1A1919"></path>
                    <path d="M15.5451615,6.74291396 C15.5102742,5.70931587 15.7756806,4.88897089 16.9189231,4.62820467 C17.6485685,4.46106615 17.9251061,4.65215844 18.0652242,4.83668855 C18.1997944,5.0131504 18.2519653,5.25093103 18.2519653,5.58391716 L18.2528899,5.64555867 L17.3575212,5.85995928 C17.3575212,5.85995928 17.3572012,5.73796716 17.3572012,5.73420198 C17.3575212,5.33900059 17.2491964,5.18896679 16.9646216,5.26086396 C16.6263111,5.34645925 16.4895715,5.67012205 16.4895715,6.31400519 C16.4895715,6.54274939 16.4908518,6.58352097 16.4908518,6.61432381 C16.4908518,7.26853435 16.5797236,7.56820747 16.9692447,7.48573191 C17.3074841,7.41541252 17.3537871,7.11570351 17.3593349,6.85339538 C17.359975,6.81197831 17.3618243,6.67998151 17.3618243,6.67998151 L18.2550593,6.46744558 C18.2550593,6.46744558 18.2559483,6.53435838 18.2559483,6.60783333 C18.2534945,7.46550752 17.8053656,8.00640377 16.9646216,8.20341277 C15.8075095,8.47730337 15.5806533,7.80222295 15.5451615,6.74291396" id="Fill-6" fill="#1A1919"></path>
                    <path d="M12.3967757,8.19593967 C12.3967757,7.41312011 12.8559366,7.16542136 13.5459274,6.87985689 C14.166198,6.62319182 14.1791924,6.49577017 14.1819769,6.27221973 C14.1854041,6.08467741 14.0986554,5.92374824 13.7897518,6.00251601 C13.5059445,6.0744251 13.4306552,6.2805788 13.4154832,6.44490158 C13.4071296,6.53324297 13.4099141,6.61851219 13.4099141,6.61851219 L12.5399288,6.82405857 C12.5399288,6.82405857 12.5259705,6.55556944 12.6000103,6.30944244 C12.7391294,5.84126533 13.1521314,5.52630138 13.8641128,5.3613713 C14.7892531,5.14807315 15.0981568,5.55420054 15.0996919,6.186629 L15.0996919,7.68375264 C15.0996919,8.40802322 15.2338488,8.51372565 15.2338488,8.51372565 L14.3796425,8.71619997 C14.3796425,8.71619997 14.299748,8.55094836 14.2646916,8.40891628 C14.2646916,8.40891628 14.0778786,8.88020124 13.4331185,9.0320927 C12.7558723,9.19173585 12.3967757,8.77228403 12.3967757,8.19593967 M14.1764079,7.12694837 C14.1764079,7.12694837 13.9985554,7.2580851 13.7215666,7.39297269 C13.4371882,7.53246849 13.3079577,7.70425727 13.3079577,7.96838828 C13.3079577,8.1974757 13.4501826,8.3481883 13.707644,8.28399527 C13.9843115,8.214551 14.1764079,7.95627842 14.1764079,7.59791181 L14.1764079,7.12694837" id="Fill-7" fill="#1A1919"></path>
                    <path d="M0.964410906,13.0752062 C0.670771581,13.0752062 0.431728508,12.8273518 0.431728508,12.5218966 C0.431728508,12.4147104 0.461310264,12.3113132 0.517733422,12.220522 L0.523530322,12.2129438 L0.533578282,12.21043 L1.78858953,11.9033717 L1.78858953,12.8915105 L1.76877468,12.8962468 C1.48426986,12.9674007 1.1443256,13.0480272 1.07388448,13.0628919 C1.03882202,13.0714537 1.00130027,13.0752062 0.964410906,13.0752062" id="Fill-8" fill="#1A1919"></path>
                    <path d="M0.964410906,14.3703918 C0.670771581,14.3703918 0.431728508,14.123379 0.431728508,13.8184943 C0.431728508,13.7099662 0.461310264,13.6065401 0.517733422,13.5180193 L0.523530322,13.508216 L0.533578282,13.505993 L1.78858953,13.1985573 L1.78858953,14.1872641 L1.76877468,14.1926213 C1.48426986,14.2635036 1.1443256,14.3454281 1.07388448,14.3596774 C1.03882202,14.3669297 1.00130027,14.3703918 0.964410906,14.3703918" id="Fill-9" fill="#1A1919"></path>
                    <path d="M0.964410906,15.6039018 C0.670771581,15.6039018 0.431728508,15.3563717 0.431728508,15.0513297 C0.431728508,14.9431901 0.461310264,14.8392391 0.517733422,14.7510227 L0.523530322,14.7409336 L1.78858953,14.4320673 L1.78858953,15.4202211 L1.76877468,15.4252474 C1.468425,15.5004971 1.13452356,15.5786243 1.07388448,15.5928293 C1.03882202,15.599786 1.00130027,15.6039018 0.964410906,15.6039018" id="Fill-10" fill="#1A1919"></path>
                    <polyline id="Fill-11" fill="#1A1919" points="0.802102407 11.9033717 0.801781515 6.5228636 1.78858953 6.29090112 1.78858953 11.6711257 0.802102407 11.9033717"></polyline>
                    <path d="M3.25998947,11.4603797 C3.25998947,11.1266873 2.98547152,10.8548882 2.64812463,10.8548882 C2.3088771,10.8548882 2.03529154,11.1266873 2.03529154,11.4603797 L2.03590118,16.4927585 C2.03590118,17.3959415 2.77973546,18.1325973 3.69322937,18.1325973 C4.15662859,18.1325973 5.4261531,18.1304337 5.4261531,18.1304337 L5.4267986,16.0310584 C5.42712135,14.8840615 5.4274441,13.7164571 5.4274441,13.6899973 C5.4274441,13.4242989 5.29482916,13.178073 5.07137764,13.0299898 L3.52640278,11.992273 C3.52640278,11.992273 3.52608003,14.2456193 3.52608003,14.3487277 C3.52608003,14.4210845 3.4672317,14.4801759 3.39411059,14.4801759 C3.32159912,14.4801759 3.2631094,14.4210845 3.2631094,14.3487277 C3.2631094,14.3235093 3.25998947,11.7715848 3.25998947,11.4603797" id="Fill-12" fill="#1A1919"></path>
                    <path d="M4.12239856,7.68448146 C3.48088131,7.83171537 3.23784428,8.36460768 3.23784428,8.36460768 L3.23784428,7.98362842 L2.34366904,8.19412074 L2.34460242,10.6279088 C2.44867397,10.586689 2.56268957,10.5640788 2.68205414,10.5640788 C2.91353165,10.5640788 3.12443897,10.6495903 3.2861645,10.7916091 L3.2861645,9.22022148 C3.2861645,8.84388571 3.47495796,8.54316713 3.74351926,8.48426647 C3.94602619,8.43993912 4.11489564,8.51216304 4.11489564,8.87053212 L4.11550593,11.1632657 L5.0573911,10.9432007 L5.0573911,8.5180924 C5.0573911,7.93001416 4.83054457,7.51956672 4.12239856,7.68448146" id="Fill-13" fill="#1A1919"></path>
                    <path d="M17.6700311,4.25560958 C17.3472562,4.25560958 17.0841138,3.99264197 17.0841138,3.67012566 C17.0841138,3.34703156 17.3472562,3.08377506 17.6700311,3.08377506 C17.992806,3.08377506 18.2559483,3.34703156 18.2559483,3.67012566 C18.2559483,3.99264197 17.992806,4.25560958 17.6700311,4.25560958 M17.6700311,3.15740743 C17.3877702,3.15740743 17.157227,3.3874409 17.157227,3.67012566 C17.157227,3.95284654 17.3877702,4.1822661 17.6700311,4.1822661 C17.9526173,4.1822661 18.1825822,3.95284654 18.1825822,3.67012566 C18.1825822,3.3874409 17.9526173,3.15740743 17.6700311,3.15740743" id="Fill-14" fill="#1A1919"></path>
                    <path d="M17.4541668,3.26880156 L17.6887721,3.26880156 C17.7820916,3.26880156 17.8573903,3.31634822 17.8573903,3.44302512 C17.8573903,3.53102754 17.8190041,3.59878496 17.7466529,3.61039758 L17.7466529,3.61156227 C17.8123049,3.61844763 17.8469396,3.6555806 17.8503897,3.75101648 C17.8515621,3.79414417 17.852165,3.84734299 17.8542083,3.88896344 C17.8565194,3.9222598 17.8719276,3.93832564 17.8858953,3.94723207 L17.766382,3.94723207 C17.7553284,3.93445477 17.7507059,3.91451806 17.7483612,3.8871479 C17.7442747,3.84645234 17.7451791,3.80839447 17.7437388,3.75903226 C17.7419635,3.68500609 17.7198897,3.65263463 17.6469022,3.65263463 L17.5605833,3.65263463 L17.5605833,3.94723207 L17.4541668,3.94723207 L17.4541668,3.26880156 Z M17.6448924,3.57114075 C17.713224,3.57114075 17.7507059,3.529212 17.7507059,3.46052969 C17.7507059,3.38831906 17.7207606,3.35084352 17.6506872,3.35084352 L17.5605833,3.35084352 L17.5605833,3.57114075 L17.6448924,3.57114075 Z" id="Fill-15" fill="#1A1919"></path>
                </g>
                <path d="M23.9581665,9.57574528 C23.9581665,9.91875926 23.8971412,10.222314 23.7750887,10.4864187 C23.6530363,10.7505234 23.4796163,10.9538326 23.2548235,11.0963525 C23.0300307,11.2388724 22.7739562,11.3101312 22.4865922,11.3101312 C22.1992283,11.3101312 21.9443124,11.2412879 21.7218371,11.1035992 C21.4993617,10.9659105 21.3259417,10.7690428 21.2015718,10.5129901 C21.0772019,10.2569374 21.011928,9.96304486 21.0057482,9.63130362 L21.0057482,9.43322609 C21.0057482,9.08860171 21.0663872,8.78464436 21.1876672,8.52134492 C21.3089471,8.25804542 21.4827534,8.0547362 21.7090911,7.9114111 C21.9354289,7.76808599 22.1930484,7.69642455 22.4819573,7.69642455 C22.7677763,7.69642455 23.0226922,7.76728082 23.2467125,7.90899551 C23.4707328,8.05071021 23.6449253,8.25240908 23.7692951,8.51409817 C23.8936651,8.7757872 23.9566215,9.07571868 23.9581665,9.41390149 L23.9581665,9.57574528 Z M23.1308405,9.42839492 C23.1308405,9.07893937 23.0748363,8.81363092 22.9628261,8.63246154 C22.8508159,8.45129216 22.690528,8.36070886 22.4819573,8.36070886 C22.0740859,8.36070886 21.8585662,8.67956213 21.8353916,9.3172783 L21.8330742,9.57574528 C21.8330742,9.92036966 21.8879197,10.1852756 21.9976124,10.3704709 C22.1073051,10.5556662 22.2702968,10.6482625 22.4865922,10.6482625 C22.6920729,10.6482625 22.8504297,10.5572766 22.9616674,10.375302 C23.072905,10.1933275 23.1292955,9.93164234 23.1308405,9.59023878 L23.1308405,9.42839492 Z M25.0589505,8.64816283 L25.0844422,8.9549414 C25.2574787,8.71821343 25.4961725,8.59985124 25.8005312,8.59985124 C26.0616307,8.59985124 26.2566799,8.68117489 26.3856847,8.84382472 C26.5146895,9.00647455 26.5815084,9.2512508 26.5861433,9.57816086 L26.5861433,11.2618196 L25.8028486,11.2618196 L25.8028486,9.61197896 C25.8028486,9.47992665 25.7773571,9.38290184 25.7263731,9.32090168 C25.6753892,9.25890146 25.5826925,9.22790187 25.4482803,9.22790187 C25.2953285,9.22790187 25.1817751,9.29070628 25.1076167,9.41631707 L25.1076167,11.2618196 L24.3266394,11.2618196 L24.3266394,8.64816283 L25.0589505,8.64816283 Z M27.8421957,11.2618196 L27.058901,11.2618196 L27.058901,7.55148977 L27.8421957,7.55148977 L27.8421957,11.2618196 Z M29.1469143,11.2618196 L28.3636197,11.2618196 L28.3636197,8.64816283 L29.1469143,8.64816283 L29.1469143,11.2618196 Z M28.3172708,7.97421619 C28.3172708,7.85826779 28.3574394,7.76325594 28.4377777,7.6891778 C28.5181161,7.61509966 28.6223998,7.57806118 28.7506321,7.57806118 C28.8788644,7.57806118 28.9831482,7.61509966 29.0634865,7.6891778 C29.1438248,7.76325594 29.1839933,7.85826779 29.1839933,7.97421619 C29.1839933,8.09016459 29.1438248,8.18517637 29.0634865,8.25925451 C28.9831482,8.33333265 28.8788644,8.37037119 28.7506321,8.37037119 C28.6223998,8.37037119 28.5181161,8.33333265 28.4377777,8.25925451 C28.3574394,8.18517637 28.3172708,8.09016459 28.3172708,7.97421619 Z M30.3450307,8.64816283 L30.3705225,8.9549414 C30.5435589,8.71821343 30.7822528,8.59985124 31.0866115,8.59985124 C31.347711,8.59985124 31.5427602,8.68117489 31.671765,8.84382472 C31.8007698,9.00647455 31.8675887,9.2512508 31.8722236,9.57816086 L31.8722236,11.2618196 L31.0889289,11.2618196 L31.0889289,9.61197896 C31.0889289,9.47992665 31.0634373,9.38290184 31.0124534,9.32090168 C30.9614694,9.25890146 30.8687728,9.22790187 30.7343606,9.22790187 C30.5814088,9.22790187 30.4678554,9.29070628 30.393697,9.41631707 L30.393697,11.2618196 L29.6127197,11.2618196 L29.6127197,8.64816283 L30.3450307,8.64816283 Z M33.5176058,11.3101312 C33.1329089,11.3101312 32.8216026,11.1905613 32.5836776,10.9514177 C32.3457526,10.7122742 32.2267919,10.4010701 32.2267919,10.0177963 L32.2267919,9.9501601 C32.2267919,9.68283461 32.2742989,9.4469154 32.3693144,9.2423953 C32.4643299,9.03787527 32.6029887,8.87965639 32.7852948,8.76773399 C32.967601,8.65581158 33.1838932,8.59985124 33.434178,8.59985124 C33.7864306,8.59985124 34.0645206,8.71378488 34.2684564,8.94165569 C34.4723921,9.1695265 34.5743584,9.48717198 34.5743584,9.89460176 L34.5743584,10.2110427 L33.0216737,10.2110427 C33.0494832,10.3575885 33.1105085,10.47273 33.2047515,10.5564705 C33.2989945,10.640211 33.4210451,10.6820806 33.570907,10.6820806 C33.8181018,10.6820806 34.0112198,10.5918999 34.1502669,10.4115357 L34.5071527,10.8511712 C34.4098197,10.9912755 34.2719334,11.1027936 34.0934896,11.1857289 C33.9150459,11.2686642 33.7230866,11.3101312 33.5176058,11.3101312 Z M33.4295431,9.22790187 C33.2008879,9.22790187 33.0649328,9.38571813 33.0216737,9.7013554 L33.8096033,9.7013554 L33.8096033,9.63855037 C33.8126932,9.50810841 33.7810218,9.40705767 33.7145882,9.33539511 C33.6481546,9.26373256 33.5531405,9.22790187 33.4295431,9.22790187 Z" id="Online" fill="#FFFFFF"></path>
            </g>
            <g id="Group" transform="translate(39.660884, 4.367628)">
                <path d="M2.70808521,2.76337382 C2.80555159,2.76337382 2.89431435,2.73204581 2.97437597,2.66938886 C3.05443759,2.6067319 3.09446788,2.52319055 3.09446788,2.41876229 C3.09446788,2.30737215 3.04921626,2.22731169 2.95871178,2.1785785 C2.86820731,2.12984531 2.78466597,2.10547908 2.70808521,2.10547908 L2.21727493,2.10547908 L2.21727493,2.76337382 L2.70808521,2.76337382 Z M3.16756731,4.25669044 L2.59321474,3.22285586 L2.21727493,3.22285586 L2.21727493,4.25669044 L1.58026569,4.25669044 L1.58026569,1.5833404 L2.72897083,1.5833404 C2.85428474,1.5833404 2.97611588,1.59726396 3.09446788,1.6251115 C3.21281988,1.65295903 3.3207275,1.6982106 3.41819388,1.76086755 C3.51566026,1.82352451 3.59398026,1.90880631 3.65315626,2.01671551 C3.71233226,2.12462471 3.74191988,2.25863896 3.74191988,2.41876229 C3.74191988,2.59977127 3.69144693,2.74944953 3.59049959,2.86780155 C3.48955226,2.98615358 3.36249978,3.07317582 3.20933835,3.1288709 L3.91944702,4.25669044 L3.16756731,4.25669044 Z M0.212262354,2.95134375 C0.212262354,2.6241352 0.274918354,2.31607646 0.400232259,2.02715828 C0.525546164,1.7382401 0.696109783,1.48761604 0.911928164,1.27527858 C1.12774654,1.06294113 1.38011112,0.894117974 1.66902931,0.76880406 C1.9579475,0.643490155 2.26600616,0.580834136 2.59321474,0.580834136 C2.92042331,0.580834136 3.22848197,0.643490155 3.51740016,0.76880406 C3.80631835,0.894117974 4.05868293,1.06294113 4.27450131,1.27527858 C4.49031969,1.48761604 4.66088331,1.7382401 4.78619721,2.02715828 C4.91151112,2.31607646 4.97416712,2.6241352 4.97416712,2.95134375 C4.97416712,3.27855229 4.91151112,3.58487058 4.78619721,3.87030782 C4.66088331,4.15574506 4.49031969,4.40462868 4.27450131,4.61696614 C4.05868293,4.82930359 3.80631835,4.9963863 3.51740016,5.11821927 C3.22848197,5.24005223 2.92042331,5.3009678 2.59321474,5.3009678 C2.26600616,5.3009678 1.9579475,5.24005223 1.66902931,5.11821927 C1.38011112,4.9963863 1.12774654,4.82930359 0.911928164,4.61696614 C0.696109783,4.40462868 0.525546164,4.15574506 0.400232259,3.87030782 C0.274918354,3.58487058 0.212262354,3.27855229 0.212262354,2.95134375 Z M0.588202164,2.95134375 C0.588202164,3.22285721 0.640415593,3.48044305 0.744843783,3.72410899 C0.849272069,3.96777493 0.991988545,4.18184964 1.1729975,4.36633956 C1.35400654,4.55082949 1.56634074,4.69528641 1.81000674,4.79971467 C2.05367264,4.90414293 2.3147394,4.95635628 2.59321474,4.95635628 C2.87169007,4.95635628 3.13275683,4.90414293 3.37642274,4.79971467 C3.62008874,4.69528641 3.83242293,4.55082949 4.01343197,4.36633956 C4.19444093,4.18184964 4.3371574,3.96777493 4.44158569,3.72410899 C4.54601388,3.48044305 4.59822731,3.22285721 4.59822731,2.95134375 C4.59822731,2.67286838 4.54601388,2.41180166 4.44158569,2.16813573 C4.3371574,1.92446978 4.19444093,1.71213552 4.01343197,1.53112654 C3.83242293,1.35011755 3.62008874,1.20740108 3.37642274,1.10297281 C3.13275683,0.998544555 2.87169007,0.946331212 2.59321474,0.946331212 C2.3147394,0.946331212 2.05367264,0.998544555 1.81000674,1.10297281 C1.56634074,1.20740108 1.35400654,1.35011755 1.1729975,1.53112654 C0.991988545,1.71213552 0.849272069,1.92446978 0.744843783,2.16813573 C0.640415593,2.41180166 0.588202164,2.67286838 0.588202164,2.95134375 Z" id="®" fill="#616161" fill-rule="nonzero"></path>
                <path d="M7.9926753,4.1957334 L7.9926753,1.36370215 L6.98123557,1.36370215 L6.98123557,0.787065243 L9.69003393,0.787065243 L9.69003393,1.36370215 L8.68091935,1.36370215 L8.68091935,4.1957334 L7.9926753,4.1957334 Z M10.7549521,4.1957334 L10.1015853,4.1957334 L10.1015853,1.72642536 L10.7084491,1.72642536 L10.7084491,2.07752283 C10.8123063,1.91166139 10.9056988,1.80238049 10.9886295,1.74967685 C11.0715603,1.69697321 11.1657278,1.67062179 11.2711351,1.67062179 C11.4199454,1.67062179 11.5633281,1.71169901 11.7012877,1.79385468 L11.4989997,2.36351614 C11.3889421,2.29221122 11.2866366,2.25655929 11.1920801,2.25655929 C11.1006238,2.25655929 11.0231196,2.28174815 10.9595652,2.33212663 C10.8960108,2.3825051 10.8460206,2.47357252 10.8095931,2.60533161 C10.7731656,2.7370907 10.7549521,3.0130056 10.7549521,3.43308459 L10.7549521,4.1957334 Z M12.4709119,2.47977358 L11.877999,2.37281673 C11.9446536,2.13410026 12.0593598,1.95739072 12.222121,1.8426828 C12.3848822,1.72797489 12.6266953,1.67062179 12.9475674,1.67062179 C13.2389875,1.67062179 13.4559992,1.70511115 13.5986091,1.77409091 C13.7412189,1.84307067 13.8415868,1.9306504 13.8997159,2.03683273 C13.9578449,2.14301505 13.9869089,2.33793808 13.9869089,2.62160765 L13.9799335,3.38425646 C13.9799335,3.60127144 13.9903966,3.76131758 14.011323,3.86439969 C14.0322494,3.9674818 14.0713891,4.07792527 14.128743,4.1957334 L13.4823516,4.1957334 C13.4653005,4.1523304 13.4443743,4.08800193 13.4195726,4.00274605 C13.4087219,3.96399337 13.4009715,3.93841699 13.3963211,3.92601614 C13.2847134,4.03452362 13.165357,4.11590302 13.0382482,4.17015676 C12.9111394,4.2244105 12.7755071,4.25153697 12.6313472,4.25153697 C12.3771296,4.25153697 12.1767813,4.18255824 12.0302962,4.04459872 C11.8838111,3.90663921 11.8105696,3.73225479 11.8105696,3.52144024 C11.8105696,3.38193062 11.8438964,3.2575364 11.910551,3.14825386 C11.9772056,3.03897132 12.0705982,2.9552668 12.1907315,2.89713779 C12.3108648,2.83900878 12.4840866,2.78824354 12.7104022,2.74484054 C13.0157733,2.68748658 13.2273597,2.6340087 13.3451679,2.58440527 L13.3451679,2.51930111 C13.3451679,2.39374244 13.3141662,2.30422511 13.2521619,2.25074642 C13.1901576,2.19726773 13.0731263,2.17052878 12.9010644,2.17052878 C12.7848064,2.17052878 12.6941265,2.19339252 12.629022,2.23912067 C12.5639175,2.28484883 12.5112147,2.36506566 12.4709119,2.47977358 Z M13.3451679,3.0099075 C13.2614621,3.03780943 13.1289299,3.07113623 12.9475674,3.1098889 C12.7662049,3.14864158 12.6476235,3.18661863 12.5918196,3.2238212 C12.5065638,3.28427537 12.4639365,3.36100451 12.4639365,3.45401093 C12.4639365,3.54546724 12.4980383,3.62452151 12.566243,3.69117611 C12.6344477,3.7578307 12.7212524,3.7911575 12.8266597,3.7911575 C12.9444678,3.7911575 13.0568489,3.75240541 13.1638063,3.67490006 C13.2428617,3.615996 13.2947895,3.54391711 13.3195912,3.45866122 C13.3366424,3.40285737 13.3451679,3.29667664 13.3451679,3.14011584 L13.3451679,3.0099075 Z M16.8956701,4.1957334 L16.2888063,4.1957334 L16.2888063,3.83301018 C16.1880493,3.97406992 16.0690804,4.07908809 15.9318959,4.14806785 C15.7947114,4.21704761 15.6563665,4.25153697 15.5168568,4.25153697 C15.2331873,4.25153697 14.9902117,4.1372183 14.7879227,3.90857752 C14.5856337,3.67993674 14.4844908,3.36100702 14.4844908,2.95177878 C14.4844908,2.53324991 14.5829211,2.21509523 14.7797847,1.9973052 C14.9766483,1.77951517 15.2254367,1.67062179 15.5261574,1.67062179 C15.8020765,1.67062179 16.0407894,1.78532798 16.2423033,2.01474381 L16.2423033,0.787065243 L16.8956701,0.787065243 L16.8956701,4.1957334 Z M15.1518085,2.90760096 C15.1518085,3.17111914 15.1882355,3.36177944 15.2610905,3.47958756 C15.3664978,3.65009933 15.5137557,3.73535393 15.7028688,3.73535393 C15.8532291,3.73535393 15.981111,3.67141298 16.0865183,3.54352916 C16.1919256,3.41564533 16.2446284,3.22459752 16.2446284,2.97037997 C16.2446284,2.6867104 16.1934757,2.48248687 16.0911686,2.35770326 C15.9888615,2.23291965 15.8578795,2.17052878 15.6982185,2.17052878 C15.5432078,2.17052878 15.4133882,2.23214461 15.308756,2.35537811 C15.2041238,2.47861162 15.1518085,2.66268406 15.1518085,2.90760096 Z M18.9697028,3.4098331 L19.6207445,3.51911509 C19.5370387,3.75783157 19.4048941,3.93957888 19.2243066,4.06436249 C19.0437192,4.1891461 18.8177945,4.25153697 18.5465257,4.25153697 C18.1171461,4.25153697 17.799379,4.11125439 17.5932147,3.83068503 C17.4304535,3.60591953 17.3490741,3.32225421 17.3490741,2.97968057 C17.3490741,2.57045233 17.4560299,2.24997253 17.6699446,2.01823154 C17.8838594,1.78649055 18.154349,1.67062179 18.4814216,1.67062179 C18.8487969,1.67062179 19.1386626,1.79191584 19.3510272,2.03450758 C19.5633919,2.27709932 19.6649224,2.64873189 19.6556217,3.14941643 L18.018717,3.14941643 C18.0233673,3.3431798 18.0760701,3.49392544 18.1768271,3.60165788 C18.277584,3.70939031 18.4031408,3.76325572 18.5535012,3.76325572 C18.6558083,3.76325572 18.7418379,3.73535421 18.8115927,3.67955036 C18.8813475,3.62374651 18.9340504,3.53384166 18.9697028,3.4098331 Z M19.0069052,2.74949084 C19.0022549,2.56037779 18.9534273,2.41660753 18.8604208,2.31817573 C18.7674144,2.21974394 18.6542583,2.17052878 18.5209491,2.17052878 C18.3783393,2.17052878 18.2605329,2.22245659 18.1675265,2.32631375 C18.0745201,2.43017092 18.0287926,2.57122854 18.0303427,2.74949084 L19.0069052,2.74949084 Z M20.113676,3.28660021 L20.113676,2.6332334 L21.3971582,2.6332334 L21.3971582,3.28660021 L20.113676,3.28660021 Z M21.7250042,1.72642536 L22.3272177,1.72642536 L22.3272177,2.06357194 C22.5426826,1.80160386 22.7992214,1.67062179 23.096842,1.67062179 C23.2549529,1.67062179 23.3921353,1.70317355 23.5083933,1.76827804 C23.6246513,1.83338253 23.7199815,1.93181285 23.7943866,2.06357194 C23.9028941,1.93181285 24.0199254,1.83338253 24.1454841,1.76827804 C24.2710427,1.70317355 24.405125,1.67062179 24.5477348,1.67062179 C24.7290973,1.67062179 24.8825556,1.70743628 25.0081143,1.78106636 C25.133673,1.85469644 25.227453,1.96281478 25.2894573,2.10542462 C25.3344104,2.21083189 25.3568866,2.3813411 25.3568866,2.61695736 L25.3568866,4.1957334 L24.7035198,4.1957334 L24.7035198,2.78436807 C24.7035198,2.53945117 24.6810436,2.38134263 24.6360905,2.31003771 C24.5756363,2.2170313 24.4826313,2.17052878 24.3570726,2.17052878 C24.2656163,2.17052878 24.1795867,2.19843029 24.0989811,2.25423414 C24.0183755,2.31003799 23.9602474,2.39180491 23.9245949,2.49953734 C23.8889425,2.60726977 23.8711165,2.77739146 23.8711165,3.0099075 L23.8711165,4.1957334 L23.2177497,4.1957334 L23.2177497,2.84249679 C23.2177497,2.60223021 23.2061241,2.44722184 23.1828725,2.37746703 C23.1596209,2.30771222 23.1235814,2.25578441 23.0747531,2.22168206 C23.0259247,2.18757971 22.9596586,2.17052878 22.8759528,2.17052878 C22.7751959,2.17052878 22.684516,2.19765525 22.6039104,2.25190899 C22.5233049,2.30616274 22.4655642,2.38444196 22.4306868,2.48674902 C22.3958094,2.58905608 22.378371,2.75879025 22.378371,2.99595661 L22.378371,4.1957334 L21.7250042,4.1957334 L21.7250042,1.72642536 Z M26.4962095,2.47977358 L25.9032966,2.37281673 C25.9699512,2.13410026 26.0846574,1.95739072 26.2474186,1.8426828 C26.4101798,1.72797489 26.6519929,1.67062179 26.972865,1.67062179 C27.2642851,1.67062179 27.4812969,1.70511115 27.6239067,1.77409091 C27.7665165,1.84307067 27.8668845,1.9306504 27.9250135,2.03683273 C27.9831425,2.14301505 28.0122066,2.33793808 28.0122066,2.62160765 L28.0052311,3.38425646 C28.0052311,3.60127144 28.0156942,3.76131758 28.0366206,3.86439969 C28.0575471,3.9674818 28.0966867,4.07792527 28.1540406,4.1957334 L27.5076493,4.1957334 C27.4905981,4.1523304 27.469672,4.08800193 27.4448702,4.00274605 C27.4340195,3.96399337 27.4262691,3.93841699 27.4216188,3.92601614 C27.3100111,4.03452362 27.1906546,4.11590302 27.0635458,4.17015676 C26.9364371,4.2244105 26.8008047,4.25153697 26.6566448,4.25153697 C26.4024273,4.25153697 26.2020789,4.18255824 26.0555938,4.04459872 C25.9091087,3.90663921 25.8358673,3.73225479 25.8358673,3.52144024 C25.8358673,3.38193062 25.8691941,3.2575364 25.9358487,3.14825386 C26.0025033,3.03897132 26.0958958,2.9552668 26.2160291,2.89713779 C26.3361624,2.83900878 26.5093842,2.78824354 26.7356999,2.74484054 C27.0410709,2.68748658 27.2526574,2.6340087 27.3704655,2.58440527 L27.3704655,2.51930111 C27.3704655,2.39374244 27.3394638,2.30422511 27.2774595,2.25074642 C27.2154552,2.19726773 27.0984239,2.17052878 26.9263621,2.17052878 C26.810104,2.17052878 26.7194241,2.19339252 26.6543196,2.23912067 C26.5892152,2.28484883 26.5365123,2.36506566 26.4962095,2.47977358 Z M27.3704655,3.0099075 C27.2867597,3.03780943 27.1542275,3.07113623 26.972865,3.1098889 C26.7915025,3.14864158 26.6729211,3.18661863 26.6171173,3.2238212 C26.5318614,3.28427537 26.4892341,3.36100451 26.4892341,3.45401093 C26.4892341,3.54546724 26.5233359,3.62452151 26.5915406,3.69117611 C26.6597453,3.7578307 26.74655,3.7911575 26.8519573,3.7911575 C26.9697654,3.7911575 27.0821465,3.75240541 27.1891039,3.67490006 C27.2681593,3.615996 27.3200871,3.54391711 27.3448888,3.45866122 C27.36194,3.40285737 27.3704655,3.29667664 27.3704655,3.14011584 L27.3704655,3.0099075 Z M29.2817378,4.1957334 L28.628371,4.1957334 L28.628371,1.72642536 L29.2352348,1.72642536 L29.2352348,2.07752283 C29.339092,1.91166139 29.4324845,1.80238049 29.5154153,1.74967685 C29.598346,1.69697321 29.6925136,1.67062179 29.7979208,1.67062179 C29.9467311,1.67062179 30.0901138,1.71169901 30.2280734,1.79385468 L30.0257854,2.36351614 C29.9157278,2.29221122 29.8134223,2.25655929 29.7188658,2.25655929 C29.6274095,2.25655929 29.5499053,2.28174815 29.4863509,2.33212663 C29.4227965,2.3825051 29.3728063,2.47357252 29.3363788,2.60533161 C29.2999513,2.7370907 29.2817378,3.0130056 29.2817378,3.43308459 L29.2817378,4.1957334 Z M30.4861649,4.1957334 L30.4861649,0.787065243 L31.1395317,0.787065243 L31.1395317,2.59603102 L31.9045057,1.72642536 L32.7090071,1.72642536 L31.8649781,2.6285831 L32.769461,4.1957334 L32.0649409,4.1957334 L31.4441262,3.08663742 L31.1395317,3.4051828 L31.1395317,4.1957334 L30.4861649,4.1957334 Z M34.3296359,2.92620215 C34.3296359,2.70918717 34.3831138,2.49915083 34.4900711,2.29608682 C34.5970285,2.09302281 34.7485492,1.93801444 34.9446377,1.83105706 C35.1407263,1.72409968 35.3596756,1.67062179 35.6014923,1.67062179 C35.975068,1.67062179 36.2812096,1.79191584 36.519926,2.03450758 C36.7586425,2.27709932 36.877999,2.58362837 36.877999,2.95410393 C36.877999,3.32767971 36.75748,3.63730893 36.5164383,3.88300088 C36.2753967,4.12869284 35.9719678,4.25153697 35.6061426,4.25153697 C35.3798269,4.25153697 35.1639778,4.20038421 34.9585886,4.09807715 C34.7531994,3.99577009 34.5970285,3.84579949 34.4900711,3.64816085 C34.3831138,3.45052222 34.3296359,3.20987172 34.3296359,2.92620215 Z M34.9992787,2.96107938 C34.9992787,3.20599628 35.0574069,3.39355641 35.1736649,3.52376539 C35.2899229,3.65397438 35.4333056,3.71907789 35.6038174,3.71907789 C35.7743292,3.71907789 35.9173244,3.65397438 36.0328074,3.52376539 C36.1482903,3.39355641 36.206031,3.2044462 36.206031,2.95642908 C36.206031,2.7146124 36.1482903,2.52860235 36.0328074,2.39839337 C35.9173244,2.26818438 35.7743292,2.20308087 35.6038174,2.20308087 C35.4333056,2.20308087 35.2899229,2.26818438 35.1736649,2.39839337 C35.0574069,2.52860235 34.9992787,2.71616248 34.9992787,2.96107938 Z M37.1035384,1.72642536 L37.4662616,1.72642536 L37.4662616,1.54041346 C37.4662616,1.33269912 37.4883503,1.17769075 37.5325284,1.0753837 C37.5767064,0.973076636 37.6580858,0.889759637 37.776669,0.825430198 C37.8952522,0.761100759 38.0452228,0.728936522 38.2265853,0.728936522 C38.4125981,0.728936522 38.5947329,0.756838029 38.7729952,0.81264188 L38.6846396,1.26837105 C38.5807824,1.24356933 38.480802,1.23116867 38.3846954,1.23116867 C38.2901389,1.23116867 38.2223227,1.25325736 38.1812449,1.29743541 C38.140167,1.34161345 38.1196284,1.42648054 38.1196284,1.5520392 L38.1196284,1.72642536 L38.6079097,1.72642536 L38.6079097,2.24028325 L38.1196284,2.24028325 L38.1196284,4.1957334 L37.4662616,4.1957334 L37.4662616,2.24028325 L37.1035384,2.24028325 L37.1035384,1.72642536 Z M40.2820168,4.1957334 L40.2820168,0.787065243 L40.9702609,0.787065243 L40.9702609,4.1957334 L40.2820168,4.1957334 Z M43.8673963,4.1957334 L43.2140295,4.1957334 L43.2140295,2.93550274 C43.2140295,2.66888435 43.2000787,2.49643753 43.1721768,2.41815713 C43.1442749,2.33987673 43.0989349,2.27903595 43.0361556,2.23563295 C42.9733763,2.19222996 42.8978097,2.17052878 42.8094536,2.17052878 C42.6962958,2.17052878 42.5947653,2.20153046 42.5048591,2.26353474 C42.4149529,2.32553901 42.353337,2.40769345 42.3200098,2.51000051 C42.2866825,2.61230757 42.2700191,2.80141778 42.2700191,3.07733682 L42.2700191,4.1957334 L41.6166522,4.1957334 L41.6166522,1.72642536 L42.2235161,1.72642536 L42.2235161,2.08914858 C42.4389809,1.81012932 42.7102456,1.67062179 43.0373182,1.67062179 C43.1814781,1.67062179 43.3132352,1.69658569 43.4325935,1.74851428 C43.5519517,1.80044286 43.6422441,1.86670894 43.7034733,1.9473145 C43.7647025,2.02792006 43.8073298,2.119375 43.8313565,2.22168206 C43.8553831,2.32398912 43.8673963,2.47047203 43.8673963,2.66113518 L43.8673963,4.1957334 Z M45.6624112,1.72642536 L45.6624112,2.2472587 L45.2159826,2.2472587 L45.2159826,3.24242239 C45.2159826,3.44393629 45.2202453,3.56135513 45.2287709,3.59468243 C45.2372965,3.62800973 45.2566725,3.65552372 45.2868996,3.67722521 C45.3171267,3.69892671 45.3539412,3.7097773 45.3973442,3.7097773 C45.4577984,3.7097773 45.5453781,3.68885117 45.660086,3.64699828 L45.7158896,4.15388072 C45.5639791,4.21898521 45.3919198,4.25153697 45.1997066,4.25153697 C45.0818984,4.25153697 44.9757177,4.2317734 44.8811612,4.19224567 C44.7866046,4.15271795 44.7172384,4.10156518 44.6730603,4.03878585 C44.6288823,3.97600652 44.5982681,3.89113944 44.581217,3.78418206 C44.567266,3.70822682 44.5602906,3.55476853 44.5602906,3.32380259 L44.5602906,2.2472587 L44.2603464,2.2472587 L44.2603464,1.72642536 L44.5602906,1.72642536 L44.5602906,1.23581896 L45.2159826,0.854494558 L45.2159826,1.72642536 L45.6624112,1.72642536 Z M47.5457817,3.4098331 L48.1968234,3.51911509 C48.1131176,3.75783157 47.980973,3.93957888 47.8003855,4.06436249 C47.619798,4.1891461 47.3938733,4.25153697 47.1226046,4.25153697 C46.693225,4.25153697 46.3754578,4.11125439 46.1692936,3.83068503 C46.0065324,3.60591953 45.925153,3.32225421 45.925153,2.97968057 C45.925153,2.57045233 46.0321088,2.24997253 46.2460235,2.01823154 C46.4599383,1.78649055 46.7304279,1.67062179 47.0575004,1.67062179 C47.4248758,1.67062179 47.7147415,1.79191584 47.9271061,2.03450758 C48.1394708,2.27709932 48.2410012,2.64873189 48.2317006,3.14941643 L46.5947958,3.14941643 C46.5994462,3.3431798 46.652149,3.49392544 46.752906,3.60165788 C46.8536629,3.70939031 46.9792197,3.76325572 47.1295801,3.76325572 C47.2318871,3.76325572 47.3179168,3.73535421 47.3876716,3.67955036 C47.4574264,3.62374651 47.5101292,3.53384166 47.5457817,3.4098331 Z M47.5829841,2.74949084 C47.5783338,2.56037779 47.5295061,2.41660753 47.4364997,2.31817573 C47.3434933,2.21974394 47.2303372,2.17052878 47.097028,2.17052878 C46.9544181,2.17052878 46.8366118,2.22245659 46.7436054,2.32631375 C46.6505989,2.43017092 46.6048715,2.57122854 46.6064216,2.74949084 L47.5829841,2.74949084 Z M49.3896247,4.1957334 L48.7362579,4.1957334 L48.7362579,1.72642536 L49.3431217,1.72642536 L49.3431217,2.07752283 C49.4469789,1.91166139 49.5403714,1.80238049 49.6233022,1.74967685 C49.7062329,1.69697321 49.8004005,1.67062179 49.9058077,1.67062179 C50.054618,1.67062179 50.1980008,1.71169901 50.3359603,1.79385468 L50.1336723,2.36351614 C50.0236147,2.29221122 49.9213092,2.25655929 49.8267527,2.25655929 C49.7352964,2.25655929 49.6577922,2.28174815 49.5942378,2.33212663 C49.5306834,2.3825051 49.4806932,2.47357252 49.4442657,2.60533161 C49.4078382,2.7370907 49.3896247,3.0130056 49.3896247,3.43308459 L49.3896247,4.1957334 Z M51.1055845,2.47977358 L50.5126716,2.37281673 C50.5793262,2.13410026 50.6940324,1.95739072 50.8567936,1.8426828 C51.0195548,1.72797489 51.2613679,1.67062179 51.58224,1.67062179 C51.8736601,1.67062179 52.0906719,1.70511115 52.2332817,1.77409091 C52.3758915,1.84307067 52.4762595,1.9306504 52.5343885,2.03683273 C52.5925175,2.14301505 52.6215816,2.33793808 52.6215816,2.62160765 L52.6146061,3.38425646 C52.6146061,3.60127144 52.6250692,3.76131758 52.6459956,3.86439969 C52.6669221,3.9674818 52.7060617,4.07792527 52.7634156,4.1957334 L52.1170243,4.1957334 C52.0999731,4.1523304 52.079047,4.08800193 52.0542452,4.00274605 C52.0433945,3.96399337 52.0356441,3.93841699 52.0309938,3.92601614 C51.9193861,4.03452362 51.8000296,4.11590302 51.6729208,4.17015676 C51.5458121,4.2244105 51.4101797,4.25153697 51.2660198,4.25153697 C51.0118023,4.25153697 50.8114539,4.18255824 50.6649688,4.04459872 C50.5184837,3.90663921 50.4452423,3.73225479 50.4452423,3.52144024 C50.4452423,3.38193062 50.4785691,3.2575364 50.5452237,3.14825386 C50.6118783,3.03897132 50.7052708,2.9552668 50.8254041,2.89713779 C50.9455374,2.83900878 51.1187592,2.78824354 51.3450749,2.74484054 C51.6504459,2.68748658 51.8620324,2.6340087 51.9798405,2.58440527 L51.9798405,2.51930111 C51.9798405,2.39374244 51.9488388,2.30422511 51.8868345,2.25074642 C51.8248302,2.19726773 51.7077989,2.17052878 51.5357371,2.17052878 C51.419479,2.17052878 51.3287991,2.19339252 51.2636946,2.23912067 C51.1985902,2.28484883 51.1458873,2.36506566 51.1055845,2.47977358 Z M51.9798405,3.0099075 C51.8961347,3.03780943 51.7636025,3.07113623 51.58224,3.1098889 C51.4008775,3.14864158 51.2822961,3.18661863 51.2264923,3.2238212 C51.1412364,3.28427537 51.0986091,3.36100451 51.0986091,3.45401093 C51.0986091,3.54546724 51.1327109,3.62452151 51.2009156,3.69117611 C51.2691203,3.7578307 51.355925,3.7911575 51.4613323,3.7911575 C51.5791404,3.7911575 51.6915215,3.75240541 51.7984789,3.67490006 C51.8775343,3.615996 51.9294621,3.54391711 51.9542638,3.45866122 C51.971315,3.40285737 51.9798405,3.29667664 51.9798405,3.14011584 L51.9798405,3.0099075 Z M55.4187356,2.45652209 L54.7746693,2.57277953 C54.7529679,2.44412065 54.7037527,2.34724042 54.6270224,2.28213593 C54.5502921,2.21703143 54.4506992,2.18447968 54.3282408,2.18447968 C54.1654795,2.18447968 54.03566,2.24067021 53.9387784,2.35305297 C53.8418967,2.46543572 53.7934566,2.65338337 53.7934566,2.91690155 C53.7934566,3.20987177 53.8426717,3.41680794 53.9411035,3.53771628 C54.0395353,3.65862463 54.1716799,3.71907789 54.3375414,3.71907789 C54.4615499,3.71907789 54.5630804,3.68381349 54.6421359,3.61328362 C54.7211913,3.54275375 54.7769943,3.4214597 54.8095466,3.24939783 L55.4512877,3.35867983 C55.3846331,3.65320015 55.2567511,3.87563716 55.0676381,4.02599753 C54.878525,4.17635791 54.6250864,4.25153697 54.3073144,4.25153697 C53.9461395,4.25153697 53.6582115,4.13760582 53.4435217,3.90974009 C53.2288318,3.68187437 53.1214885,3.36643234 53.1214885,2.96340453 C53.1214885,2.5557264 53.2292194,2.23834676 53.4446842,2.01125609 C53.6601491,1.78416542 53.9515648,1.67062179 54.3189402,1.67062179 C54.6196609,1.67062179 54.8587613,1.73533778 55.0362486,1.86477172 C55.2137358,1.99420565 55.3412302,2.1914538 55.4187356,2.45652209 Z M59.4226418,2.94247819 L60.0899595,3.15406673 C59.9876525,3.5260924 59.8175308,3.80239482 59.5795894,3.98298228 C59.3416479,4.16356974 59.0397691,4.25386212 58.6739439,4.25386212 C58.2213127,4.25386212 57.8492926,4.09924127 57.5578725,3.78999493 C57.2664524,3.48074859 57.1207445,3.05796326 57.1207445,2.52162625 C57.1207445,1.95428711 57.2672274,1.51367582 57.5601976,1.19977916 C57.8531678,0.885882498 58.2383636,0.728936522 58.7157966,0.728936522 C59.1327754,0.728936522 59.4714686,0.852168177 59.7318866,1.09863518 C59.8868973,1.24434524 60.0031536,1.45360654 60.0806589,1.72642536 L59.3993903,1.88918578 C59.3590875,1.71247359 59.2749955,1.57296605 59.1471117,1.47065899 C59.0192279,1.36835193 58.863832,1.31719917 58.6809193,1.31719917 C58.4282519,1.31719917 58.2232533,1.40787907 58.0659175,1.58924158 C57.9085816,1.7706041 57.8299149,2.06434496 57.8299149,2.47047298 C57.8299149,2.90140271 57.9074191,3.20831929 58.0624298,3.39123191 C58.2174405,3.57414453 58.4189513,3.66559947 58.6669685,3.66559947 C58.8498811,3.66559947 59.0072146,3.60747133 59.1389737,3.49121331 C59.2707328,3.37495529 59.3652879,3.19204541 59.4226418,2.94247819 Z M60.5247624,2.92620215 C60.5247624,2.70918717 60.5782402,2.49915083 60.6851976,2.29608682 C60.792155,2.09302281 60.9436757,1.93801444 61.1397642,1.83105706 C61.3358527,1.72409968 61.5548021,1.67062179 61.7966188,1.67062179 C62.1701945,1.67062179 62.4763361,1.79191584 62.7150525,2.03450758 C62.953769,2.27709932 63.0731254,2.58362837 63.0731254,2.95410393 C63.0731254,3.32767971 62.9526064,3.63730893 62.7115648,3.88300088 C62.4705232,4.12869284 62.1670943,4.25153697 61.8012691,4.25153697 C61.5749534,4.25153697 61.3591043,4.20038421 61.1537151,4.09807715 C60.9483259,3.99577009 60.792155,3.84579949 60.6851976,3.64816085 C60.5782402,3.45052222 60.5247624,3.20987172 60.5247624,2.92620215 Z M61.1944052,2.96107938 C61.1944052,3.20599628 61.2525334,3.39355641 61.3687914,3.52376539 C61.4850494,3.65397438 61.6284321,3.71907789 61.7989439,3.71907789 C61.9694557,3.71907789 62.1124509,3.65397438 62.2279339,3.52376539 C62.3434168,3.39355641 62.4011574,3.2044462 62.4011574,2.95642908 C62.4011574,2.7146124 62.3434168,2.52860235 62.2279339,2.39839337 C62.1124509,2.26818438 61.9694557,2.20308087 61.7989439,2.20308087 C61.6284321,2.20308087 61.4850494,2.26818438 61.3687914,2.39839337 C61.2525334,2.52860235 61.1944052,2.71616248 61.1944052,2.96107938 Z M64.2101232,4.1957334 L63.5567564,4.1957334 L63.5567564,1.72642536 L64.1636202,1.72642536 L64.1636202,2.07752283 C64.2674774,1.91166139 64.36087,1.80238049 64.4438007,1.74967685 C64.5267314,1.69697321 64.620899,1.67062179 64.7263063,1.67062179 C64.8751165,1.67062179 65.0184993,1.71169901 65.1564588,1.79385468 L64.9541708,2.36351614 C64.8441132,2.29221122 64.7418077,2.25655929 64.6472512,2.25655929 C64.5557949,2.25655929 64.4782907,2.28174815 64.4147363,2.33212663 C64.3511819,2.3825051 64.3011917,2.47357252 64.2647642,2.60533161 C64.2283367,2.7370907 64.2101232,3.0130056 64.2101232,3.43308459 L64.2101232,4.1957334 Z M65.4192006,1.72642536 L66.0283896,1.72642536 L66.0283896,2.08914858 C66.107445,1.96514002 66.2144008,1.86438458 66.3492601,1.78687923 C66.4841194,1.70937388 66.6337025,1.67062179 66.7980138,1.67062179 C67.0847836,1.67062179 67.3281468,1.78300286 67.5281106,2.00776837 C67.7280744,2.23253388 67.8280548,2.54565078 67.8280548,2.94712849 C67.8280548,3.35945694 67.7272993,3.67993674 67.5257854,3.90857752 C67.3242715,4.1372183 67.0801333,4.25153697 66.7933635,4.25153697 C66.6569541,4.25153697 66.533335,4.2244105 66.4225023,4.17015676 C66.3116697,4.11590302 66.1950259,4.02289799 66.0725674,3.8911389 L66.0725674,5.13509352 L65.4192006,5.13509352 L65.4192006,1.72642536 Z M66.065592,2.9192267 C66.065592,3.19669585 66.1206199,3.40169442 66.2306775,3.53422856 C66.3407351,3.66676271 66.4748174,3.73302878 66.6329283,3.73302878 C66.7848388,3.73302878 66.9111706,3.672188 67.0119275,3.5505046 C67.1126845,3.42882121 67.1630622,3.22924793 67.1630622,2.95177878 C67.1630622,2.69291092 67.1111344,2.50070054 67.0072772,2.37514188 C66.9034201,2.24958322 66.7747631,2.18680483 66.6213025,2.18680483 C66.4616415,2.18680483 66.3291094,2.24842065 66.2237021,2.37165416 C66.1182948,2.49488766 66.065592,2.67741002 66.065592,2.9192267 Z M68.3465629,4.1957334 L68.3465629,3.54236658 L68.9999298,3.54236658 L68.9999298,4.1957334 L68.3465629,4.1957334 Z M7.2207259,6.50135096 L7.90896994,6.50135096 L7.90896994,8.34751911 C7.90896994,8.64048933 7.9174954,8.83037458 7.93454658,8.91718057 C7.96399861,9.0566902 8.0341399,9.16868374 8.14497255,9.25316457 C8.2558052,9.3376454 8.40732588,9.37988518 8.59953914,9.37988518 C8.79485262,9.37988518 8.94211057,9.33997053 9.04131741,9.26014002 C9.14052426,9.18030951 9.20020248,9.08226672 9.22035387,8.9660087 C9.24050526,8.84975067 9.25058081,8.65676525 9.25058081,8.38704664 L9.25058081,6.50135096 L9.93882485,6.50135096 L9.93882485,8.29171554 C9.93882485,8.70094378 9.92022385,8.99003439 9.88302128,9.15899605 C9.84581872,9.3279577 9.77722751,9.47056541 9.67724561,9.58682343 C9.57726371,9.70308145 9.443569,9.79569895 9.27615744,9.86467871 C9.10874589,9.93365847 8.89018409,9.96814783 8.62046548,9.96814783 C8.29494302,9.96814783 8.04809219,9.9305583 7.87990558,9.85537811 C7.71171898,9.78019793 7.5787993,9.68254265 7.48114256,9.56240936 C7.38348582,9.44227608 7.31915735,9.31633177 7.28815521,9.18457268 C7.24320211,8.98925921 7.2207259,8.70094364 7.2207259,8.31961733 L7.2207259,6.50135096 Z M10.4294313,9.20549902 L11.0851232,9.10551762 C11.1130251,9.23262639 11.1696032,9.3291191 11.2548591,9.39499865 C11.340115,9.4608782 11.4594714,9.49381747 11.612932,9.49381747 C11.7818937,9.49381747 11.9090005,9.4628158 11.9942564,9.40081152 C12.0516104,9.35740853 12.0802869,9.29928039 12.0802869,9.22642536 C12.0802869,9.17682194 12.0647861,9.13574472 12.0337839,9.10319247 C12.0012317,9.07219034 11.9283778,9.04351379 11.8152199,9.01716197 C11.2881836,8.90090395 10.9541405,8.79472321 10.8130808,8.69861658 C10.6177673,8.56530738 10.5201121,8.38007238 10.5201121,8.14290602 C10.5201121,7.92899126 10.6045916,7.74918155 10.7735533,7.60347149 C10.9425149,7.45776144 11.2044791,7.3849075 11.5594536,7.3849075 C11.8973769,7.3849075 12.1484905,7.43993548 12.3128018,7.54999307 C12.4771131,7.66005066 12.5902692,7.82280945 12.6522735,8.03827432 L12.0361091,8.15220661 C12.0097573,8.05609998 11.9597671,7.982471 11.886137,7.93131747 C11.8125069,7.88016395 11.7074887,7.85458756 11.5710793,7.85458756 C11.3990174,7.85458756 11.2757858,7.87861386 11.2013807,7.92666718 C11.1517772,7.96076953 11.1269759,8.00494692 11.1269759,8.05920066 C11.1269759,8.10570387 11.1486771,8.145231 11.1920801,8.17778325 C11.2509841,8.22118624 11.4544326,8.28241455 11.8024316,8.36147 C12.1504306,8.44052546 12.3934063,8.53740569 12.5313658,8.65211361 C12.6677752,8.76837163 12.7359789,8.93035537 12.7359789,9.13806971 C12.7359789,9.36438532 12.6414238,9.55892083 12.4523107,9.72168206 C12.2631977,9.88444329 11.9834076,9.96582268 11.612932,9.96582268 C11.2765588,9.96582268 11.0103319,9.897619 10.8142434,9.76120959 C10.6181549,9.62480018 10.4898854,9.43956517 10.4294313,9.20549902 Z M14.737932,9.12411881 L15.3889737,9.23340081 C15.3052679,9.47211728 15.1731233,9.65386459 14.9925358,9.7786482 C14.8119483,9.90343181 14.5860236,9.96582268 14.3147549,9.96582268 C13.8853753,9.96582268 13.5676081,9.82554011 13.3614439,9.54497075 C13.1986827,9.32020524 13.1173033,9.03653992 13.1173033,8.69396628 C13.1173033,8.28473805 13.2242591,7.96425824 13.4381738,7.73251725 C13.6520886,7.50077626 13.9225782,7.3849075 14.2496507,7.3849075 C14.6170261,7.3849075 14.9068917,7.50620155 15.1192564,7.74879329 C15.3316211,7.99138503 15.4331515,8.3630176 15.4238509,8.86370215 L13.7869461,8.86370215 C13.7915965,9.05746552 13.8442993,9.20821116 13.9450563,9.31594359 C14.0458132,9.42367602 14.17137,9.47754143 14.3217304,9.47754143 C14.4240374,9.47754143 14.5100671,9.44963993 14.5798219,9.39383608 C14.6495767,9.33803223 14.7022795,9.24812737 14.737932,9.12411881 Z M14.7751344,8.46377655 C14.7704841,8.2746635 14.7216564,8.13089324 14.62865,8.03246145 C14.5356436,7.93402966 14.4224875,7.8848145 14.2891783,7.8848145 C14.1465684,7.8848145 14.0287621,7.9367423 13.9357557,8.04059947 C13.8427492,8.14445663 13.7970218,8.28551425 13.7985719,8.46377655 L14.7751344,8.46377655 Z M18.2210049,9.91001911 L17.6141411,9.91001911 L17.6141411,9.5472959 C17.5133841,9.68835563 17.3944152,9.7933738 17.2572307,9.86235356 C17.1200463,9.93133332 16.9817013,9.96582268 16.8421917,9.96582268 C16.5585221,9.96582268 16.3155465,9.85150401 16.1132575,9.62286323 C15.9109686,9.39422246 15.8098256,9.07529274 15.8098256,8.6660645 C15.8098256,8.24753562 15.9082559,7.92938094 16.1051195,7.71159091 C16.3019831,7.49380088 16.5507715,7.3849075 16.8514923,7.3849075 C17.1274113,7.3849075 17.3661242,7.4996137 17.5676381,7.72902953 L17.5676381,6.50135096 L18.2210049,6.50135096 L18.2210049,9.91001911 Z M16.4771433,8.62188667 C16.4771433,8.88540485 16.5135703,9.07606515 16.5864253,9.19387328 C16.6918326,9.36438504 16.8390905,9.44963965 17.0282036,9.44963965 C17.1785639,9.44963965 17.3064459,9.38569869 17.4118531,9.25781487 C17.5172604,9.12993105 17.5699632,8.93888323 17.5699632,8.68466569 C17.5699632,8.40099612 17.5188105,8.19677259 17.4165034,8.07198898 C17.3141964,7.94720537 17.1832143,7.8848145 17.0235533,7.8848145 C16.8685426,7.8848145 16.7387231,7.94643033 16.6340909,8.06966383 C16.5294586,8.19289733 16.4771433,8.37696977 16.4771433,8.62188667 Z M21.8133598,9.91001911 L21.8133598,9.54032045 C21.7234536,9.67207954 21.6052597,9.77593515 21.4587746,9.85189039 C21.3122895,9.92784563 21.1576687,9.96582268 20.9949074,9.96582268 C20.829046,9.96582268 20.680238,9.92939572 20.5484789,9.85654069 C20.4167198,9.78368566 20.3213896,9.68138014 20.2624856,9.54962105 C20.2035815,9.41786195 20.1741299,9.23572712 20.1741299,9.00321108 L20.1741299,7.44071108 L20.8274967,7.44071108 L20.8274967,8.5753837 C20.8274967,8.92260765 20.8395099,9.13535664 20.8635365,9.21363704 C20.8875632,9.29191744 20.9313531,9.35392079 20.9949074,9.39964895 C21.0584618,9.4453771 21.1390662,9.46824084 21.2367229,9.46824084 C21.3483306,9.46824084 21.448311,9.43762668 21.5366671,9.37639746 C21.6250232,9.31516824 21.6854765,9.23921413 21.7180287,9.14853288 C21.750581,9.05785162 21.7668568,8.83580213 21.7668568,8.48237774 L21.7668568,7.44071108 L22.4202237,7.44071108 L22.4202237,9.91001911 L21.8133598,9.91001911 Z M25.3429357,9.91001911 L24.6895689,9.91001911 L24.6895689,8.64978846 C24.6895689,8.38317006 24.6756181,8.21072325 24.6477162,8.13244285 C24.6198143,8.05416245 24.5744743,7.99332166 24.511695,7.94991867 C24.4489157,7.90651567 24.3733491,7.8848145 24.284993,7.8848145 C24.1718352,7.8848145 24.0703047,7.91581617 23.9803985,7.97782045 C23.8904923,8.03982473 23.8288765,8.12197917 23.7955492,8.22428622 C23.7622219,8.32659328 23.7455585,8.5157035 23.7455585,8.79162253 L23.7455585,9.91001911 L23.0921917,9.91001911 L23.0921917,7.44071108 L23.6990555,7.44071108 L23.6990555,7.80343429 C23.9145204,7.52441504 24.185785,7.3849075 24.5128576,7.3849075 C24.6570175,7.3849075 24.7887747,7.41087141 24.9081329,7.46279999 C25.0274911,7.51472857 25.1177835,7.58099465 25.1790127,7.66160021 C25.240242,7.74220577 25.2828693,7.83366071 25.3068959,7.93596777 C25.3309226,8.03827483 25.3429357,8.18475774 25.3429357,8.3754209 L25.3429357,9.91001911 Z M28.2702981,9.91001911 L27.6634342,9.91001911 L27.6634342,9.5472959 C27.5626773,9.68835563 27.4437084,9.7933738 27.3065239,9.86235356 C27.1693394,9.93133332 27.0309945,9.96582268 26.8914848,9.96582268 C26.6078153,9.96582268 26.3648396,9.85150401 26.1625507,9.62286323 C25.9602617,9.39422246 25.8591188,9.07529274 25.8591188,8.6660645 C25.8591188,8.24753562 25.9575491,7.92938094 26.1544127,7.71159091 C26.3512762,7.49380088 26.6000647,7.3849075 26.9007854,7.3849075 C27.1767045,7.3849075 27.4154173,7.4996137 27.6169313,7.72902953 L27.6169313,6.50135096 L28.2702981,6.50135096 L28.2702981,9.91001911 Z M26.5264365,8.62188667 C26.5264365,8.88540485 26.5628634,9.07606515 26.6357185,9.19387328 C26.7411257,9.36438504 26.8883837,9.44963965 27.0774967,9.44963965 C27.2278571,9.44963965 27.355739,9.38569869 27.4611463,9.25781487 C27.5665536,9.12993105 27.6192564,8.93888323 27.6192564,8.68466569 C27.6192564,8.40099612 27.5681036,8.19677259 27.4657966,8.07198898 C27.3634895,7.94720537 27.2325074,7.8848145 27.0728464,7.8848145 C26.9178357,7.8848145 26.7880162,7.94643033 26.683384,8.06966383 C26.5787518,8.19289733 26.5264365,8.37696977 26.5264365,8.62188667 Z M30.3443308,9.12411881 L30.9953725,9.23340081 C30.9116667,9.47211728 30.7795221,9.65386459 30.5989346,9.7786482 C30.4183471,9.90343181 30.1924224,9.96582268 29.9211537,9.96582268 C29.4917741,9.96582268 29.1740069,9.82554011 28.9678427,9.54497075 C28.8050815,9.32020524 28.7237021,9.03653992 28.7237021,8.69396628 C28.7237021,8.28473805 28.8306579,7.96425824 29.0445726,7.73251725 C29.2584874,7.50077626 29.528977,7.3849075 29.8560496,7.3849075 C30.2234249,7.3849075 30.5132906,7.50620155 30.7256552,7.74879329 C30.9380199,7.99138503 31.0395503,8.3630176 31.0302497,8.86370215 L29.3933449,8.86370215 C29.3979953,9.05746552 29.4506981,9.20821116 29.5514551,9.31594359 C29.652212,9.42367602 29.7777688,9.47754143 29.9281292,9.47754143 C30.0304362,9.47754143 30.1164659,9.44963993 30.1862207,9.39383608 C30.2559755,9.33803223 30.3086783,9.24812737 30.3443308,9.12411881 Z M30.3815332,8.46377655 C30.3768829,8.2746635 30.3280552,8.13089324 30.2350488,8.03246145 C30.1420424,7.93402966 30.0288863,7.8848145 29.8955771,7.8848145 C29.7529672,7.8848145 29.6351609,7.9367423 29.5421545,8.04059947 C29.4491481,8.14445663 29.4034206,8.28551425 29.4049707,8.46377655 L30.3815332,8.46377655 Z M32.1881738,9.91001911 L31.534807,9.91001911 L31.534807,7.44071108 L32.1416708,7.44071108 L32.1416708,7.79180855 C32.245528,7.6259471 32.3389205,7.5166662 32.4218513,7.46396256 C32.504782,7.41125893 32.5989496,7.3849075 32.7043568,7.3849075 C32.8531671,7.3849075 32.9965499,7.42598472 33.1345094,7.50814039 L32.9322214,8.07780185 C32.8221638,8.00649693 32.7198583,7.970845 32.6253018,7.970845 C32.5338455,7.970845 32.4563413,7.99603386 32.3927869,8.04641234 C32.3292325,8.09679082 32.2792423,8.18785823 32.2428148,8.31961733 C32.2063873,8.45137642 32.1881738,8.72729132 32.1881738,9.1473703 L32.1881738,9.91001911 Z M34.7388621,9.91001911 L34.7388621,6.50135096 L35.3922289,6.50135096 L35.3922289,9.91001911 L34.7388621,9.91001911 Z M36.0618717,7.10588965 L36.0618717,6.50135096 L36.7152385,6.50135096 L36.7152385,7.10588965 L36.0618717,7.10588965 Z M36.0618717,9.91001911 L36.0618717,7.44071108 L36.7152385,7.44071108 L36.7152385,9.91001911 L36.0618717,9.91001911 Z M39.5379692,8.1708078 L38.893903,8.28706524 C38.8722015,8.15840637 38.8229863,8.06152613 38.746256,7.99642164 C38.6695257,7.93131715 38.5699329,7.89876539 38.4474744,7.89876539 C38.2847132,7.89876539 38.1548937,7.95495593 38.058012,8.06733868 C37.9611303,8.17972143 37.9126902,8.36766908 37.9126902,8.63118727 C37.9126902,8.92415748 37.9619053,9.13109366 38.0603371,9.252002 C38.1587689,9.37291034 38.2909136,9.43336361 38.456775,9.43336361 C38.5807836,9.43336361 38.682314,9.3980992 38.7613695,9.32756933 C38.840425,9.25703947 38.896228,9.13574542 38.9287802,8.96368355 L39.5705213,9.07296554 C39.5038667,9.36748586 39.3759848,9.58992287 39.1868717,9.74028325 C38.9977587,9.89064362 38.74432,9.96582268 38.4265481,9.96582268 C38.0653731,9.96582268 37.7774451,9.85189153 37.5627553,9.62402581 C37.3480655,9.39616009 37.2407222,9.08071805 37.2407222,8.67769024 C37.2407222,8.27001211 37.348453,7.95263247 37.5639179,7.72554181 C37.7793827,7.49845114 38.0707985,7.3849075 38.4381738,7.3849075 C38.7388946,7.3849075 38.977995,7.4496235 39.1554822,7.57905743 C39.3329695,7.70849136 39.4604639,7.90573951 39.5379692,8.1708078 Z M41.4631924,9.12411881 L42.1142341,9.23340081 C42.0305283,9.47211728 41.8983837,9.65386459 41.7177962,9.7786482 C41.5372087,9.90343181 41.311284,9.96582268 41.0400153,9.96582268 C40.6106357,9.96582268 40.2928685,9.82554011 40.0867043,9.54497075 C39.9239431,9.32020524 39.8425637,9.03653992 39.8425637,8.69396628 C39.8425637,8.28473805 39.9495195,7.96425824 40.1634342,7.73251725 C40.377349,7.50077626 40.6478386,7.3849075 40.9749112,7.3849075 C41.3422865,7.3849075 41.6321522,7.50620155 41.8445168,7.74879329 C42.0568815,7.99138503 42.158412,8.3630176 42.1491113,8.86370215 L40.5122066,8.86370215 C40.5168569,9.05746552 40.5695597,9.20821116 40.6703167,9.31594359 C40.7710736,9.42367602 40.8966304,9.47754143 41.0469908,9.47754143 C41.1492978,9.47754143 41.2353275,9.44963993 41.3050823,9.39383608 C41.3748371,9.33803223 41.42754,9.24812737 41.4631924,9.12411881 Z M41.5003948,8.46377655 C41.4957445,8.2746635 41.4469168,8.13089324 41.3539104,8.03246145 C41.260904,7.93402966 41.1477479,7.8848145 41.0144387,7.8848145 C40.8718289,7.8848145 40.7540225,7.9367423 40.6610161,8.04059947 C40.5680097,8.14445663 40.5222822,8.28551425 40.5238323,8.46377655 L41.5003948,8.46377655 Z M44.9276641,9.91001911 L44.2742973,9.91001911 L44.2742973,8.64978846 C44.2742973,8.38317006 44.2603466,8.21072325 44.2324446,8.13244285 C44.2045427,8.05416245 44.1592028,7.99332166 44.0964234,7.94991867 C44.0336441,7.90651567 43.9580775,7.8848145 43.8697214,7.8848145 C43.7565636,7.8848145 43.6550331,7.91581617 43.5651269,7.97782045 C43.4752207,8.03982473 43.4136049,8.12197917 43.3802776,8.22428622 C43.3469503,8.32659328 43.3302869,8.5157035 43.3302869,8.79162253 L43.3302869,9.91001911 L42.6769201,9.91001911 L42.6769201,7.44071108 L43.2837839,7.44071108 L43.2837839,7.80343429 C43.4992488,7.52441504 43.7705134,7.3849075 44.097586,7.3849075 C44.241746,7.3849075 44.3735031,7.41087141 44.4928613,7.46279999 C44.6122195,7.51472857 44.7025119,7.58099465 44.7637411,7.66160021 C44.8249704,7.74220577 44.8675977,7.83366071 44.8916243,7.93596777 C44.915651,8.03827483 44.9276641,8.18475774 44.9276641,8.3754209 L44.9276641,9.91001911 Z M45.3601418,9.20549902 L46.0158338,9.10551762 C46.0437357,9.23262639 46.1003138,9.3291191 46.1855696,9.39499865 C46.2708255,9.4608782 46.390182,9.49381747 46.5436426,9.49381747 C46.7126042,9.49381747 46.8397111,9.4628158 46.924967,9.40081152 C46.9823209,9.35740853 47.0109975,9.29928039 47.0109975,9.22642536 C47.0109975,9.17682194 46.9954966,9.13574472 46.9644945,9.10319247 C46.9319423,9.07219034 46.8590883,9.04351379 46.7459305,9.01716197 C46.2188941,8.90090395 45.8848511,8.79472321 45.7437914,8.69861658 C45.5484779,8.56530738 45.4508226,8.38007238 45.4508226,8.14290602 C45.4508226,7.92899126 45.5353022,7.74918155 45.7042638,7.60347149 C45.8732255,7.45776144 46.1351896,7.3849075 46.4901641,7.3849075 C46.8280875,7.3849075 47.079201,7.43993548 47.2435124,7.54999307 C47.4078237,7.66005066 47.5209798,7.82280945 47.5829841,8.03827432 L46.9668196,8.15220661 C46.9404678,8.05609998 46.8904776,7.982471 46.8168475,7.93131747 C46.7432175,7.88016395 46.6381993,7.85458756 46.5017899,7.85458756 C46.329728,7.85458756 46.2064964,7.87861386 46.1320912,7.92666718 C46.0824878,7.96076953 46.0576865,8.00494692 46.0576865,8.05920066 C46.0576865,8.10570387 46.0793876,8.145231 46.1227906,8.17778325 C46.1816947,8.22118624 46.3851432,8.28241455 46.7331422,8.36147 C47.0811412,8.44052546 47.3241168,8.53740569 47.4620763,8.65211361 C47.5984858,8.76837163 47.6666894,8.93035537 47.6666894,9.13806971 C47.6666894,9.36438532 47.5721343,9.55892083 47.3830213,9.72168206 C47.1939082,9.88444329 46.9141181,9.96582268 46.5436426,9.96582268 C46.2072694,9.96582268 45.9410425,9.897619 45.7449539,9.76120959 C45.5488654,9.62480018 45.420596,9.43956517 45.3601418,9.20549902 Z M49.6686426,9.12411881 L50.3196842,9.23340081 C50.2359785,9.47211728 50.1038338,9.65386459 49.9232464,9.7786482 C49.7426589,9.90343181 49.5167342,9.96582268 49.2454655,9.96582268 C48.8160859,9.96582268 48.4983187,9.82554011 48.2921545,9.54497075 C48.1293932,9.32020524 48.0480138,9.03653992 48.0480138,8.69396628 C48.0480138,8.28473805 48.1549696,7.96425824 48.3688844,7.73251725 C48.5827991,7.50077626 48.8532887,7.3849075 49.1803613,7.3849075 C49.5477367,7.3849075 49.8376023,7.50620155 50.049967,7.74879329 C50.2623316,7.99138503 50.3638621,8.3630176 50.3545615,8.86370215 L48.7176567,8.86370215 C48.722307,9.05746552 48.7750099,9.20821116 48.8757668,9.31594359 C48.9765238,9.42367602 49.1020806,9.47754143 49.2524409,9.47754143 C49.354748,9.47754143 49.4407776,9.44963993 49.5105324,9.39383608 C49.5802873,9.33803223 49.6329901,9.24812737 49.6686426,9.12411881 Z M49.7058449,8.46377655 C49.7011946,8.2746635 49.652367,8.13089324 49.5593606,8.03246145 C49.4663542,7.93402966 49.353198,7.8848145 49.2198888,7.8848145 C49.077279,7.8848145 48.9594726,7.9367423 48.8664662,8.04059947 C48.7734598,8.14445663 48.7277323,8.28551425 48.7292824,8.46377655 L49.7058449,8.46377655 Z" id="Trade-mark-of-Intera" fill="#636567"></path>
            </g>
        </g>
    </g>
</svg>