<?xml version="1.0" encoding="UTF-8"?>
<svg width="440px" height="57px" viewBox="0 0 440 57" version="1.1" xmlns="http://www.w3.org/2000/svg" xmlns:xlink="http://www.w3.org/1999/xlink">
    <!-- Generator: Sketch 53.2 (72643) - https://sketchapp.com -->
    <title>banktransfer white</title>
    <desc>Created with Sketch.</desc>
    <g id="banktransfer-white" stroke="none" stroke-width="1" fill="none" fill-rule="evenodd">
        <g id="banktransfer" transform="translate(1.000000, 0.000000)" fill="#FFFFFF" fill-rule="nonzero">
            <path d="M357.86,3.86 C362.31,0.24 368.51,0.74 373.83,1.52 C373.62,4.51 373.45,7.51 373.34,10.51 C370.71,9.91 366.67,9.21 365.33,12.31 C364.5,15.12 364.95,18.11 364.87,20.99 C367.44,21 370.02,21 372.61,21.01 C372.6,23.67 372.6,26.33 372.6,28.99 C370.02,29 367.44,29 364.87,29.01 C364.86,37.67 364.86,46.33 364.87,54.99 C361.37,55.01 357.88,55 354.39,54.98 C354.41,46.32 354.4,37.67 354.4,29.01 C352.06,29 349.73,29 347.39,28.99 C347.4,26.33 347.4,23.67 347.4,21.01 C349.73,21 352.06,21 354.4,20.99 C354.61,15.26 353.25,8.29 357.86,3.86 Z" id="Path"></path>
            <path d="M120.74,2 C124.24,2 127.75,2 131.26,2 C131.29,12.78 131.23,23.55 131.29,34.32 C135.16,29.9 138.98,25.43 142.84,21 C147.17,21 151.5,21.01 155.84,20.99 C151.18,26.01 146.72,31.21 142.2,36.36 C146.94,42.5 151.36,48.89 156.14,55.01 C151.72,55 147.3,54.99 142.89,55.01 C138.97,49.29 135.23,43.45 131.29,37.75 C131.24,43.5 131.28,49.25 131.26,55 C127.75,55 124.24,55 120.74,55 C120.73,37.33 120.73,19.67 120.74,2 Z" id="Path"></path>
            <path d="M0,5 C9.83,5.54 20.02,3.62 29.56,6.66 C36.62,9.08 38.81,18.75 34.46,24.47 C32.86,26.59 30.4,27.77 27.91,28.52 C30.44,29.28 33.15,29.97 35.11,31.86 C40.22,36.5 40.36,45.58 35.18,50.22 C31.42,53.76 26.03,54.82 21.03,55 C14.02,55.03 7.01,54.98 0,55 C0,38.33 0,21.67 0,5 L0,5 Z M11,14.01 C11,17.67 11,21.33 11,24.99 C14.74,24.84 18.61,25.5 22.25,24.45 C26.47,23.32 27.11,16.43 22.89,14.86 C19.13,13.34 14.95,14.2 11,14.01 L11,14.01 Z M11,34.01 C11,38 11,42 11,45.99 C15.39,45.75 19.95,46.63 24.23,45.42 C28.44,44.16 29.56,37.62 25.6,35.4 C21.12,33.05 15.84,34.29 11,34.01 Z" id="Shape"></path>
            <path d="M176.54,5 C189.56,5 202.58,4.99 215.61,5.01 C215.6,8.34 215.6,11.66 215.61,14.99 C210.88,15.01 206.16,14.96 201.43,15.06 C201.51,28.37 201.45,41.68 201.46,55 C197.84,55 194.22,55 190.6,55 C190.6,41.67 190.59,28.34 190.61,15.01 C185.91,14.99 181.22,15 176.54,15 C176.53,11.67 176.53,8.33 176.54,5 Z" id="Path"></path>
            <path d="M43.01,25.27 C49.47,20.14 58.66,18.38 66.4,21.43 C71.21,23.37 73.33,28.73 73.56,33.58 C73.94,40.71 73.64,47.85 73.74,54.99 C70.49,55 67.23,55 63.98,55 C64,54.02 64.05,52.05 64.07,51.06 C59.6,56.81 50.4,57.63 44.7,53.31 C39.25,49.09 39.91,39.37 46.02,36.08 C51.56,33.06 58.12,32.99 64.27,32.95 C63.82,30.52 62.47,28.12 59.94,27.41 C55.79,25.86 51.65,28.22 48.67,30.97 C46.8,29.05 44.91,27.16 43.01,25.27 L43.01,25.27 Z M52.81,41.82 C50.53,43.13 50.44,47.09 52.94,48.19 C56.04,49.89 60.15,48.89 62.58,46.48 C64.24,44.74 63.89,42.17 64.11,39.99 C60.31,40.03 56.12,39.57 52.81,41.82 Z" id="Shape"></path>
            <path d="M90.63,25.36 C95.53,17.65 109.7,18.02 112.4,27.39 C114.44,36.43 113.07,45.81 113.46,55 C109.98,55 106.49,55 103,55 C102.97,48.98 103.06,42.97 102.98,36.95 C102.9,34.38 102.79,31.2 100.37,29.64 C97.8,28.27 94.08,28.86 92.45,31.41 C91.23,33.35 91.25,35.73 91.15,37.95 C91.08,43.63 91.16,49.31 91.13,55 C87.66,55 84.2,55 80.74,55 C80.73,43.66 80.73,32.33 80.74,21 C84.08,21 87.42,21 90.77,21.01 C90.73,22.1 90.66,24.27 90.63,25.36 Z" id="Path"></path>
            <path d="M230.06,21.11 C232.68,19.7 235.74,20.02 238.6,19.98 C238.58,23.23 238.58,26.48 238.68,29.73 C235.33,28.91 231.44,28.3 228.44,30.43 C225.91,32.05 225.44,35.26 225.31,38.03 C225.17,43.68 225.32,49.34 225.26,55 C221.75,55 218.24,55 214.74,55 C214.73,43.66 214.73,32.33 214.74,21 C218.25,21 221.77,21 225.29,21.01 C225.26,22.74 225.22,24.47 225.17,26.21 C226.58,24.33 227.88,22.18 230.06,21.11 Z" id="Path"></path>
            <path d="M242.02,25.3 C248.43,20.12 257.65,18.4 265.37,21.42 C270.19,23.34 272.33,28.71 272.56,33.56 C272.94,40.7 272.63,47.85 272.74,54.99 C269.48,55 266.23,55 262.98,55 C263,54.02 263.05,52.05 263.07,51.06 C258.62,56.8 249.45,57.63 243.74,53.35 C238.25,49.15 238.89,39.39 245.02,36.08 C250.56,33.06 257.12,32.98 263.27,32.95 C262.82,30.49 261.43,28.07 258.86,27.38 C254.74,25.91 250.63,28.2 247.71,30.98 C245.82,29.08 243.93,27.18 242.02,25.3 L242.02,25.3 Z M251.81,41.82 C249.95,42.94 249.61,45.55 250.74,47.31 C253.74,50.12 258.79,49.24 261.55,46.52 C263.24,44.79 262.89,42.19 263.11,39.99 C259.31,40.02 255.12,39.57 251.81,41.82 Z" id="Shape"></path>
            <path d="M288.63,25.35 C293.55,17.64 307.73,18.03 310.41,27.42 C312.43,36.45 311.07,45.82 311.46,55 C307.97,55 304.49,55 301,55 C300.96,48.97 301.06,42.94 300.98,36.92 C300.88,34.52 300.82,31.75 298.9,30.01 C296.36,28.12 292.14,28.71 290.42,31.45 C289.23,33.38 289.24,35.73 289.15,37.92 C289.08,43.61 289.16,49.3 289.13,55 C285.66,55 282.2,55 278.73,55 C278.73,43.66 278.73,32.33 278.74,21 C282.08,21 285.42,21 288.77,21.01 C288.73,22.09 288.67,24.26 288.63,25.35 Z" id="Path"></path>
            <path d="M323.05,22.07 C329.81,18.57 338.7,19.45 344.58,24.32 C342.43,26.47 340.28,28.61 338.13,30.75 C335.82,28.7 332.47,26.92 329.44,28.55 C327.78,29.17 327.34,32.06 329.25,32.66 C333.56,34.58 338.84,34.23 342.6,37.41 C347.7,41.56 346.42,50.71 340.6,53.63 C333.08,57.43 323.22,56.85 316.51,51.59 C318.62,49.21 320.73,46.83 322.87,44.46 C325.12,46.48 327.83,48.49 331.06,48.03 C333.09,48.16 336.53,46.77 334.9,44.22 C330.37,41.12 323.9,42.24 319.87,38.14 C315.43,33.47 317.43,24.93 323.05,22.07 Z" id="Path"></path>
            <path d="M381.1,24.07 C387.74,18.95 398.4,18.14 404.69,24.29 C409.09,28.6 409.77,35.15 409.48,41 C401.31,41.06 393.14,40.87 384.97,41.11 C386.05,44.68 388.87,48.21 392.95,48.05 C396.14,48.31 398.62,46.14 400.66,43.99 C403.12,45.77 405.58,47.56 408.03,49.38 C401.32,57.34 388.34,58.24 380.52,51.44 C372.46,44.64 372.72,30.52 381.1,24.07 L381.1,24.07 Z M384.85,33.91 C389.65,34.05 394.45,34.01 399.26,33.98 C398.72,32.01 398.08,29.84 396.1,28.87 C391.81,26.36 385.86,29.06 384.85,33.91 Z" id="Shape"></path>
            <path d="M430.72,20.81 C433.2,19.72 435.97,20.04 438.6,19.98 C438.58,23.23 438.58,26.48 438.68,29.73 C434.16,28.25 427.37,28.57 425.89,34.06 C424.58,40.94 425.57,48.03 425.26,55 C421.75,55 418.24,55 414.74,55 C414.73,43.66 414.73,32.33 414.74,21 C418.25,21 421.77,21 425.29,21.01 C425.26,22.74 425.22,24.47 425.17,26.21 C426.71,24.14 428.19,21.75 430.72,20.81 Z" id="Path"></path>
        </g>
    </g>
</svg>