<?xml version="1.0" encoding="UTF-8"?>
<svg width="271px" height="145px" viewBox="0 0 271 145" version="1.1" xmlns="http://www.w3.org/2000/svg" xmlns:xlink="http://www.w3.org/1999/xlink">
    <!-- Generator: Sketch 52.4 (67378) - http://www.bohemiancoding.com/sketch -->
    <title>red 7 Color</title>
    <desc>Created with Sketch.</desc>
    <g id="red-7-Color" stroke="none" stroke-width="1" fill="none" fill-rule="evenodd">
        <g id="Red7" fill="#DA2128" fill-rule="nonzero">
            <path d="M56.7558065,117.637097 C55.3712903,113.66129 46.5309677,99.7506452 42.3867742,94.3435484 C45.3148387,93.0058065 47.1203226,92.453871 49.5058065,89.4041935 C52.6022581,86.0551613 52.8548387,80.1896774 52.8548387,77.1680645 C51.9474194,65.8580645 40.3006452,61.3770968 33.4341935,61.5829032 C33.4341935,61.5829032 1.79612903,61.5829032 1.21612903,61.5829032 C0.636129032,61.5829032 0,62.6774194 0,63.3883871 C0,63.3883871 0,117.590323 0,118.058065 C0,118.525806 0.29,119.863548 1.08516129,119.816774 C1.08516129,119.816774 14.9490323,119.816774 15.9593548,119.816774 C16.9603226,119.274194 17.0445161,118.058065 17.0912903,117.384516 C17.0912903,117.384516 17.2503226,99.8441935 17.2503226,97.5522581 C17.2503226,97.5522581 19.1025806,97.6083871 21.9932258,97.6083871 C24.883871,97.6083871 28.2796774,102.884516 28.9064516,103.642258 L37.41,115.794194 C37.41,115.794194 40.0480645,119.685806 40.4596774,119.685806 C40.4596774,119.685806 55.1748387,119.685806 56.2693548,119.685806 C57.1767742,119.395806 57.0551613,118.600645 56.7558065,117.637097 Z M30.1787097,83.9316129 C30.1787097,83.9316129 18.7283871,83.9783871 17.3532258,83.9316129 L17.3532258,75.0912903 C17.3532258,75.0912903 28.186129,75.2409677 30.3377419,75.2409677 C32.48,75.2409677 35.7074194,76.4196774 35.7074194,79.5816129 C35.7074194,82.7435484 31.7129032,83.9316129 30.1787097,83.9316129 Z M109.086774,107.412258 L109.086774,118.245161 C109.086774,119.105806 108.375806,119.816774 107.515161,119.816774 L60.4416129,119.816774 C59.5809677,119.816774 58.87,119.105806 58.87,118.245161 L58.87,116.29 L58.87,107.412258 L58.87,94.7083871 L58.87,84.156129 L58.87,73.4541935 L58.87,68.9919355 L58.87,63.3041935 C58.87,62.4435484 59.5809677,61.7325806 60.4416129,61.7325806 L106.645161,61.7325806 C107.505806,61.7325806 108.216774,62.4435484 108.216774,63.3041935 L108.216774,73.4635484 C108.216774,74.3241935 107.505806,75.0351613 106.645161,75.0351613 L76.1670968,75.0351613 L76.1670968,82.6032258 L104.493548,82.6032258 C105.354194,82.6032258 106.065161,83.3141935 106.065161,84.1748387 L106.065161,94.7177419 C106.065161,95.5783871 105.354194,96.2893548 104.493548,96.2893548 L76.1670968,96.2893548 L76.1670968,105.859355 L107.515161,105.859355 C108.375806,105.840645 109.086774,106.542258 109.086774,107.412258 Z M160.603871,68.6270968 C153.204194,61.0309677 139.349677,61.5829032 139.349677,61.5829032 C139.349677,61.5829032 118.123548,61.6764516 118.123548,61.6764516 L115.064516,61.7232258 C114.203871,61.7232258 113.492903,62.4341935 113.492903,63.2948387 L113.492903,68.9825806 L113.492903,74.0248387 L113.492903,107.599355 L113.492903,116.280645 L113.492903,118.235806 C113.492903,119.096452 114.203871,119.807419 115.064516,119.807419 L118.132903,119.807419 L136.561935,119.807419 C136.561935,119.807419 144.354516,119.891613 146.365806,119.386452 C155.664516,118.544516 160.192258,113.184194 162.371935,110.677097 C164.804194,107.908065 168.910968,101.378387 168.910968,89.9841935 C168.910968,78.59 165.440323,73.5851613 160.603871,68.6270968 Z M150.397742,98.543871 C148.639032,104.493548 142.764194,105.999677 141.50129,105.915484 C141.50129,105.915484 132.455161,105.915484 130.612258,105.915484 L130.612258,75.7274194 C130.612258,75.6432258 136.982903,75.8116129 139.995161,75.8116129 C143.007419,75.8116129 145.88871,77.0090323 146.637097,77.5983871 C153.512903,82.9587097 150.734516,97.1219355 150.397742,98.543871 Z M270.775806,28.3264516 C270.523226,26.8203226 268.427742,8.39129032 268.287419,5.87483871 C267.866452,1.76806452 265.995484,1.93645161 263.656774,2.10483871 C255.910968,2.08612903 200.399355,2.35741935 192.700323,2.10483871 C186.507419,1.89903226 166.815484,0.177741935 165.056774,0.00935483871 C163.298065,-0.159032258 162.624516,2.4416129 162.287742,3.69516129 C162.287742,3.69516129 153.494194,35.2770968 152.568065,38.4670968 C151.641935,41.6477419 153.737419,42.6580645 154.916129,43.1632258 C154.916129,43.1632258 178.04129,51.7883871 179.968387,52.3777419 C179.968387,52.3777419 181.55871,53.0512903 183.57,52.7987097 C185.58129,52.546129 186.413871,49.1970968 186.582258,48.9445161 C186.750645,48.6919355 187.835806,45.2587097 188.256774,44.5009677 C190.773226,39.8048387 193.785484,40.0574194 195.796774,39.8890323 L224.366452,38.1303226 C224.366452,38.1303226 224.619032,38.9722581 224.703226,39.5522581 C220.933226,43.6590323 209.454839,58.9916129 207.527742,61.9196774 C200.324516,72.3129032 187.424194,91.5745161 182.643871,110.76129 C177.872903,127.431613 178.62129,138.404839 178.452903,141.258065 C178.284516,144.101935 180.632581,144.43871 181.970323,144.43871 C181.970323,144.43871 221.429032,144.017742 223.019355,143.933548 C224.609677,143.849355 225.114839,142.511613 225.114839,141.585484 C225.114839,140.659355 225.199032,136.646129 225.535806,128.937742 C225.956774,116.542581 228.052258,107.402903 228.969032,103.80129 C233.908387,84.6987097 242.627097,71.4616129 246.060323,65.596129 C249.493548,59.7306452 255.443226,51.6854839 268.511935,35.2677419 C270.018065,33.5183871 271.196774,32.0122581 270.775806,28.3264516 Z M174.430323,35.9506452 L168.143871,22.5451613 L175.880323,11.2351613 L183.055484,23.4712903 L174.430323,35.9506452 Z" id="Shape"></path>
        </g>
    </g>
</svg>