<?xml version="1.0" encoding="UTF-8"?>
<svg width="271px" height="129px" viewBox="0 0 271 129" version="1.1" xmlns="http://www.w3.org/2000/svg" xmlns:xlink="http://www.w3.org/1999/xlink">
    <!-- Generator: Sketch 52.4 (67378) - http://www.bohemiancoding.com/sketch -->
    <title>Scientific Game Color</title>
    <desc>Created with Sketch.</desc>
    <g id="Scientific-Game-Color" stroke="none" stroke-width="1" fill="none" fill-rule="evenodd">
        <g id="Scientific_Games-black" transform="translate(0.000000, 0.000000)">
            <path d="M150.610823,72.655443 C142.377911,86.7543038 127.198481,96.2221519 109.789304,96.2221519 C83.6498101,96.2221519 62.4672152,74.8508861 62.4672152,48.5055696 C62.4672152,22.1602532 83.666962,0.771835443 109.806456,0.771835443 C127.695886,0.771835443 143.26981,10.7885443 151.314051,25.5563291 L137.781203,33.7892405 C132.51557,23.6353165 121.967152,16.6887975 109.806456,16.6887975 C92.3801266,16.6887975 78.2641139,30.9248734 78.2641139,48.5055696 C78.2641139,66.0691139 92.3972785,80.3223418 109.806456,80.3223418 C121.504051,80.3223418 131.692278,73.9075316 137.146582,64.3882278 L150.610823,72.655443 Z M157.437278,41.3703797 L109.892215,41.3703797 L109.892215,57.2701899 L157.437278,57.2701899 L157.437278,41.3703797 Z" id="Shape" fill="#047DD8" fill-rule="nonzero"></path>
            <path d="M79.0187975,59.8772785 C77.9382278,56.8242405 76.2573418,53.9427215 73.9418354,51.6272152 C68.7105063,46.1557595 59.8601266,42.4852532 52.7935443,40.4098734 C48.2825949,39.0720253 43.7544937,37.7513291 39.2435443,36.413481 C35.5387342,35.3157595 31.5594937,34.4410127 28.2148734,32.3827848 C26.9627848,31.6109494 25.7621519,30.650443 25.0074684,29.3812025 C23.5838608,26.8427215 24.0641139,25.4191139 24.4929114,23.6867722 C25.7621519,19.9305063 30.153038,17.6664557 33.7720886,16.9975316 C38.3687975,16.1399367 42.6396203,16.5687342 47.1848734,17.8208228 C50.9239873,18.8499367 54.2343038,20.839557 57.3902532,23.0693038 C57.8876582,23.4294937 58.8310127,24.1841772 59.8429747,25.0932278 C59.9287342,24.9388608 60.0316456,24.8016456 60.1174051,24.6472785 C62.33,19.9476582 65.1600633,15.6253797 68.5389873,11.7662025 C66.4121519,9.89664557 63.6335443,8.00993671 60.8549367,6.38050633 C57.4588608,4.39088608 54.1142405,2.79575949 50.306519,1.85240506 C42.2108228,-0.171518987 33.6520253,-0.257278481 25.8822152,2.71 C18.3868354,5.57436709 11.6289873,11.6289873 9.12481013,19.3816456 C7.87272152,23.2579747 7.47822785,28.4035443 8.47303797,32.3999367 C9.4678481,36.4306329 12.4865823,41.1302532 15.6253797,43.8574051 C19.7075316,47.3906962 25.9679747,50.4951899 31.4394304,52.1760759 C35.7102532,53.4796203 39.9810759,54.8003165 44.2518987,56.1038608 C47.7165823,57.1672785 51.2841772,58.0591772 54.6631013,59.3798734 C58.093481,60.7177215 60.3232278,61.7982911 61.7639873,65.3658861 C63.2218987,69.0020886 62.0898734,72.1237342 59.4313291,74.696519 C56.2582278,77.749557 52.7420886,79.2932278 47.5622152,80.3566456 C43.0855696,81.2656962 38.2315823,80.7168354 33.7377848,79.7048734 C26.1909494,78.0239873 19.4331013,73.2729114 14.8363924,66.9953165 C14.1846203,66.1034177 13.6014557,65.1772152 13.0525949,64.2338608 L0,72.7583544 C4.51094937,80.1679747 11.0972785,86.8229114 18.7641772,90.9222152 C28.2320253,95.9991772 39.3121519,97.7143671 49.7233544,95.7762025 C55.7779747,94.6441772 61.5410127,92.2943671 66.6351266,88.915443 C77.4922785,81.3343038 83.1352532,71.471962 79.0187975,59.8772785" id="Path" fill="#047DD8"></path>
            <rect id="Rectangle" fill="#000000" x="165.601582" y="0" width="16.7059494" height="16.6887975"></rect>
            <rect id="Rectangle" fill="#000000" x="165.601582" y="20.0677215" width="16.7059494" height="16.6887975"></rect>
            <rect id="Rectangle" fill="#000000" x="165.601582" y="40.1525949" width="16.7059494" height="16.6887975"></rect>
            <rect id="Rectangle" fill="#000000" x="165.601582" y="60.2031646" width="16.7059494" height="16.6887975"></rect>
            <rect id="Rectangle" fill="#000000" x="165.601582" y="80.288038" width="16.7059494" height="16.7059494"></rect>
            <rect id="Rectangle" fill="#3A3A3A" x="185.635" y="0" width="16.6887975" height="16.7059494"></rect>
            <rect id="Rectangle" fill="#3A3A3A" x="185.635" y="20.0677215" width="16.6887975" height="16.6887975"></rect>
            <rect id="Rectangle" fill="#3A3A3A" x="185.635" y="40.1525949" width="16.6887975" height="16.6887975"></rect>
            <rect id="Rectangle" fill="#3A3A3A" x="185.635" y="60.2031646" width="16.6887975" height="16.6887975"></rect>
            <rect id="Rectangle" fill="#3A3A3A" x="185.635" y="80.288038" width="16.6887975" height="16.6887975"></rect>
            <rect id="Rectangle" fill="#717171" x="205.68557" y="0" width="16.7059494" height="16.7059494"></rect>
            <rect id="Rectangle" fill="#717171" x="205.68557" y="20.0677215" width="16.7059494" height="16.6887975"></rect>
            <rect id="Rectangle" fill="#717171" x="205.68557" y="40.1525949" width="16.7059494" height="16.6887975"></rect>
            <rect id="Rectangle" fill="#FE1A45" x="205.68557" y="60.2031646" width="16.7059494" height="16.6887975"></rect>
            <rect id="Rectangle" fill="#717171" x="205.68557" y="80.288038" width="16.7059494" height="16.6887975"></rect>
            <rect id="Rectangle" fill="#047DD8" x="225.736139" y="0" width="16.6887975" height="16.6887975"></rect>
            <rect id="Rectangle" fill="#A3A3A3" x="225.736139" y="20.0677215" width="16.6887975" height="16.6887975"></rect>
            <rect id="Rectangle" fill="#A3A3A3" x="225.736139" y="40.1525949" width="16.6887975" height="16.6887975"></rect>
            <rect id="Rectangle" fill="#A3A3A3" x="225.736139" y="60.2031646" width="16.6887975" height="16.7059494"></rect>
            <rect id="Rectangle" fill="#A3A3A3" x="225.736139" y="80.288038" width="16.6887975" height="16.7059494"></rect>
            <rect id="Rectangle" fill="#BBBBBB" x="245.786709" y="0" width="16.7059494" height="16.7059494"></rect>
            <rect id="Rectangle" fill="#BBBBBB" x="245.786709" y="20.0677215" width="16.7059494" height="16.6887975"></rect>
            <rect id="Rectangle" fill="#BBBBBB" x="245.786709" y="40.1525949" width="16.7059494" height="16.6887975"></rect>
            <rect id="Rectangle" fill="#BBBBBB" x="245.786709" y="60.2031646" width="16.7059494" height="16.6887975"></rect>
            <rect id="Rectangle" fill="#BBBBBB" x="245.786709" y="80.288038" width="16.7059494" height="16.6887975"></rect>
            <path d="M0.291582278,123.888165 L2.60708861,120.595 C4.0135443,122.052911 6.17468354,123.305 8.91898734,123.305 C11.2687975,123.305 12.366519,122.258734 12.366519,121.109557 C12.366519,117.662025 0.94335443,120.063291 0.94335443,112.602215 C0.94335443,109.309051 3.79056962,106.564747 8.47303797,106.564747 C11.6289873,106.564747 14.2360759,107.525253 16.2085443,109.326203 L13.8587342,112.482152 C12.2464557,110.972785 10.1024684,110.286709 8.0785443,110.286709 C6.29474684,110.286709 5.28278481,111.058544 5.28278481,112.259177 C5.28278481,115.380823 16.6716456,113.271139 16.6716456,120.680759 C16.6716456,124.29981 14.064557,127.044114 8.73031646,127.044114 C4.90544304,127.026962 2.16113924,125.757722 0.291582278,123.888165" id="Path" fill="#3A3A3A"></path>
            <path d="M18.3525316,116.770127 C18.3525316,110.646899 22.9663924,106.513291 28.9352532,106.513291 C33.2746835,106.513291 35.8131646,108.863101 37.2024684,111.367278 L33.5662658,113.151076 C32.7258228,111.538797 30.9420253,110.269557 28.9181013,110.269557 C25.2818987,110.269557 22.6748101,113.031013 22.6748101,116.787278 C22.6748101,120.543544 25.2990506,123.305 28.9181013,123.305 C30.9420253,123.305 32.7258228,122.018608 33.5662658,120.423481 L37.2024684,122.172975 C35.7960127,124.642848 33.2746835,127.044114 28.9352532,127.044114 C22.9663924,127.026962 18.3525316,122.876203 18.3525316,116.770127" id="Path" fill="#3A3A3A"></path>
            <rect id="Rectangle" fill="#3A3A3A" x="39.7237975" y="106.839177" width="4.21936709" height="19.8447468"></rect>
            <polygon id="Path" fill="#3A3A3A" points="47.9224051 126.683924 47.9224051 106.839177 61.9526582 106.839177 61.9526582 110.561139 52.1417722 110.561139 52.1417722 114.711899 61.7468354 114.711899 61.7468354 118.433861 52.1417722 118.433861 52.1417722 122.961962 61.9526582 122.961962 61.9526582 126.683924"></polygon>
            <polygon id="Path" fill="#3A3A3A" points="79.2074684 126.683924 69.7567722 113.734241 69.7567722 126.683924 65.5374051 126.683924 65.5374051 106.839177 69.8768354 106.839177 79.0702532 119.291456 79.0702532 106.839177 83.2896203 106.839177 83.2896203 126.683924"></polygon>
            <polygon id="Path" fill="#3A3A3A" points="91.3167089 126.683924 91.3167089 110.561139 85.5193671 110.561139 85.5193671 106.839177 101.35057 106.839177 101.35057 110.561139 95.5703797 110.561139 95.5703797 126.683924"></polygon>
            <rect id="Rectangle" fill="#3A3A3A" x="103.563165" y="106.839177" width="4.21936709" height="19.8447468"></rect>
            <polygon id="Path" fill="#3A3A3A" points="111.761772 126.683924 111.761772 106.839177 125.792025 106.839177 125.792025 110.561139 115.981139 110.561139 115.981139 114.711899 125.586203 114.711899 125.586203 118.433861 115.981139 118.433861 115.981139 126.683924"></polygon>
            <rect id="Rectangle" fill="#3A3A3A" x="128.759304" y="106.839177" width="4.21936709" height="19.8447468"></rect>
            <path d="M135.928797,116.770127 C135.928797,110.646899 140.542658,106.513291 146.511519,106.513291 C150.850949,106.513291 153.38943,108.863101 154.778734,111.367278 L151.159684,113.151076 C150.319241,111.538797 148.535443,110.269557 146.511519,110.269557 C142.875316,110.269557 140.268228,113.031013 140.268228,116.787278 C140.268228,120.543544 142.892468,123.305 146.511519,123.305 C148.535443,123.305 150.319241,122.018608 151.159684,120.423481 L154.778734,122.172975 C153.372278,124.642848 150.850949,127.044114 146.511519,127.044114 C140.542658,127.026962 135.928797,122.876203 135.928797,116.770127" id="Path" fill="#3A3A3A"></path>
            <path d="M164.006456,116.770127 C164.006456,110.492532 168.757532,106.513291 174.589177,106.513291 C178.688481,106.513291 181.278418,108.588671 182.770633,110.938481 L179.288797,112.842342 C178.362595,111.453038 176.664557,110.252405 174.589177,110.252405 C170.952975,110.252405 168.345886,113.013861 168.345886,116.770127 C168.345886,120.526392 170.970127,123.287848 174.589177,123.287848 C176.338671,123.287848 177.985253,122.516013 178.791392,121.778481 L178.791392,119.394367 L173.560063,119.394367 L173.560063,115.706709 L183.010759,115.706709 L183.010759,123.322152 C180.986835,125.586203 178.156772,127.044114 174.589177,127.044114 C168.757532,127.026962 164.006456,123.013418 164.006456,116.770127" id="Path" fill="#3A3A3A"></path>
            <path d="M199.768165,126.683924 L198.516076,123.322152 L190.008734,123.322152 L188.756646,126.683924 L183.971266,126.683924 L191.621013,106.839177 L196.920949,106.839177 L204.570696,126.683924 L199.768165,126.683924 Z M194.279557,111.058544 L191.192215,119.60019 L197.384051,119.60019 L194.279557,111.058544 Z" id="Shape" fill="#3A3A3A" fill-rule="nonzero"></path>
            <polygon id="Path" fill="#3A3A3A" points="223.626456 126.683924 223.626456 112.362089 218.034937 126.683924 216.182532 126.683924 210.591013 112.362089 210.591013 126.683924 206.371646 126.683924 206.371646 106.839177 212.289051 106.839177 217.108734 119.24 221.928418 106.839177 227.880127 106.839177 227.880127 126.683924"></polygon>
            <polygon id="Path" fill="#3A3A3A" points="231.910823 126.683924 231.910823 106.839177 245.958228 106.839177 245.958228 110.561139 236.13019 110.561139 236.13019 114.711899 245.735253 114.711899 245.735253 118.433861 236.13019 118.433861 236.13019 122.961962 245.958228 122.961962 245.958228 126.683924"></polygon>
            <path d="M248.033608,123.888165 L250.349114,120.595 C251.75557,122.052911 253.916709,123.305 256.661013,123.305 C259.010823,123.305 260.108544,122.258734 260.108544,121.109557 C260.108544,117.662025 248.68538,120.063291 248.68538,112.602215 C248.68538,109.309051 251.549747,106.564747 256.215063,106.564747 C259.371013,106.564747 261.978101,107.525253 263.95057,109.326203 L261.600759,112.482152 C260.005633,110.989937 257.861646,110.303861 255.837722,110.303861 C254.053924,110.303861 253.041962,111.075696 253.041962,112.276329 C253.041962,115.397975 264.430823,113.288291 264.430823,120.697911 C264.430823,124.316962 261.823734,127.061266 256.489494,127.061266 C252.630316,127.026962 249.903165,125.757722 248.033608,123.888165" id="Path" fill="#3A3A3A"></path>
            <path d="M266.283228,0.0686075949 L266.283228,0.497405063 L265.459937,0.497405063 L265.459937,2.6585443 L264.94538,2.6585443 L264.94538,0.497405063 L264.122089,0.497405063 L264.122089,0.0686075949 L266.283228,0.0686075949 Z M269.078987,2.6756962 L268.976076,1.14917722 C268.958924,0.94335443 268.958924,0.703227848 268.958924,0.428797468 L268.92462,0.428797468 C268.856013,0.651772152 268.770253,0.960506329 268.701646,1.20063291 L268.238544,2.64139241 L267.706835,2.64139241 L267.243734,1.16632911 C267.192278,0.977658228 267.123671,0.651772152 267.055063,0.428797468 L267.020759,0.428797468 C267.020759,0.668924051 267.003608,0.909050633 267.003608,1.14917722 L266.900696,2.6756962 L266.403291,2.6756962 L266.591962,0.0857594937 L267.363797,0.0857594937 L267.809747,1.355 C267.878354,1.56082278 267.912658,1.74949367 267.981266,2.00677215 L267.998418,2.00677215 C268.067025,1.78379747 268.118481,1.54367089 268.187089,1.3721519 L268.633038,0.0857594937 L269.37057,0.0857594937 L269.576392,2.6756962 L269.078987,2.6756962 Z" id="Shape" fill="#000000" fill-rule="nonzero"></path>
        </g>
    </g>
</svg>